<?xml version="1.0" standalone="no"?>
<!DOCTYPE svg PUBLIC "-//W3C//DTD SVG 20010904//EN"
 "http://www.w3.org/TR/2001/REC-SVG-20010904/DTD/svg10.dtd">
<svg version="1.0" xmlns="http://www.w3.org/2000/svg"
 width="958.000000pt" height="1618.000000pt" viewBox="0 0 958.000000 1618.000000"
 preserveAspectRatio="xMidYMid meet">
<metadata>
Created by potrace 1.16, written by Peter Selinger 2001-2019
</metadata>
<g transform="translate(0.000000,1618.000000) scale(0.100000,-0.100000)"
fill="#000000" stroke="none">
<path d="M1521 16139 c-83 -16 -146 -41 -286 -114 -155 -81 -212 -100 -495
-176 -107 -28 -215 -61 -240 -74 -25 -12 -74 -26 -110 -30 -184 -21 -295 -122
-345 -315 -29 -111 -6 -208 80 -341 l44 -68 -35 -68 c-22 -43 -37 -89 -41
-125 -5 -51 -2 -65 30 -132 40 -85 95 -150 170 -200 29 -19 72 -55 96 -80 42
-43 46 -51 67 -157 60 -290 367 -757 604 -917 51 -34 103 -65 116 -68 29 -7
30 -17 9 -175 -8 -64 -15 -131 -14 -150 5 -114 -27 -510 -61 -754 -16 -109
-57 -293 -86 -388 -32 -99 -42 -183 -54 -437 -5 -113 -14 -275 -19 -360 -26
-391 -7 -964 38 -1188 11 -53 25 -131 31 -172 7 -41 20 -109 31 -151 10 -41
25 -124 34 -183 8 -59 28 -164 44 -234 42 -180 67 -312 96 -507 59 -399 64
-416 153 -473 32 -21 81 -54 108 -73 27 -20 57 -39 67 -42 9 -4 17 -15 17 -25
0 -32 62 -226 80 -252 17 -24 49 -102 124 -301 18 -47 42 -99 53 -115 11 -16
24 -48 28 -71 10 -65 70 -226 127 -343 42 -87 64 -117 123 -175 39 -39 106
-90 150 -116 257 -149 271 -155 512 -228 70 -22 106 -38 113 -51 6 -11 25 -27
42 -36 35 -18 131 -91 229 -175 36 -31 88 -71 115 -89 27 -19 72 -52 99 -75
28 -23 115 -88 195 -144 80 -56 168 -118 195 -138 28 -20 93 -67 145 -103 52
-37 134 -97 181 -132 120 -91 330 -228 436 -284 48 -26 113 -64 143 -84 30
-21 80 -50 110 -65 30 -15 118 -66 195 -113 237 -144 491 -263 703 -328 239
-73 299 -100 380 -175 93 -85 115 -122 173 -299 101 -303 316 -774 474 -1039
126 -213 231 -410 337 -636 211 -450 411 -808 626 -1122 81 -117 201 -295 267
-395 212 -323 266 -388 476 -573 194 -171 255 -206 441 -255 177 -47 362 -39
481 21 57 29 147 106 159 138 6 14 22 51 37 81 25 53 26 63 29 258 3 157 0
225 -13 305 -46 274 -316 991 -552 1461 -63 126 -127 248 -142 270 -16 23 -81
126 -146 231 -65 104 -147 232 -182 284 -36 52 -91 147 -123 211 -32 63 -88
167 -125 230 -108 185 -220 416 -270 559 l-46 134 36 131 c61 222 104 336 171
457 96 174 137 267 202 460 33 96 91 253 130 349 99 249 217 633 327 1065 100
396 129 742 113 1343 -12 444 -35 625 -150 1172 -130 621 -384 1295 -661 1756
-93 155 -263 395 -367 519 -297 354 -531 596 -795 820 -77 65 -167 145 -200
176 -91 85 -317 241 -456 313 -93 48 -180 82 -349 136 -124 39 -243 77 -265
85 -52 18 -210 55 -238 56 -16 0 -35 20 -69 72 -26 40 -83 119 -127 177 -45
58 -100 140 -123 183 -24 43 -87 138 -140 210 -159 216 -242 355 -413 692
-310 614 -372 714 -550 891 -166 165 -237 208 -575 349 -102 42 -302 136 -445
209 -335 171 -537 263 -604 276 -70 13 -168 13 -305 -2 -92 -9 -142 -8 -291 6
-196 18 -218 18 -284 5z"/>
</g>
</svg>
