<?xml version="1.0" standalone="no"?>
<!DOCTYPE svg PUBLIC "-//W3C//DTD SVG 20010904//EN"
 "http://www.w3.org/TR/2001/REC-SVG-20010904/DTD/svg10.dtd">
<svg version="1.0" xmlns="http://www.w3.org/2000/svg"
 width="1536.000000pt" height="713.000000pt" viewBox="0 0 1536.000000 713.000000"
 preserveAspectRatio="xMidYMid meet">
<metadata>
Created by potrace 1.16, written by Peter Selinger 2001-2019
</metadata>
<g transform="translate(0.000000,713.000000) scale(0.100000,-0.100000)"
fill="#000000" stroke="none">
<path d="M7585 7124 c-139 -7 -302 -26 -387 -45 -113 -25 -140 -24 -273 6
-171 39 -206 41 -304 11 -102 -31 -116 -32 -228 -5 -63 15 -113 19 -175 17
-81 -3 -92 -6 -175 -49 -95 -50 -150 -64 -278 -74 -123 -9 -213 -25 -281 -51
-35 -13 -101 -28 -148 -34 -58 -7 -122 -25 -198 -54 -63 -25 -176 -58 -256
-75 -172 -36 -240 -66 -307 -132 -55 -53 -93 -69 -168 -69 -64 0 -186 -41
-269 -91 -37 -22 -101 -53 -143 -69 -42 -16 -102 -44 -133 -62 -65 -39 -93
-50 -177 -73 -33 -9 -94 -34 -135 -55 -42 -21 -105 -46 -140 -55 -36 -9 -114
-38 -175 -65 -60 -26 -135 -53 -166 -59 -70 -15 -120 -46 -232 -149 -50 -45
-117 -94 -154 -113 -59 -30 -66 -32 -77 -17 -7 9 -22 77 -35 150 -58 346 -109
472 -248 618 -48 51 -110 105 -138 121 -89 51 -162 33 -207 -54 -22 -41 -23
-52 -28 -532 -6 -516 -7 -522 -53 -546 -12 -7 -69 -42 -127 -79 -58 -37 -165
-97 -238 -135 -295 -149 -440 -306 -462 -501 -6 -59 -17 -95 -48 -153 -21 -42
-90 -175 -152 -296 -62 -121 -147 -274 -190 -340 -42 -66 -117 -192 -165 -280
-111 -203 -180 -309 -247 -382 -70 -76 -92 -109 -108 -158 -7 -22 -37 -94 -67
-160 -63 -138 -93 -219 -93 -250 0 -13 18 -50 40 -83 51 -76 213 -247 254
-269 54 -29 247 -16 376 24 45 14 72 34 150 108 182 173 223 198 472 289 304
112 481 193 644 296 50 32 111 68 135 79 24 12 78 51 119 87 141 123 199 154
219 115 6 -11 31 -34 56 -51 29 -20 69 -66 116 -135 87 -129 190 -241 286
-312 72 -53 73 -54 73 -99 0 -68 -57 -169 -154 -271 -87 -92 -129 -121 -226
-154 -169 -57 -456 -226 -613 -360 -141 -122 -542 -349 -638 -362 -24 -3 -81
-25 -128 -48 -73 -35 -102 -58 -191 -148 -58 -58 -122 -119 -143 -134 -21 -16
-62 -61 -92 -101 -30 -40 -76 -88 -102 -107 -139 -99 -179 -167 -137 -228 24
-34 89 -60 135 -54 45 6 46 3 24 -71 -17 -55 -20 -152 -6 -188 14 -36 71 -87
113 -100 49 -14 109 7 172 63 52 46 182 215 228 296 32 57 107 124 185 165 52
28 59 22 73 -57 24 -133 31 -162 50 -193 45 -73 140 -75 204 -4 18 20 55 61
82 91 40 44 69 64 153 103 121 57 174 91 254 165 88 80 132 83 189 11 70 -88
104 -118 136 -118 28 0 44 10 163 95 35 25 37 25 130 15 52 -5 237 -10 412
-10 l319 0 106 55 c133 68 202 119 226 168 35 73 78 271 92 427 3 41 13 85 20
97 8 13 45 38 83 57 102 52 213 140 386 308 l156 151 232 -37 c459 -74 534
-87 682 -121 185 -41 244 -50 465 -69 255 -23 653 -36 1075 -36 l371 0 16 -45
c9 -24 45 -88 79 -142 34 -54 75 -119 92 -146 17 -26 27 -50 24 -54 -4 -3 -64
-9 -134 -14 -178 -11 -296 -43 -458 -124 -132 -65 -231 -134 -261 -181 -21
-32 -21 -101 0 -142 33 -65 161 -109 281 -98 124 12 129 12 132 -4 13 -99 36
-136 105 -171 56 -28 159 -37 578 -49 201 -5 379 -14 395 -19 l30 -8 -30 -13
c-20 -8 -130 -15 -330 -21 -346 -9 -482 -22 -614 -55 -133 -34 -211 -85 -211
-140 0 -8 -20 -67 -45 -129 -52 -133 -62 -183 -45 -225 26 -62 92 -73 263 -43
72 12 100 14 109 5 6 -6 14 -53 19 -105 4 -51 13 -105 20 -120 14 -32 73 -74
115 -83 63 -12 514 91 698 161 93 35 165 51 363 80 92 13 229 33 303 45 91 14
227 23 415 30 462 16 666 40 771 90 57 28 167 140 196 199 19 39 22 63 22 161
1 139 -8 167 -83 268 -54 72 -192 212 -209 212 -15 0 -190 184 -295 310 -57
69 -141 166 -186 215 -111 121 -165 199 -202 286 -29 72 -69 201 -69 226 0 22
38 34 158 49 151 20 184 28 260 70 59 34 257 178 332 243 47 41 86 51 205 51
203 1 329 42 444 145 68 60 98 78 179 106 80 28 131 25 178 -9 54 -40 155
-150 205 -224 47 -69 94 -129 182 -228 32 -36 70 -84 83 -107 42 -70 305 -278
510 -403 59 -36 112 -74 118 -85 50 -91 163 -219 246 -280 26 -19 72 -41 103
-49 78 -20 84 -24 167 -117 139 -153 241 -238 409 -336 226 -134 445 -212 753
-268 79 -14 238 -46 353 -70 413 -87 413 -87 723 -92 155 -3 303 -2 328 2 85
12 154 102 140 179 -13 69 -54 87 -303 137 -174 34 -228 51 -332 103 -40 21
-120 52 -176 71 -123 40 -143 50 -220 110 -75 59 -130 87 -225 115 -85 25
-140 50 -225 103 -33 20 -87 43 -119 52 -74 18 -104 39 -231 155 -55 51 -121
102 -146 115 -54 28 -132 86 -165 123 -13 15 -33 52 -45 82 -30 81 -50 109
-160 228 -122 130 -166 211 -174 317 -10 125 -13 132 -70 193 -30 33 -58 70
-64 83 -6 17 -2 66 15 159 27 157 30 243 9 320 -21 77 -19 113 6 136 12 10 32
42 45 69 31 65 32 171 4 287 -16 62 -24 149 -34 343 l-12 260 -57 115 c-31 63
-59 135 -63 160 -4 24 -37 101 -72 170 -118 225 -112 210 -127 353 -7 73 -20
150 -28 173 -44 121 -115 219 -269 370 -202 198 -367 330 -518 414 -52 29
-123 72 -158 97 -87 62 -179 102 -372 163 -173 54 -504 181 -604 232 -32 16
-110 48 -173 69 -63 22 -156 60 -206 86 -50 25 -143 62 -207 83 -211 69 -369
93 -875 130 -311 22 -514 43 -650 66 -87 15 -594 27 -770 18z"/>
</g>
</svg>
