<?xml version="1.0" standalone="no"?>
<!DOCTYPE svg PUBLIC "-//W3C//DTD SVG 20010904//EN"
 "http://www.w3.org/TR/2001/REC-SVG-20010904/DTD/svg10.dtd">
<svg version="1.0" xmlns="http://www.w3.org/2000/svg"
 width="1432.000000pt" height="1536.000000pt" viewBox="0 0 1432.000000 1536.000000"
 preserveAspectRatio="xMidYMid meet">
<metadata>
Created by potrace 1.16, written by Peter Selinger 2001-2019
</metadata>
<g transform="translate(0.000000,1536.000000) scale(0.100000,-0.100000)"
fill="#000000" stroke="none">
<path d="M11640 15350 c0 -5 6 -10 13 -10 8 0 7 -4 -3 -10 -21 -13 -120 -12
-197 2 -52 9 -66 9 -73 -1 -5 -9 -17 -11 -41 -5 -48 12 -54 11 -55 -6 0 -8 -6
-28 -13 -44 -9 -22 -16 -27 -34 -22 -13 3 -36 -2 -52 -10 -17 -9 -51 -18 -77
-21 -33 -4 -45 -9 -41 -19 3 -9 -8 -15 -36 -20 -25 -4 -41 -12 -41 -20 0 -9
-12 -14 -34 -14 -19 0 -36 -5 -38 -12 -3 -9 -12 -9 -38 0 -18 7 -44 12 -58 12
-20 0 -22 -3 -13 -14 10 -12 0 -15 -66 -20 -242 -20 -236 -18 -133 -48 25 -7
44 -17 42 -23 -3 -10 -7 -11 -84 -14 -40 -1 -48 -4 -48 -20 0 -20 -22 -29 -93
-35 -52 -5 -68 -22 -28 -31 43 -9 49 -25 8 -20 -38 5 -88 -6 -84 -18 3 -12
-66 -37 -123 -46 -58 -9 -70 -17 -70 -47 0 -16 -6 -24 -16 -24 -32 0 -93 -23
-87 -33 8 -13 -17 -27 -52 -27 l-30 -1 25 -11 c24 -11 24 -12 3 -15 -12 -2
-27 -11 -33 -19 -16 -18 -39 -18 -46 1 -8 21 -28 19 -49 -5 -18 -19 -17 -20 3
-20 11 0 23 -4 26 -9 3 -5 0 -9 -7 -8 -61 2 -94 -17 -44 -26 20 -4 19 -5 -10
-18 -37 -15 -41 -24 -15 -34 16 -6 16 -7 -1 -17 -13 -7 -22 -7 -30 1 -14 14
-84 15 -92 1 -3 -5 3 -10 13 -10 15 0 19 -5 15 -20 -3 -11 -12 -20 -19 -20
-17 0 -103 -43 -104 -51 0 -3 10 -11 23 -17 22 -10 22 -11 -5 -11 -19 -1 -28
-6 -28 -17 0 -12 -7 -15 -27 -11 -29 6 -108 -8 -132 -22 -7 -5 -11 -14 -7 -20
4 -6 14 -3 26 9 23 23 76 26 103 6 25 -19 21 -26 -17 -26 -19 0 -36 -4 -38
-10 -1 -5 -23 -20 -48 -33 -25 -13 -49 -33 -54 -44 -7 -14 -23 -23 -48 -27
-23 -4 -38 -12 -38 -20 0 -19 -55 -42 -120 -50 -74 -9 -100 -16 -100 -27 0 -5
16 -9 36 -9 24 0 34 -4 32 -12 -3 -8 -28 -14 -67 -16 -53 -3 -61 -5 -51 -17
15 -18 1 -20 -48 -6 -17 5 -32 6 -32 1 0 -5 14 -11 30 -15 29 -6 42 -33 18
-37 -24 -3 -83 -6 -143 -7 -39 -1 -55 -4 -46 -10 8 -5 20 -7 27 -4 13 5 37
-30 27 -41 -3 -3 -17 -3 -31 1 -18 4 -23 3 -17 -6 6 -10 -8 -11 -61 -6 -38 3
-80 8 -94 11 -18 3 -21 2 -11 -5 11 -7 10 -11 -5 -19 -11 -5 -34 -13 -51 -17
-19 -4 -33 -13 -33 -21 0 -11 6 -13 21 -9 15 5 19 4 15 -4 -4 -6 -18 -11 -32
-11 -18 0 -24 5 -24 21 0 18 -2 20 -16 9 -8 -8 -51 -15 -96 -18 -83 -5 -89
-19 -9 -23 50 -3 63 -16 24 -25 -15 -3 -37 -8 -48 -12 -18 -5 -18 -6 5 -12 23
-5 22 -7 -24 -33 -38 -21 -62 -27 -112 -27 -34 0 -66 -4 -69 -10 -4 -6 9 -10
31 -10 57 0 30 -15 -71 -40 -106 -26 -135 -39 -87 -40 17 0 32 -4 32 -8 0 -4
-40 -25 -88 -45 -48 -20 -115 -55 -147 -77 -33 -22 -67 -40 -76 -40 -8 0 -24
-7 -35 -15 -18 -14 -18 -14 6 -15 24 0 66 -19 45 -20 -5 0 1 -7 15 -15 22 -13
23 -14 5 -15 -29 -1 -112 -41 -97 -47 7 -3 26 1 43 7 16 7 32 11 35 8 7 -8
-74 -61 -84 -54 -16 9 -105 -20 -162 -54 -30 -18 -73 -35 -95 -37 -51 -6 -94
-21 -120 -43 -11 -9 -52 -22 -92 -29 -40 -7 -77 -19 -84 -27 -8 -10 -38 -14
-114 -14 -80 0 -105 -3 -115 -15 -9 -11 -16 -13 -24 -5 -13 13 -29 13 -21 1 3
-5 -5 -17 -17 -25 -16 -12 -25 -13 -35 -4 -10 8 -17 8 -25 0 -7 -7 -24 -12
-40 -12 -31 0 -78 -19 -78 -32 0 -4 12 -8 28 -8 21 0 24 -2 12 -10 -8 -5 -27
-10 -41 -10 -15 0 -32 -6 -38 -14 -7 -8 -30 -14 -54 -15 -23 0 -85 -5 -137
-12 -52 -6 -130 -14 -172 -18 -70 -6 -121 -21 -70 -21 12 0 22 -4 22 -9 0 -9
-54 -19 -110 -20 -14 0 -74 -8 -134 -18 -107 -18 -109 -19 -85 -35 l24 -17
-25 0 c-14 -1 -52 -10 -83 -21 -32 -11 -62 -18 -67 -15 -6 4 -22 -1 -37 -9
-16 -8 -37 -18 -48 -21 l-20 -7 20 -8 c11 -5 -9 -6 -47 -3 -54 5 -68 3 -68 -8
0 -17 -60 -69 -81 -69 -9 0 -42 -9 -75 -20 -32 -12 -79 -25 -104 -31 -25 -5
-79 -25 -120 -44 -70 -32 -125 -48 -330 -91 -41 -9 -97 -25 -123 -35 -26 -11
-59 -19 -72 -19 -14 0 -25 -4 -25 -9 0 -13 -124 -52 -354 -112 -21 -5 -48 -16
-60 -24 -11 -8 -34 -15 -52 -15 -17 0 -33 -2 -36 -5 -3 -3 -45 -7 -94 -9 -49
-2 -100 -6 -114 -10 -14 -3 -52 -11 -85 -17 -33 -6 -64 -14 -70 -18 -18 -14
-65 -22 -65 -11 0 16 -57 12 -92 -6 -51 -26 -197 -19 -243 12 -11 8 -25 14
-32 14 -8 0 -31 12 -53 26 -24 16 -48 24 -60 21 -18 -5 -62 9 -157 50 -17 7
-51 17 -75 21 -24 5 -69 25 -101 45 -31 20 -76 40 -100 43 -23 4 -55 14 -72
24 -16 10 -48 23 -70 30 -22 7 -53 18 -70 26 -56 24 -218 80 -258 88 -134 27
-167 31 -186 24 -12 -4 -46 -8 -74 -8 -29 0 -108 -4 -177 -8 -112 -6 -125 -9
-128 -26 -2 -11 4 -23 13 -29 14 -8 7 -13 -40 -29 -31 -10 -62 -17 -69 -15 -6
2 -26 -5 -44 -15 -18 -10 -37 -18 -42 -18 -6 0 -28 -17 -49 -38 -22 -21 -55
-47 -75 -57 -20 -11 -36 -27 -36 -35 0 -9 -12 -23 -27 -32 -35 -21 -74 -61
-77 -81 -1 -8 -14 -25 -28 -38 -83 -76 -283 -322 -308 -380 -6 -13 -23 -44
-39 -69 -36 -56 -178 -339 -202 -400 -9 -25 -29 -74 -44 -110 -15 -36 -38 -90
-50 -120 -13 -30 -26 -73 -30 -95 -10 -63 -54 -213 -87 -297 -17 -43 -34 -110
-38 -150 -17 -149 -43 -285 -72 -383 -20 -65 -32 -130 -35 -185 -2 -47 -8 -96
-13 -110 -11 -33 -71 -261 -111 -425 -17 -71 -37 -142 -45 -156 -20 -40 -71
-261 -84 -371 -8 -60 -10 -148 -6 -230 18 -419 18 -419 -3 -618 -11 -107 -28
-242 -36 -300 -39 -269 -44 -324 -29 -341 18 -20 18 -29 -1 -43 -12 -9 -13
-21 -4 -76 6 -36 7 -85 4 -110 -6 -39 -13 -125 -17 -212 0 -16 -4 -28 -8 -28
-15 0 -21 -915 -7 -1043 9 -81 40 -153 105 -241 26 -35 59 -83 74 -105 25 -36
32 -41 67 -41 26 0 41 5 45 16 4 12 13 14 32 10 15 -4 32 -2 40 5 11 9 15 8
20 -5 9 -24 58 -20 92 9 16 13 32 22 36 18 3 -3 6 1 6 10 0 9 14 63 31 119 35
115 47 203 49 358 1 58 6 130 11 160 6 30 14 100 19 154 4 55 14 128 20 164 7
35 10 90 7 121 -4 33 -2 62 3 67 6 6 12 28 14 50 2 21 10 62 16 89 7 28 12 71
11 97 -1 25 3 49 7 52 5 3 6 23 3 43 -4 21 -5 85 -3 143 6 147 4 173 -13 254
-10 50 -16 172 -21 396 -5 269 -4 345 10 440 8 63 20 176 27 250 7 86 18 155
31 190 11 30 24 91 30 135 5 44 20 152 33 240 13 88 33 228 45 310 12 83 33
181 46 220 14 38 34 103 44 145 29 119 63 201 112 272 26 38 52 92 62 129 10
35 33 96 51 134 33 70 60 145 95 264 10 35 32 84 49 108 28 39 30 46 17 59
-15 15 -10 46 22 126 19 48 150 262 191 313 23 28 58 73 80 101 l39 51 86 12
c48 6 94 15 103 18 14 6 13 0 -5 -31 l-23 -39 41 7 c24 4 40 2 40 -4 0 -5 -8
-10 -17 -11 -15 0 -15 -2 2 -9 11 -5 14 -9 8 -9 -24 -2 -13 -21 12 -21 16 0
25 -6 25 -15 0 -8 -5 -15 -11 -15 -7 0 -9 -12 -6 -32 2 -19 -2 -45 -9 -60 -8
-16 -11 -28 -7 -28 4 0 -2 -7 -13 -15 -16 -13 -16 -14 -1 -9 12 4 17 1 17 -11
0 -9 -5 -13 -10 -10 -6 3 -10 -1 -10 -9 0 -8 -9 -20 -20 -26 -11 -6 -18 -15
-15 -21 4 -5 0 -9 -8 -9 -14 0 -24 -16 -79 -124 -11 -22 -18 -51 -16 -67 4
-23 2 -26 -9 -18 -16 14 -18 7 -32 -85 -7 -50 -21 -86 -49 -135 -22 -36 -63
-127 -92 -201 -29 -74 -61 -151 -71 -171 -10 -20 -37 -86 -59 -145 -22 -60
-61 -146 -85 -191 -30 -55 -56 -123 -76 -201 -16 -64 -39 -147 -50 -184 -11
-37 -29 -134 -39 -215 -11 -81 -25 -173 -31 -203 -25 -124 -28 -149 -28 -237
-1 -79 -5 -99 -30 -152 -23 -50 -30 -79 -36 -171 -4 -73 -3 -115 4 -123 7 -9
6 -21 -4 -41 -21 -41 -19 -58 8 -55 38 4 58 -10 46 -32 -8 -15 -6 -19 7 -19
13 0 16 -7 11 -34 -9 -57 32 -78 53 -27 6 16 20 37 30 46 18 16 21 16 55 -5
20 -12 37 -21 39 -19 2 2 8 14 15 26 10 20 14 21 48 9 40 -14 63 -44 24 -33
-11 4 -30 10 -41 13 -37 12 -36 -24 1 -55 32 -28 33 -28 11 -35 -26 -9 -29
-34 -5 -42 57 -19 153 -70 189 -99 24 -20 56 -38 72 -41 25 -5 31 -12 35 -43
3 -20 11 -60 17 -90 8 -37 8 -57 1 -64 -7 -7 7 -29 44 -69 37 -40 55 -68 55
-85 0 -14 20 -72 45 -129 25 -56 45 -113 45 -125 l0 -21 18 23 c27 32 54 20
43 -19 -5 -16 -14 -39 -21 -51 -11 -21 -10 -22 10 -11 25 13 50 7 50 -13 0 -8
-17 -27 -37 -43 -21 -15 -40 -29 -42 -30 -2 -2 10 -15 27 -29 18 -15 40 -51
54 -85 12 -32 30 -61 39 -63 9 -3 35 -28 58 -57 30 -38 41 -61 41 -86 0 -28 5
-36 25 -44 32 -12 32 -31 -1 -64 -29 -29 -26 -31 25 -16 42 12 66 -2 51 -30
-7 -13 -7 -21 0 -25 18 -11 11 -45 -12 -54 -23 -9 -23 -9 5 -20 16 -6 30 -11
32 -11 2 0 27 -14 55 -32 28 -17 69 -34 91 -37 50 -7 51 -25 2 -29 -58 -5 -60
-18 -4 -26 57 -8 66 -21 21 -31 -39 -9 -39 -25 0 -25 30 0 31 -1 24 -35 -4
-25 -3 -35 6 -35 12 0 11 -15 -6 -86 l-7 -29 20 24 c31 38 45 19 28 -37 -18
-58 -18 -57 0 -42 22 18 30 5 16 -26 -10 -22 -9 -30 4 -44 8 -9 15 -31 15 -49
0 -19 4 -30 10 -26 6 3 10 -5 10 -19 0 -13 6 -26 12 -29 10 -3 9 -13 -5 -41
-9 -20 -17 -49 -17 -64 -1 -15 -7 -52 -14 -83 -7 -30 -11 -78 -9 -105 11 -114
-63 -291 -189 -455 -37 -47 -70 -97 -73 -112 -7 -26 -5 -27 29 -27 41 0 57
-22 37 -49 -6 -9 -14 -25 -18 -36 -4 -11 -24 -54 -45 -95 -24 -47 -41 -94 -44
-130 -4 -30 -14 -71 -24 -90 -10 -19 -45 -92 -79 -162 -34 -69 -91 -170 -127
-224 -60 -90 -64 -100 -54 -125 14 -32 9 -44 -56 -132 l-45 -60 31 -18 c16
-10 30 -24 30 -30 0 -12 -57 -69 -70 -69 -4 0 -11 -8 -14 -17 -9 -26 -30 -60
-50 -82 -9 -10 -18 -29 -19 -42 -1 -13 -12 -38 -24 -56 -13 -17 -23 -38 -23
-46 0 -17 -56 -77 -71 -77 -5 0 -9 -11 -9 -24 0 -14 -9 -31 -21 -40 -14 -10
-19 -21 -15 -32 4 -11 -5 -27 -29 -50 -20 -19 -34 -38 -31 -42 3 -5 -8 -19
-24 -31 -17 -12 -30 -27 -30 -34 0 -7 -15 -19 -33 -28 -31 -15 -99 -101 -94
-119 1 -5 -20 -27 -47 -50 -26 -22 -42 -40 -35 -40 9 0 9 -3 -2 -12 -9 -7 -23
-25 -32 -40 -12 -20 -26 -28 -45 -28 -16 0 -37 -6 -48 -14 -17 -13 -17 -17 -5
-37 11 -19 11 -23 -3 -31 -9 -5 -16 -15 -16 -23 0 -7 -9 -17 -21 -20 -12 -4
-18 -12 -15 -21 3 -9 -1 -14 -14 -14 -10 0 -21 -4 -25 -9 -3 -5 -18 -12 -34
-16 -38 -8 -59 -31 -43 -47 19 -19 14 -36 -10 -43 -38 -12 -66 -44 -61 -68 8
-30 48 -67 73 -67 25 0 38 -29 19 -41 -11 -6 -8 -14 13 -36 15 -15 30 -41 34
-57 7 -31 30 -68 83 -134 17 -22 43 -64 56 -94 14 -29 48 -80 75 -113 28 -33
60 -85 71 -115 11 -30 33 -68 48 -85 43 -46 81 -107 81 -130 0 -12 4 -25 9
-30 5 -6 37 -63 71 -129 50 -96 77 -133 139 -195 76 -78 166 -187 178 -216 3
-9 18 -22 34 -30 15 -8 30 -24 34 -35 3 -11 10 -20 15 -20 14 0 110 -71 149
-111 105 -106 172 -160 191 -154 15 5 18 3 14 -8 -5 -15 44 -47 71 -47 7 0 15
-6 18 -13 3 -8 50 -32 105 -55 96 -40 142 -51 142 -34 0 15 53 5 66 -13 11
-14 23 -17 66 -13 132 13 331 -27 434 -87 23 -14 66 -47 96 -73 30 -28 88 -65
133 -86 l80 -38 111 7 c103 6 115 5 155 -15 40 -21 53 -22 194 -18 150 5 217
19 237 51 13 21 9 131 -7 185 -9 28 -30 70 -48 94 -18 24 -48 64 -65 91 -18
26 -58 73 -88 104 -30 31 -54 59 -54 63 0 11 -116 106 -182 148 -84 54 -148
72 -265 72 -180 0 -360 43 -457 109 -70 46 -103 62 -120 55 -12 -5 -15 -2 -10
10 5 12 -5 21 -37 36 -45 20 -99 69 -99 90 0 6 -16 18 -36 26 -26 11 -34 19
-30 32 6 19 -19 46 -108 117 -26 21 -55 54 -63 74 -8 20 -37 59 -63 88 -78 85
-131 208 -116 267 7 28 263 315 322 362 22 16 55 40 74 51 19 12 69 56 110 98
41 42 92 86 114 97 21 11 41 28 43 39 3 10 9 19 13 19 4 0 32 24 62 54 69 66
323 236 353 236 46 0 47 -8 36 -339 -5 -171 -13 -316 -16 -321 -4 -6 -3 -16 2
-23 15 -19 17 -573 2 -648 -7 -35 -13 -121 -13 -190 l-1 -126 33 -39 c37 -44
36 -43 80 -84 18 -16 52 -39 75 -51 23 -12 67 -36 97 -54 30 -19 78 -39 105
-45 28 -6 66 -20 85 -30 38 -19 173 -72 230 -88 19 -6 67 -14 105 -17 117 -11
244 -35 298 -57 77 -30 132 -45 247 -68 88 -18 110 -19 150 -9 43 11 50 10 88
-11 23 -13 42 -27 42 -32 0 -4 18 -8 39 -8 22 0 71 -7 109 -15 103 -21 286
-38 335 -31 32 5 55 17 83 45 l40 38 184 11 c231 15 363 15 415 1 56 -16 109
-73 129 -139 11 -35 18 -111 22 -210 6 -179 17 -243 50 -286 15 -20 66 -54
139 -93 107 -57 119 -61 180 -61 41 0 78 6 97 16 33 17 112 13 151 -7 19 -11
279 -32 402 -33 57 -1 76 3 101 21 29 21 37 22 84 13 85 -16 161 -12 197 10
48 29 54 48 38 116 -9 39 -10 64 -4 76 8 15 6 18 -16 18 -35 0 -31 16 5 24 48
9 73 76 74 191 1 111 -4 132 -50 186 -20 24 -46 66 -59 94 -12 27 -42 79 -66
115 -24 36 -66 117 -92 180 -26 63 -75 169 -108 236 -51 100 -63 134 -71 200
-9 72 -17 117 -50 288 -10 49 -9 69 5 125 15 56 16 76 6 119 -12 57 4 191 24
204 7 4 5 33 -7 91 -14 65 -17 116 -14 228 4 132 7 152 38 239 19 57 33 113
32 140 -1 49 32 212 50 247 6 12 8 33 6 47 -3 14 -1 27 3 28 4 2 13 46 19 98
6 52 23 144 36 205 21 89 24 123 18 183 -5 56 -3 82 9 110 68 158 87 230 98
372 9 115 18 163 44 244 18 56 37 122 40 148 7 46 24 66 26 31 0 -14 2 -15 6
-3 3 8 11 18 16 22 13 8 25 91 26 173 1 38 4 55 10 46 7 -10 13 -5 24 20 8 19
18 46 21 62 4 15 11 27 16 27 18 0 10 61 -12 91 -19 26 -20 31 -8 39 20 13 40
12 40 0 0 -5 5 -10 10 -10 6 0 10 15 10 33 0 40 23 137 56 242 25 77 26 83 14
176 -8 56 -11 144 -8 210 5 97 11 126 37 194 71 179 89 205 181 258 66 38 90
63 91 100 1 23 3 26 6 10 7 -36 51 -31 65 7 10 29 11 30 25 13 14 -17 14 -17
9 0 -4 12 0 17 14 17 25 0 35 -17 20 -35 -10 -11 -7 -15 13 -20 56 -15 103 49
118 160 23 176 38 236 79 311 34 63 43 89 51 162 12 117 15 131 56 254 38 118
72 174 128 208 25 15 44 38 57 69 42 99 87 135 179 146 30 4 78 15 107 26 29
10 68 19 88 19 20 0 67 16 116 41 105 53 225 93 373 124 66 14 149 32 185 40
36 8 103 17 150 20 77 6 89 4 125 -17 42 -25 82 -76 91 -117 12 -54 12 -54 39
-37 22 14 25 15 25 1 0 -8 -9 -20 -20 -27 -11 -7 -20 -18 -20 -25 0 -6 -4 -13
-10 -15 -5 -1 -11 -13 -13 -25 -1 -11 -8 -27 -14 -35 -19 -22 -44 -105 -37
-122 3 -8 -4 -36 -16 -61 -18 -37 -21 -56 -16 -94 7 -51 1 -81 -16 -81 -6 0
-7 7 -4 16 11 29 -18 9 -46 -32 -15 -21 -48 -76 -73 -121 -25 -45 -56 -95 -70
-111 -25 -30 -25 -72 0 -72 21 0 39 -30 40 -69 2 -51 58 -165 68 -139 4 9 6 8
6 -4 1 -9 -3 -18 -9 -20 -5 -1 2 -29 17 -60 18 -40 34 -61 54 -70 l29 -13 -22
-18 c-21 -16 -22 -18 -5 -28 9 -5 17 -21 17 -35 0 -38 17 -63 40 -59 15 3 20
-2 20 -18 1 -20 41 -77 55 -77 11 0 42 -38 47 -58 3 -12 1 -28 -6 -37 -16 -23
-8 -108 10 -101 21 8 17 -4 -7 -25 -18 -16 -19 -20 -6 -25 8 -3 24 -1 36 5 32
18 36 13 7 -10 -15 -12 -23 -25 -19 -32 14 -22 13 -54 -2 -88 -12 -27 -15 -29
-13 -10 2 13 -3 26 -10 28 -9 4 -11 -6 -7 -39 11 -94 18 -124 33 -148 9 -14
18 -47 20 -74 3 -40 0 -53 -15 -64 -16 -13 -16 -14 11 -8 24 6 27 4 22 -9 -3
-9 -6 -19 -6 -21 0 -3 -5 -2 -10 1 -6 3 -18 -1 -27 -11 -16 -15 -16 -17 1 -30
10 -7 15 -17 11 -23 -8 -13 -8 -13 33 -2 38 11 43 -1 7 -17 -14 -6 -25 -18
-25 -27 0 -8 -7 -15 -15 -15 -17 0 -7 -35 22 -75 23 -32 31 -31 35 3 3 27 3
27 24 -12 21 -40 21 -40 2 -56 -19 -15 -19 -18 -4 -54 9 -21 25 -40 36 -43 11
-3 20 -13 20 -22 0 -20 29 -62 30 -43 0 6 5 12 10 12 6 0 10 -15 10 -34 0 -44
9 -66 26 -66 8 0 14 -7 14 -15 0 -14 -14 -19 -47 -18 -22 1 -14 -23 12 -37 17
-9 24 -19 20 -29 -4 -9 -8 -33 -9 -54 -3 -29 0 -37 10 -33 17 6 18 -17 4 -45
-8 -13 -7 -19 0 -19 6 0 9 -4 6 -9 -4 -5 -1 -22 5 -38 7 -17 11 -86 10 -181
-1 -103 2 -151 9 -147 5 3 10 -3 10 -14 0 -12 3 -20 8 -20 29 5 34 -2 18 -20
-10 -11 -15 -24 -12 -30 10 -15 -12 -143 -30 -180 -13 -26 -14 -38 -6 -51 8
-13 7 -32 -3 -71 -11 -41 -12 -68 -3 -128 12 -89 13 -115 2 -139 -7 -15 -10
-38 -14 -92 -6 -82 20 -264 40 -284 5 -5 10 -25 10 -43 0 -18 6 -43 13 -54 10
-18 9 -23 -16 -43 -19 -15 -26 -28 -21 -39 3 -10 1 -24 -6 -32 -13 -16 -11
-25 22 -88 7 -14 5 -22 -5 -30 -8 -7 -17 -24 -21 -39 -5 -21 -2 -30 15 -38 14
-8 19 -18 15 -32 -2 -12 1 -33 8 -47 8 -14 12 -38 10 -53 -2 -19 2 -28 12 -28
8 0 14 -4 14 -10 0 -5 -4 -10 -9 -10 -5 0 -7 -8 -4 -19 3 -10 0 -22 -6 -25 -6
-4 -11 -17 -11 -30 0 -12 -5 -27 -12 -34 -9 -9 -7 -12 11 -12 20 0 21 -2 11
-15 -9 -10 -11 -32 -7 -66 3 -27 2 -60 -3 -73 -5 -15 -5 -27 3 -35 6 -6 8 -11
3 -11 -4 0 0 -12 8 -27 32 -60 46 -176 25 -214 -8 -15 -7 -24 2 -35 10 -13 10
-17 -1 -24 -8 -5 -15 -26 -16 -47 -3 -77 -14 -156 -23 -167 -9 -11 -16 -181
-13 -316 2 -78 47 -231 89 -302 46 -79 63 -155 63 -291 0 -131 12 -248 32
-302 6 -16 23 -46 38 -65 70 -91 76 -145 29 -251 -37 -85 -33 -117 19 -157 49
-37 123 -36 207 3 72 34 159 38 325 15 60 -8 195 -15 315 -15 133 -1 256 -8
335 -18 135 -18 315 -23 325 -8 10 17 101 42 181 49 l79 7 29 58 c28 57 28 58
10 79 -11 11 -39 29 -63 40 -24 10 -66 35 -93 54 -72 53 -111 61 -298 61 -185
1 -229 9 -306 58 -85 54 -116 68 -172 76 -29 4 -64 15 -78 23 -39 26 -113 126
-134 183 -22 59 -42 230 -30 253 5 9 2 48 -5 89 -15 77 -10 129 21 224 9 27
14 59 11 72 -2 14 1 26 7 28 6 2 11 29 11 65 -1 33 4 60 9 59 14 -3 24 40 25
108 1 36 7 69 16 82 26 38 59 548 35 563 -9 6 -9 13 -1 28 6 11 11 54 11 94 1
40 5 93 10 118 4 25 4 52 0 61 -5 9 -6 20 -1 25 17 19 30 93 30 172 1 46 3 88
7 93 8 13 16 133 14 202 -1 37 3 57 10 57 9 0 10 22 4 78 -10 114 -11 230 -1
292 24 157 28 220 37 505 5 171 12 326 16 345 3 19 8 58 9 85 2 28 8 73 14
100 6 28 13 87 15 131 2 45 8 90 13 100 14 27 16 104 3 104 -5 0 -10 5 -10 10
0 6 9 10 20 10 11 0 26 12 34 29 9 16 36 47 61 69 45 39 45 39 29 70 -16 32
-58 80 -86 97 -15 9 -16 23 -8 130 8 106 11 122 31 138 13 10 25 36 30 65 5
26 23 66 39 89 34 47 36 57 15 106 -12 29 -13 51 -5 119 15 122 37 230 72 348
39 136 43 143 68 127 16 -9 24 -9 39 0 17 11 20 9 23 -10 6 -42 62 91 62 150
1 31 6 55 13 57 6 3 15 26 19 51 4 33 10 45 20 41 22 -8 24 9 3 27 -25 22 -24
33 7 62 l26 24 -31 45 c-17 24 -31 55 -31 68 1 22 1 22 15 4 15 -19 15 -19 15
5 0 13 -9 30 -20 37 -11 7 -20 22 -20 35 0 18 2 19 10 7 7 -10 10 11 10 69 0
70 2 82 15 77 20 -7 19 4 -2 20 -16 12 -15 13 12 8 26 -5 33 -1 48 24 9 17 17
37 17 46 0 10 6 13 15 10 12 -5 15 4 15 44 0 30 -5 54 -14 61 -20 17 -26 59
-10 72 11 9 14 8 14 -5 0 -9 5 -16 10 -16 11 0 14 7 25 53 4 20 10 27 20 23 8
-3 17 -1 20 5 4 5 -1 12 -9 15 -17 7 -22 34 -7 34 5 0 17 -7 26 -16 18 -19 45
-12 45 11 0 9 4 13 10 10 5 -3 37 -3 70 1 53 6 60 9 55 25 -8 25 7 24 30 -1
18 -20 49 -25 79 -14 19 7 21 45 4 62 -6 6 -8 15 -4 19 4 5 18 -4 31 -20 13
-15 27 -27 30 -27 12 0 3 37 -15 60 -11 14 -20 32 -20 41 0 15 5 15 40 7 46
-12 109 -3 116 16 3 8 -7 38 -23 67 l-28 54 -3 357 -3 356 34 139 c19 76 42
178 51 226 9 49 28 125 43 170 17 54 28 120 33 197 8 103 45 309 99 550 16 69
20 136 24 350 l4 265 53 54 52 53 -20 37 c-33 58 -36 99 -12 153 11 25 26 49
33 51 6 3 46 3 87 0 75 -6 76 -5 175 45 147 74 237 139 289 206 35 45 46 68
46 95 0 51 20 81 61 95 115 39 149 94 149 239 0 92 42 317 72 381 12 27 10 30
-42 79 -210 196 -310 299 -316 324 -9 41 -93 230 -128 288 -16 28 -46 70 -66
95 -80 100 -110 169 -110 257 0 28 -4 43 -12 43 -9 0 -13 15 -13 43 0 23 -4
48 -9 55 -5 7 -4 18 4 27 10 13 9 15 -9 15 -11 0 -21 5 -21 10 0 6 4 10 9 10
12 0 20 49 10 56 -5 3 -4 15 3 27 6 12 12 31 13 42 1 11 7 59 14 106 6 47 14
128 17 180 3 52 9 95 14 97 5 2 4 12 -3 22 -10 16 -7 24 18 50 16 17 39 33 51
36 13 3 25 12 28 20 3 8 29 26 58 39 29 14 45 25 35 25 -10 0 -15 5 -12 10 4
6 24 7 48 4 34 -5 40 -4 30 6 -9 10 -7 17 12 31 13 11 28 19 34 19 18 0 13 18
-9 33 -14 10 -36 13 -68 9 -43 -5 -46 -4 -33 12 16 18 9 32 -10 20 -7 -4 -25
-8 -41 -9 -22 -2 -28 1 -28 18 0 11 7 29 17 39 15 17 15 18 -11 18 -14 0 -34
9 -43 20 -10 11 -26 20 -36 20 -15 0 -18 5 -13 25 6 23 5 24 -20 15 -22 -9
-25 -8 -20 6 5 13 2 15 -15 11 -24 -6 -65 25 -55 42 4 6 -11 19 -33 31 -30 15
-39 24 -34 37 4 11 3 14 -5 9 -7 -4 -15 1 -20 12 -8 22 -49 74 -109 139 -24
25 -43 51 -43 59 0 8 -4 14 -10 14 -5 0 -10 -4 -10 -10 0 -5 -4 -10 -10 -10
-15 0 -12 17 6 35 22 22 6 37 -40 38 -33 1 -36 4 -36 29 0 15 -5 28 -11 28 -5
0 -34 23 -63 50 -29 28 -60 50 -69 50 -10 0 -17 8 -17 18 0 21 -95 112 -116
112 -7 0 -32 23 -56 51 -45 54 -93 80 -145 81 -21 0 -40 9 -59 29 -15 16 -38
29 -52 29 -28 0 -64 18 -76 37 -5 10 -18 13 -40 9 -37 -7 -125 24 -198 71 -29
19 -61 30 -87 31 -51 2 -118 25 -206 71 -38 20 -73 37 -77 39 -5 2 -8 -3 -8
-11 0 -20 -90 -20 -137 -1 -33 14 -43 8 -21 -14 15 -15 -38 -8 -95 14 -44 16
-67 18 -67 4z m-6270 -8715 c14 -17 37 -20 42 -5 2 6 26 -5 53 -25 28 -19 57
-35 65 -35 8 0 44 -16 80 -35 66 -36 94 -43 105 -25 9 15 25 12 25 -5 0 -8 5
-15 10 -15 6 0 10 -7 10 -15 0 -8 -5 -15 -11 -15 -5 0 -7 -5 -3 -12 5 -8 11
-6 20 6 13 18 31 5 19 -14 -8 -13 1 -13 26 0 14 8 19 7 19 -3 0 -15 191 -67
245 -67 25 -1 27 -2 13 -11 -24 -14 -23 -29 3 -29 15 0 19 -5 15 -15 -4 -12 7
-21 39 -35 41 -18 45 -22 45 -55 0 -20 11 -58 25 -85 22 -44 29 -50 56 -50 17
0 40 -8 53 -17 21 -16 21 -18 4 -35 -16 -16 -16 -19 4 -64 17 -39 19 -53 10
-81 -8 -26 -7 -42 4 -68 16 -38 11 -80 -17 -140 -23 -50 -27 -70 -14 -68 19 3
18 -165 -2 -219 -16 -46 -16 -51 1 -102 13 -37 17 -69 13 -98 -4 -32 -1 -50
14 -74 39 -64 63 -180 63 -309 0 -136 -15 -218 -52 -290 -16 -32 -25 -64 -23
-88 3 -56 -15 -104 -65 -171 -50 -68 -53 -81 -21 -90 20 -6 20 -7 5 -16 -20
-12 -14 -74 8 -101 21 -24 17 -96 -7 -136 -20 -32 -20 -36 -6 -50 21 -21 75
-24 109 -7 36 18 59 18 35 0 -16 -12 -17 -17 -5 -37 7 -13 21 -31 30 -40 17
-15 17 -17 -2 -34 -11 -10 -20 -13 -20 -7 0 23 -16 12 -35 -25 -11 -20 -19
-40 -18 -44 6 -17 4 -66 -2 -99 -4 -19 -9 -51 -11 -70 -5 -33 -4 -34 10 -16
14 17 16 17 16 4 0 -9 -5 -20 -10 -23 -11 -7 -50 -83 -50 -98 0 -4 10 -5 21
-2 19 6 21 4 16 -14 -6 -23 17 -31 26 -8 4 8 6 7 6 -3 1 -8 -8 -21 -19 -28
-20 -12 -28 -52 -10 -52 6 0 10 -22 10 -50 0 -32 4 -50 12 -50 6 0 2 -10 -9
-23 -25 -27 -39 -77 -22 -77 8 0 6 -7 -4 -18 -23 -25 -21 -42 4 -42 18 0 19
-2 9 -15 -7 -9 -14 -31 -16 -50 -2 -31 0 -35 22 -35 13 0 24 -4 24 -10 0 -5
-4 -10 -9 -10 -16 0 -71 -58 -71 -74 0 -23 21 -20 27 4 5 20 23 28 23 10 0 -5
-10 -28 -21 -50 -28 -53 -19 -61 18 -16 37 47 65 49 29 2 -16 -22 -24 -41 -19
-52 5 -13 2 -16 -13 -12 -23 6 -44 -13 -44 -41 0 -17 3 -18 30 -8 33 12 59 -1
45 -23 -6 -9 -9 -9 -15 0 -6 9 -14 8 -34 -5 -34 -23 -34 -45 2 -46 l27 0 -25
-11 -25 -10 28 -12 c31 -14 26 -26 -10 -26 -16 0 -23 -6 -23 -20 0 -24 -2 -24
45 -4 20 8 39 13 41 11 2 -2 -14 -22 -36 -44 -23 -22 -42 -51 -44 -64 -1 -13
-6 -32 -10 -41 -5 -10 -5 -25 -2 -34 4 -9 0 -27 -8 -39 -20 -30 -14 -33 39
-27 25 2 45 2 45 -1 0 -3 -18 -16 -40 -28 -22 -13 -40 -26 -40 -30 0 -12 38
-21 60 -14 30 10 24 -2 -11 -20 -48 -26 -25 -30 30 -6 59 25 68 26 51 7 -6 -8
-45 -25 -86 -37 -83 -24 -97 -35 -60 -45 14 -3 27 -13 29 -22 4 -14 6 -13 12
5 6 18 11 21 26 12 28 -15 24 -22 -31 -58 -49 -32 -67 -57 -32 -44 15 6 15 4
-2 -15 -19 -22 -19 -22 13 -28 40 -8 47 -25 31 -65 -11 -26 -11 -32 1 -40 11
-6 5 -18 -29 -51 -23 -24 -42 -47 -42 -52 0 -5 16 -5 36 -1 36 6 36 6 30 -21
-4 -15 -16 -39 -27 -52 -26 -33 -25 -72 1 -79 16 -4 19 -11 14 -27 -4 -11 -10
-36 -15 -54 -9 -40 -24 -59 -61 -78 -32 -16 -87 -12 -303 27 -64 11 -152 19
-210 19 -55 -1 -169 3 -253 9 -159 10 -168 13 -292 81 -19 11 -47 20 -62 20
-15 0 -29 4 -32 9 -3 4 -19 11 -36 14 -18 4 -30 13 -30 22 0 8 -8 16 -17 17
-10 0 -23 2 -29 2 -19 2 -42 26 -48 51 -5 21 -13 25 -41 25 -25 0 -35 4 -35
16 0 10 -6 14 -14 11 -23 -9 -26 3 -10 34 16 31 38 38 48 14 3 -8 11 -15 18
-15 6 0 22 -10 35 -22 l23 -21 0 26 c0 15 -4 27 -10 27 -18 0 -89 71 -84 85 3
7 1 16 -5 20 -25 15 -8 24 34 18 l45 -6 0 52 c0 48 2 52 20 46 19 -6 20 -3 18
62 -2 53 0 68 11 68 8 0 20 -16 26 -35 11 -32 12 -24 20 90 5 69 9 162 10 207
0 45 4 85 7 89 4 3 14 -8 23 -25 26 -51 44 -38 70 52 17 59 17 173 0 255 -9
42 6 41 29 -3 11 -19 24 -35 29 -35 10 0 3 293 -9 379 -9 63 12 44 27 -25 9
-40 15 -51 21 -40 16 28 21 200 9 303 -7 56 -16 242 -20 413 -5 172 -12 315
-17 319 -14 10 -11 114 4 118 6 3 12 11 12 19 0 9 -4 13 -9 10 -5 -3 -8 12 -7
33 0 28 4 37 14 33 11 -4 13 2 6 29 -9 41 -9 53 5 149 10 64 9 81 -5 118 -9
23 -13 49 -10 57 3 8 1 74 -5 147 -11 153 -13 165 -23 197 -5 14 -3 32 4 46
11 20 8 31 -15 78 -16 34 -24 63 -20 76 3 10 1 22 -5 26 -8 5 -8 11 1 21 8 10
8 14 0 14 -15 0 -14 27 1 32 8 3 9 12 1 34 -12 35 -6 228 8 232 15 6 10 109
-6 150 -9 20 -16 65 -17 100 0 34 -5 65 -9 68 -5 3 -9 23 -9 45 0 21 -4 47 -9
57 -37 69 -68 236 -49 259 6 7 8 13 4 13 -9 0 20 55 55 106 15 23 36 60 45 84
18 45 54 90 72 90 18 0 30 32 27 70 -2 20 0 42 5 50 8 13 12 13 26 -2 15 -15
19 -15 48 3 37 23 40 23 56 4z m-5080 -1075 c0 -5 -4 -10 -10 -10 -5 0 -10 5
-10 10 0 6 5 10 10 10 6 0 10 -4 10 -10z"/>
</g>
</svg>
