<?xml version="1.0" standalone="no"?>
<!DOCTYPE svg PUBLIC "-//W3C//DTD SVG 20010904//EN"
 "http://www.w3.org/TR/2001/REC-SVG-20010904/DTD/svg10.dtd">
<svg version="1.0" xmlns="http://www.w3.org/2000/svg"
 width="1536.000000pt" height="763.000000pt" viewBox="0 0 1536.000000 763.000000"
 preserveAspectRatio="xMidYMid meet">
<metadata>
Created by potrace 1.16, written by Peter Selinger 2001-2019
</metadata>
<g transform="translate(0.000000,763.000000) scale(0.100000,-0.100000)"
fill="#000000" stroke="none">
<path d="M7835 7620 c-1340 -41 -1832 -103 -2286 -290 -65 -27 -152 -58 -194
-69 -41 -12 -124 -45 -183 -75 -116 -58 -228 -104 -417 -171 -243 -86 -640
-262 -1047 -465 -408 -203 -533 -293 -1263 -909 -643 -542 -754 -645 -977
-906 -172 -201 -249 -278 -348 -348 -56 -40 -80 -65 -103 -107 -16 -30 -75
-122 -132 -205 -123 -180 -161 -247 -170 -300 -6 -34 -24 -56 -119 -150 -83
-81 -116 -121 -126 -150 -17 -53 -27 -65 -77 -87 -45 -20 -53 -37 -29 -58 8
-6 20 -27 26 -45 17 -51 -18 -139 -154 -389 -241 -444 -260 -521 -217 -900 54
-475 82 -536 382 -839 134 -135 171 -168 190 -165 16 2 25 12 31 36 11 43 28
48 102 33 94 -19 422 -130 450 -152 28 -22 46 -90 46 -179 0 -70 6 -90 29 -90
9 0 68 12 131 26 74 17 133 24 167 22 54 -5 71 -15 218 -139 122 -102 482
-311 610 -354 81 -27 208 -38 323 -27 111 10 130 18 114 49 -16 28 -136 124
-317 253 -289 206 -301 224 -298 444 3 273 35 556 74 660 27 72 60 100 114 93
31 -4 49 -15 80 -50 22 -24 50 -49 62 -56 37 -19 106 -13 159 14 72 37 131 53
231 60 112 9 191 -5 251 -45 25 -16 57 -30 72 -30 55 0 478 131 1120 347 1295
435 1447 521 2190 1248 387 378 484 464 542 477 24 5 108 40 188 78 163 78
190 86 218 71 26 -14 37 -50 57 -191 17 -121 38 -173 71 -178 10 -1 41 16 69
37 27 22 51 38 54 36 2 -3 -2 -24 -9 -49 -7 -24 -9 -49 -5 -55 10 -17 116 -13
150 5 17 8 84 22 150 30 66 7 136 18 155 24 61 18 89 13 96 -16 11 -43 -13
-185 -50 -301 -49 -150 -48 -158 16 -144 46 11 64 -1 72 -43 4 -20 16 -56 27
-82 34 -75 48 -188 59 -457 13 -321 22 -466 71 -1097 56 -727 64 -776 152
-857 130 -118 482 -254 730 -282 233 -27 1456 -50 1666 -32 133 11 159 21 191
73 30 49 34 123 14 240 -17 103 -17 104 5 178 28 91 121 284 160 331 l29 34
32 -30 c18 -16 78 -86 135 -155 217 -265 464 -533 648 -703 l105 -98 629 11
c1780 29 2056 41 2092 84 17 20 -18 57 -88 95 -142 76 -421 146 -776 196 -293
42 -379 76 -518 205 -187 175 -309 364 -597 925 -68 132 -172 334 -232 448
-166 316 -187 380 -152 450 25 49 102 124 169 164 82 49 111 78 139 138 52
111 204 286 321 370 33 24 119 75 190 115 219 122 270 164 399 333 37 48 91
112 120 142 82 83 428 303 535 340 113 39 293 146 396 235 167 143 271 348
320 628 45 259 70 746 62 1190 -5 309 -9 328 -92 491 -125 244 -239 307 -673
371 -332 49 -401 70 -515 157 -86 65 -103 75 -185 102 -101 33 -192 37 -294
12 -157 -37 -292 -119 -520 -314 -139 -119 -223 -174 -283 -182 -60 -9 -139
13 -280 80 -195 92 -533 232 -979 405 -442 171 -501 188 -776 230 -175 27
-339 46 -600 70 -433 40 -827 81 -1010 107 -171 23 -218 26 -615 28 -236 2
-551 -1 -700 -5z m-2741 -2100 c31 -11 34 -34 7 -52 -22 -16 -46 -64 -61 -124
-13 -55 -42 -90 -80 -97 -23 -5 -30 -12 -30 -29 0 -25 30 -80 63 -116 30 -32
11 -42 -80 -42 -40 0 -73 -1 -73 -3 0 -2 16 -42 35 -90 36 -89 43 -135 24
-154 -19 -19 -1 -47 52 -83 58 -40 78 -68 58 -82 -14 -9 -251 -4 -379 8 l-65
6 61 -63 c82 -86 144 -167 144 -189 0 -10 20 -40 45 -68 48 -53 55 -76 29 -86
-9 -4 -70 -3 -134 0 -112 7 -118 6 -129 -14 -27 -51 3 -125 103 -248 53 -64
90 -130 81 -144 -3 -5 -22 -6 -42 -3 -33 6 -36 4 -31 -15 8 -29 -16 -59 -52
-67 -49 -11 -63 -41 -49 -106 15 -71 43 -133 79 -179 16 -20 27 -40 23 -44
-10 -10 -74 -7 -118 5 -22 6 -109 43 -193 81 -84 39 -156 67 -160 64 -3 -4 -7
-17 -7 -29 0 -23 -26 -34 -83 -36 -44 -1 -36 -11 56 -72 85 -57 162 -126 162
-146 0 -7 -8 -17 -18 -22 -24 -13 -191 -29 -382 -36 -204 -8 -270 -19 -316
-56 -38 -30 -46 -33 -109 -44 l-39 -7 54 -26 c96 -47 78 -71 -75 -98 -133 -23
-295 -82 -588 -213 -207 -93 -403 -166 -513 -191 -185 -43 -340 -107 -442
-182 l-43 -32 -85 44 -85 44 -65 -22 c-83 -28 -100 -21 -109 46 -10 75 8 126
65 181 28 27 51 60 54 77 20 101 136 375 172 404 14 13 61 -7 83 -34 19 -22
29 -20 33 7 2 18 10 23 43 25 22 2 49 11 59 20 29 26 68 120 126 302 85 269
100 289 187 250 57 -25 61 -25 88 4 14 15 39 26 71 31 69 10 80 19 88 66 15
92 103 233 236 374 114 121 165 183 288 347 239 319 610 660 847 779 87 43 84
42 560 104 196 25 280 41 380 69 59 17 143 20 179 6z m5073 -1851 c11 -40 85
-184 129 -250 46 -69 80 -99 113 -99 20 0 40 47 56 130 4 19 14 51 22 70 l15
35 14 -30 c18 -41 18 -245 0 -360 -36 -222 -59 -627 -60 -1065 l-1 -355 28
-50 c15 -27 59 -86 98 -130 39 -44 75 -90 80 -103 24 -62 -4 -312 -44 -392
-18 -36 -33 -50 -77 -72 -73 -36 -151 -45 -492 -59 -297 -13 -415 -6 -446 25
-13 13 -3 54 86 353 55 186 125 424 156 528 l54 190 11 320 c29 831 42 1085
61 1155 7 26 32 55 90 108 45 40 86 72 91 72 6 0 13 -9 16 -21z"/>
</g>
</svg>
