<?xml version="1.0" standalone="no"?>
<!DOCTYPE svg PUBLIC "-//W3C//DTD SVG 20010904//EN"
 "http://www.w3.org/TR/2001/REC-SVG-20010904/DTD/svg10.dtd">
<svg version="1.0" xmlns="http://www.w3.org/2000/svg"
 width="1536.000000pt" height="915.000000pt" viewBox="0 0 1536.000000 915.000000"
 preserveAspectRatio="xMidYMid meet">
<metadata>
Created by potrace 1.16, written by Peter Selinger 2001-2019
</metadata>
<g transform="translate(0.000000,915.000000) scale(0.100000,-0.100000)"
fill="#000000" stroke="none">
<path d="M6846 9110 c-74 -62 -81 -64 -115 -39 -36 26 -62 19 -97 -27 -27 -35
-64 -46 -64 -19 0 32 -31 28 -68 -8 -53 -51 -134 -89 -196 -91 -40 -1 -60 -9
-96 -35 -36 -26 -52 -32 -80 -28 -41 5 -79 -23 -245 -184 l-100 -96 -75 -13
c-45 -8 -120 -11 -190 -8 -99 4 -126 9 -193 37 -88 35 -142 39 -287 19 -100
-13 -200 -1 -280 33 l-47 20 -51 -35 c-52 -35 -72 -39 -217 -51 -38 -3 -110
-13 -160 -22 -76 -14 -94 -21 -115 -45 -18 -20 -40 -31 -75 -37 -34 -6 -57
-18 -73 -36 -16 -19 -29 -25 -44 -22 -14 4 -33 -4 -57 -23 -20 -16 -75 -47
-123 -70 -48 -23 -91 -47 -95 -53 -11 -17 -32 -98 -33 -124 0 -13 -5 -23 -11
-23 -5 0 -19 -20 -30 -45 -17 -38 -24 -45 -41 -39 -13 4 -18 2 -14 -4 15 -25
-16 -111 -57 -158 -38 -43 -41 -45 -49 -25 -11 30 -23 26 -49 -16 -34 -55 -63
-79 -154 -126 -44 -23 -99 -61 -123 -85 -24 -23 -38 -33 -32 -22 13 24 4 25
-46 4 -32 -14 -65 -16 -181 -12 -130 5 -212 -1 -263 -17 -13 -4 -20 -2 -20 7
0 23 -25 49 -40 43 -8 -3 -25 -21 -37 -39 -15 -23 -33 -37 -55 -41 -54 -12
-83 -31 -167 -110 -86 -80 -115 -94 -161 -75 -27 11 -37 8 -127 -40 -352 -189
-404 -210 -567 -230 -138 -18 -428 -8 -579 19 -166 30 -427 91 -457 106 -14 7
-36 25 -50 40 -36 39 -73 55 -126 55 l-46 0 7 -47 c4 -27 20 -79 36 -116 22
-53 28 -78 23 -107 -10 -61 24 -118 123 -208 103 -93 147 -157 208 -305 40
-95 52 -114 78 -127 49 -23 77 -73 77 -136 0 -65 -17 -107 -39 -98 -9 3 -33 8
-53 11 -34 5 -38 3 -38 -15 0 -12 15 -33 35 -49 49 -39 44 -60 -6 -24 -22 17
-75 41 -117 55 -42 15 -113 44 -156 66 -59 30 -91 40 -127 40 -56 0 -73 -15
-28 -24 18 -3 88 -32 158 -64 69 -33 139 -63 155 -68 38 -12 55 -38 40 -61
-18 -30 -56 -43 -124 -43 -36 0 -71 -4 -78 -8 -22 -15 -2 -41 36 -48 83 -13
95 -30 40 -55 -48 -21 -45 -36 11 -60 47 -20 111 -77 111 -99 0 -4 3 -15 6
-24 4 -12 0 -16 -16 -16 -33 0 -100 -22 -100 -32 0 -5 10 -26 22 -47 20 -36
21 -42 9 -94 -18 -72 -11 -139 22 -210 l26 -57 -40 0 c-37 0 -39 -2 -29 -20 6
-11 26 -30 45 -43 41 -26 61 -71 138 -296 51 -150 53 -154 86 -165 48 -16 72
-52 78 -123 4 -44 1 -75 -13 -114 -10 -30 -17 -57 -16 -61 1 -3 -40 -4 -91 -1
-106 6 -196 -6 -306 -43 -139 -47 -351 -167 -351 -199 0 -23 14 -18 87 29 181
117 324 166 501 174 70 2 122 1 122 -4 0 -5 -42 -22 -92 -38 -180 -54 -338
-147 -476 -280 -79 -76 -172 -188 -172 -207 0 -24 33 -4 62 39 44 65 180 198
258 253 107 76 297 163 398 182 l32 7 0 -49 0 -49 -131 -117 c-72 -65 -180
-172 -241 -239 -124 -136 -318 -373 -318 -388 0 -26 36 8 124 117 145 180 315
363 438 472 60 54 116 102 125 107 34 19 3 -53 -61 -141 -186 -256 -317 -543
-362 -793 -22 -127 -22 -328 0 -445 19 -102 29 -126 46 -109 7 7 5 31 -7 80
-25 99 -25 387 0 502 29 131 74 256 142 397 58 121 184 324 251 405 27 32 32
35 72 30 l42 -5 -36 -60 c-100 -165 -190 -373 -234 -540 -40 -153 -52 -248
-48 -405 2 -110 6 -135 18 -138 13 -2 15 21 16 160 1 184 20 297 80 478 63
189 244 539 244 471 0 -4 -25 -82 -55 -172 -96 -289 -143 -513 -166 -788 -19
-225 7 -616 41 -616 18 0 18 12 2 147 -26 211 -11 553 33 788 40 210 165 620
190 620 24 0 36 -26 25 -55 -6 -15 -12 -62 -14 -105 -3 -57 -13 -102 -39 -171
-82 -220 -119 -452 -115 -719 3 -148 5 -175 18 -175 13 0 14 17 12 110 -7 231
32 511 101 715 l42 125 3 -55 c2 -30 -1 -95 -7 -145 -11 -88 -14 -196 -14
-440 1 -130 22 -223 82 -364 35 -83 112 -213 129 -219 23 -7 12 29 -28 98 -56
93 -107 218 -132 320 -22 90 -28 268 -11 323 8 27 15 16 86 -140 88 -191 117
-245 135 -251 22 -7 13 27 -37 125 -27 54 -70 145 -96 203 -54 120 -55 124
-29 353 11 100 13 154 6 200 -10 69 -4 227 9 227 4 0 33 -9 63 -20 66 -25 160
-85 221 -141 l45 -42 63 6 c34 4 83 9 109 13 l47 7 0 -117 c0 -64 -4 -127 -9
-140 -5 -13 -27 -109 -51 -212 -23 -104 -55 -226 -71 -272 -17 -46 -28 -86
-25 -89 28 -27 75 100 131 352 20 88 41 178 48 200 l12 40 8 -50 c18 -105 -3
-253 -66 -472 -41 -138 -41 -143 -22 -143 15 0 38 68 88 260 25 95 30 136 32
240 0 69 0 141 -1 160 -4 66 3 209 10 216 3 4 13 2 20 -4 8 -7 16 -10 18 -8 5
5 13 -407 13 -669 0 -148 -4 -204 -17 -251 -21 -76 -21 -94 -2 -94 9 0 20 20
30 53 30 101 38 188 31 367 -21 588 -21 545 3 569 25 25 37 27 45 5 3 -9 9
-183 12 -387 5 -314 4 -388 -10 -476 -20 -128 -20 -141 -2 -141 18 0 31 57 47
205 11 104 6 638 -7 719 l-5 31 15 -26 c52 -89 92 -326 101 -595 7 -194 10
-214 30 -214 18 0 19 45 5 283 -16 258 -42 387 -116 579 -15 39 -16 49 -5 62
8 9 22 16 33 16 43 0 123 -239 193 -584 l47 -226 -30 -63 c-18 -37 -63 -98
-111 -150 -92 -102 -106 -133 -98 -229 7 -77 16 -60 -132 -243 -89 -110 -99
-128 -117 -218 -11 -52 -25 -84 -49 -115 -28 -36 -36 -59 -50 -140 -43 -258
-57 -306 -110 -382 -14 -20 -29 -59 -35 -89 -13 -68 -43 -136 -83 -186 l-31
-39 -7 -301 c-4 -165 -12 -339 -19 -386 l-11 -85 34 -52 c31 -48 55 -102 120
-282 l24 -65 74 1 c164 1 288 104 425 351 l54 98 0 112 0 111 33 19 c22 14 42
41 65 89 19 38 51 87 71 109 28 29 41 55 50 96 13 63 61 169 97 217 14 18 43
41 65 53 27 13 39 25 35 35 -9 24 5 44 45 65 30 15 39 25 39 44 0 22 5 25 33
25 25 0 55 15 117 60 82 59 82 59 139 54 40 -5 67 -2 95 10 48 20 75 20 82 1
5 -12 16 -7 50 25 33 31 52 40 78 40 19 0 38 -4 41 -10 10 -17 21 -11 34 16 9
21 17 25 36 21 20 -3 37 7 82 50 48 47 60 53 75 44 24 -15 26 -15 42 18 9 16
29 34 46 39 19 7 30 18 30 30 0 25 16 38 70 57 24 8 48 22 55 31 10 15 14 15
43 0 17 -9 33 -16 36 -16 2 0 14 20 26 45 14 29 42 61 79 90 63 47 121 109
121 127 0 6 8 4 18 -5 25 -23 29 -22 62 14 26 29 51 37 90 28 9 -3 23 12 37
39 32 64 43 75 60 60 12 -10 18 -8 32 10 10 14 23 21 32 17 11 -4 20 10 34 57
21 67 18 65 88 51 25 -5 27 -3 27 26 0 44 31 71 80 71 30 0 38 3 34 14 -3 8
10 32 30 54 22 24 36 50 36 66 0 17 5 26 17 26 9 0 40 22 69 50 29 27 62 50
72 50 13 0 22 9 26 26 11 43 50 74 93 74 35 0 39 3 41 27 3 32 29 63 53 63 17
0 17 -2 -2 -44 -10 -25 -24 -91 -31 -149 -11 -101 -10 -105 12 -151 23 -45 23
-48 7 -75 -21 -36 -22 -60 -2 -67 12 -5 9 -10 -11 -27 -32 -25 -54 -74 -54
-122 0 -39 21 -47 56 -20 10 8 25 15 33 15 11 0 11 -4 -2 -18 -21 -23 -21 -47
-2 -102 19 -53 19 -70 1 -70 -25 0 -27 -17 -4 -45 21 -27 18 -36 -16 -48 -5
-2 -12 -27 -16 -57 -5 -30 -11 -63 -15 -73 -6 -15 -4 -17 19 -11 31 7 35 -10
6 -26 -19 -10 -27 -40 -14 -53 3 -3 17 -2 30 3 32 13 32 -7 0 -22 -35 -15 -41
-39 -17 -60 29 -22 26 -35 -9 -53 -34 -18 -40 -44 -11 -52 32 -8 32 -29 1 -75
-32 -47 -41 -104 -15 -94 19 7 19 4 -6 -45 -20 -37 -21 -50 -15 -149 l6 -109
-57 -43 c-88 -65 -192 -126 -224 -132 -16 -4 -43 -9 -61 -12 -38 -8 -123 -84
-149 -136 -11 -21 -26 -74 -35 -119 -8 -44 -19 -92 -25 -106 -7 -18 -6 -30 1
-37 5 -5 10 -18 10 -28 0 -11 14 -25 35 -35 30 -14 43 -15 98 -5 96 18 129 15
199 -18 75 -36 86 -36 174 -8 61 19 87 22 233 19 l164 -2 58 31 c77 41 166 59
324 66 72 3 140 7 152 10 13 2 41 28 63 58 43 57 73 76 121 76 l31 0 -4 87 -3
88 53 5 c58 6 80 25 58 50 -34 40 -47 143 -23 190 10 19 21 25 47 25 38 0 41
10 27 67 -6 22 -1 33 26 61 19 18 49 61 67 95 18 34 36 62 39 62 3 0 17 9 31
19 23 19 24 20 7 39 -17 19 -17 19 19 25 20 3 44 13 53 21 15 14 25 13 91 -11
66 -22 86 -25 165 -20 69 4 97 1 120 -11 65 -33 134 -43 360 -52 141 -5 263
-15 315 -25 125 -25 250 -17 361 24 110 41 207 101 390 243 80 63 213 159 295
215 82 56 159 112 171 125 11 13 53 84 93 158 39 74 91 160 115 191 79 103 71
173 -34 314 -144 192 -211 306 -211 359 0 19 -11 46 -26 67 -34 45 -28 90 27
213 52 117 58 166 30 240 -29 79 -28 136 5 175 39 47 102 61 276 61 l148 0 42
30 c49 36 116 57 206 66 61 7 70 11 142 70 152 124 216 155 347 174 42 6 92
19 111 30 18 11 35 20 37 20 3 0 13 -17 24 -37 11 -21 65 -94 120 -163 56 -69
118 -157 138 -196 l37 -71 42 5 c40 4 43 2 78 -43 20 -26 36 -56 36 -66 0 -11
11 -20 32 -24 17 -4 81 -32 142 -61 71 -35 135 -58 176 -65 58 -10 71 -17 115
-60 58 -56 121 -86 207 -100 51 -8 69 -17 106 -50 73 -68 196 -113 339 -126
68 -5 75 -8 98 -39 43 -56 85 -91 200 -168 61 -41 130 -93 154 -115 43 -39 47
-41 110 -41 45 0 74 -5 90 -16 21 -15 23 -22 19 -83 -3 -44 -17 -99 -41 -163
l-37 -97 0 -193 c0 -106 -5 -209 -10 -229 -9 -34 -14 -37 -75 -54 -65 -17
-160 -68 -203 -108 -42 -39 -91 -123 -118 -203 -23 -68 -27 -97 -28 -204 l-1
-125 45 -22 c110 -53 262 -73 566 -73 116 0 260 -5 320 -11 l109 -11 52 55
c60 65 91 138 105 247 11 81 10 78 51 136 45 63 130 192 155 235 23 39 24 46
28 362 10 709 29 910 101 1095 14 34 28 62 32 62 3 -1 15 -15 26 -33 31 -49
102 -80 187 -80 64 0 70 -2 79 -24 5 -13 23 -42 41 -64 24 -30 38 -39 62 -39
17 0 68 -9 114 -20 104 -25 139 -25 193 0 60 27 168 27 229 -1 38 -17 46 -18
55 -6 5 8 29 24 52 35 23 12 44 26 48 32 4 7 14 5 28 -5 12 -8 30 -15 41 -15
11 0 34 -5 51 -11 27 -10 37 -8 80 15 50 26 117 34 144 17 9 -6 38 1 84 21 55
23 81 29 114 25 34 -3 43 -1 43 10 0 12 8 14 34 9 28 -5 37 -3 45 12 5 10 45
46 89 80 43 33 87 73 96 87 12 18 23 24 34 20 9 -4 23 -9 30 -12 15 -6 16 65
2 119 -9 32 -7 41 16 75 26 38 26 40 19 160 -4 81 -3 128 4 142 10 18 6 22
-39 42 -55 24 -70 42 -70 87 0 29 -1 29 -45 26 -25 -2 -64 -6 -88 -8 l-42 -3
-33 66 c-18 36 -32 71 -32 76 0 6 -32 18 -70 27 -84 20 -138 51 -146 84 -5 21
-12 24 -50 24 l-44 0 0 40 c0 36 -4 43 -41 68 -22 15 -56 40 -75 56 -34 28
-36 28 -91 17 -31 -6 -62 -11 -69 -11 -7 0 -26 25 -43 55 -20 35 -38 55 -49
55 -34 0 -126 113 -143 175 -6 20 -36 60 -78 102 -37 37 -78 87 -90 111 -19
37 -26 42 -55 42 -18 0 -59 12 -90 26 -31 14 -64 23 -74 20 -13 -4 -25 4 -42
26 -29 40 -52 58 -149 123 -48 32 -91 71 -119 107 -28 37 -55 61 -77 69 -32
12 -35 17 -35 51 0 35 -2 38 -27 38 -49 0 -97 19 -176 69 -43 27 -91 54 -107
61 -17 7 -30 20 -30 29 0 10 -15 35 -34 57 -18 21 -41 54 -50 72 -10 20 -24
32 -36 32 -27 0 -116 95 -124 131 -4 21 -17 34 -48 50 -50 25 -57 34 -51 60 4
15 0 19 -20 19 -30 0 -50 21 -41 44 5 13 -1 16 -29 16 -50 0 -86 33 -95 89 -7
40 -11 45 -46 58 -46 15 -79 42 -72 57 18 45 18 46 -2 46 -29 0 -48 23 -55 67
-6 34 -12 40 -51 56 -65 27 -125 84 -196 188 -35 50 -103 139 -152 198 -93
111 -122 159 -141 237 -13 51 -29 65 -249 206 -90 58 -130 99 -152 160 -26 70
-83 153 -176 253 -99 107 -158 186 -183 241 -18 40 -20 42 -76 47 -104 9 -208
84 -257 183 -26 54 -26 54 -74 54 -40 0 -48 4 -58 25 -6 13 -38 46 -72 71 -55
43 -65 58 -61 90 1 7 -11 14 -26 17 -16 4 -42 9 -60 13 -22 4 -33 13 -37 30
-4 14 -22 32 -46 44 -22 11 -40 26 -40 34 0 7 -11 18 -24 24 -18 8 -26 20 -28
44 -3 30 -8 34 -52 49 -32 10 -53 23 -59 37 -9 19 -16 21 -43 16 -20 -4 -100
6 -195 22 -157 28 -162 30 -171 57 -6 15 -11 27 -11 28 -1 0 -70 4 -153 8
-130 7 -156 11 -186 29 -27 17 -51 22 -101 22 -57 0 -68 3 -81 22 -12 17 -18
20 -28 10 -18 -18 -46 -14 -58 8 -7 14 -21 20 -44 20 -18 0 -59 9 -90 20 -32
11 -96 25 -142 31 -81 12 -85 11 -107 -9 -29 -27 -42 -27 -75 -1 l-27 20 -9
-20 c-10 -23 -18 -25 -151 -21 -76 2 -94 5 -113 23 l-22 21 -53 -22 c-65 -27
-73 -27 -80 -1 -5 18 -10 20 -34 13 -15 -5 -100 -9 -188 -9 -142 0 -162 2
-175 18 -14 17 -19 17 -75 3 -32 -9 -93 -16 -135 -16 -91 0 -193 -16 -231 -36
-28 -14 -29 -14 -29 11 0 29 0 29 -37 14 -21 -8 -50 -8 -111 2 -73 11 -87 10
-117 -4 -34 -16 -34 -16 -47 11 -19 39 -37 37 -92 -8z m-4713 -5195 c14 -9 42
-48 63 -88 21 -40 61 -108 90 -152 108 -166 113 -199 49 -290 -98 -139 -90
-119 -90 -228 0 -130 -16 -138 -39 -20 -62 318 -119 530 -176 659 l-30 65 23
40 c20 36 25 40 54 35 17 -2 43 -12 56 -21z m5016 -826 c14 -43 37 -87 64
-119 23 -28 61 -75 85 -103 26 -32 49 -74 59 -107 8 -30 37 -97 64 -148 46
-87 49 -98 49 -167 l0 -75 -56 -44 c-79 -61 -175 -114 -382 -211 l-180 -83
-80 23 c-44 13 -105 26 -136 30 -54 7 -68 16 -45 31 11 6 8 65 -7 127 -5 20
-3 27 9 27 20 0 26 17 19 58 -4 28 -1 34 17 39 26 7 28 38 4 52 -23 13 -8 28
32 33 38 4 41 32 3 36 -34 4 -42 26 -23 62 20 40 19 55 -7 74 -23 16 -23 16 9
11 28 -6 34 -3 47 23 17 32 38 45 61 36 27 -11 16 27 -20 67 -51 56 -47 69 20
69 30 0 55 4 55 9 0 5 -12 19 -27 30 -16 11 -23 21 -16 21 6 0 33 18 58 40 30
26 56 40 74 40 15 0 31 3 34 7 13 13 -16 33 -49 33 -31 0 -34 3 -34 30 0 18
-6 33 -15 36 -41 16 9 41 113 55 84 12 126 29 136 56 7 16 9 16 25 -6 10 -13
28 -54 40 -92z"/>
</g>
</svg>
