<?xml version="1.0" standalone="no"?>
<!DOCTYPE svg PUBLIC "-//W3C//DTD SVG 20010904//EN"
 "http://www.w3.org/TR/2001/REC-SVG-20010904/DTD/svg10.dtd">
<svg version="1.0" xmlns="http://www.w3.org/2000/svg"
 width="1536.000000pt" height="1341.000000pt" viewBox="0 0 1536.000000 1341.000000"
 preserveAspectRatio="xMidYMid meet">
<metadata>
Created by potrace 1.16, written by Peter Selinger 2001-2019
</metadata>
<g transform="translate(0.000000,1341.000000) scale(0.100000,-0.100000)"
fill="#000000" stroke="none">
<path d="M9440 13386 l-245 -23 -490 -131 c-400 -107 -527 -136 -691 -162
l-200 -31 -210 34 -209 34 -180 -13 c-164 -11 -194 -17 -335 -58 -85 -24 -320
-88 -521 -140 -349 -91 -373 -96 -525 -106 -152 -11 -172 -10 -454 20 -162 18
-344 33 -405 33 l-110 1 -114 -48 c-63 -27 -188 -87 -278 -133 -90 -45 -168
-83 -174 -83 -5 0 -65 55 -133 123 -77 77 -159 147 -222 189 -98 67 -100 68
-217 88 -138 23 -133 25 -250 -70 l-75 -60 -216 -396 c-119 -217 -248 -443
-288 -502 -70 -103 -75 -108 -128 -126 -43 -15 -101 -20 -270 -27 -319 -11
-374 -23 -498 -108 l-60 -41 -99 92 c-54 51 -147 140 -208 198 -140 135 -454
408 -661 578 -134 109 -167 141 -194 189 -59 106 -87 133 -180 176 -47 22
-106 42 -131 45 -63 6 -148 -20 -244 -75 -180 -102 -192 -132 -215 -503 l-12
-185 62 -365 62 -365 158 -500 c124 -389 173 -532 225 -645 37 -80 70 -161 72
-181 6 -44 -24 -141 -145 -459 -71 -187 -91 -253 -119 -393 -18 -93 -33 -199
-33 -235 0 -89 33 -243 65 -306 27 -55 32 -59 280 -246 186 -141 201 -154 282
-263 75 -100 107 -184 123 -325 15 -134 12 -206 -11 -270 -100 -280 -118 -372
-119 -610 0 -204 2 -214 71 -313 38 -53 55 -66 162 -126 66 -36 173 -106 237
-155 102 -76 126 -90 186 -104 74 -17 207 -14 352 9 l73 12 162 135 c166 138
241 209 337 318 l55 62 60 -14 c33 -8 179 -61 325 -116 230 -89 283 -105 400
-125 74 -13 187 -38 250 -56 99 -29 128 -33 210 -31 52 1 119 -1 149 -4 l54
-6 200 -191 c110 -106 248 -239 307 -297 l108 -105 27 -145 27 -146 -60 -244
c-57 -237 -62 -251 -148 -435 -77 -161 -111 -220 -229 -390 -213 -306 -500
-686 -706 -936 -231 -279 -707 -919 -933 -1254 -207 -307 -234 -344 -308 -423
-67 -72 -87 -109 -118 -211 -19 -61 -20 -75 -9 -82 36 -22 38 -25 31 -51 -4
-16 -61 -74 -147 -150 -192 -171 -335 -321 -395 -415 -46 -71 -50 -83 -50
-138 -1 -69 -12 -127 -69 -350 -23 -88 -41 -175 -41 -193 0 -50 24 -97 57
-111 20 -8 33 -24 43 -54 20 -55 44 -67 267 -123 149 -38 188 -44 239 -39 153
14 247 64 279 149 15 38 21 45 50 48 18 2 45 0 60 -4 17 -4 40 -2 59 6 36 15
209 170 264 238 33 40 177 271 631 1018 67 111 95 145 248 300 162 165 225
237 251 286 6 12 16 67 21 123 l9 101 65 90 c60 85 74 98 235 213 195 139 290
215 297 237 6 19 164 161 395 355 91 77 244 214 340 306 167 159 438 395 445
387 1 -1 77 -228 169 -503 l165 -500 24 -220 24 -220 -18 -585 c-19 -641 -25
-752 -45 -792 -21 -40 -87 -88 -206 -147 -131 -64 -176 -103 -252 -216 -57
-84 -60 -90 -59 -149 1 -75 25 -166 51 -189 18 -16 24 -16 110 4 l90 20 69
-29 c101 -44 152 -47 338 -18 154 23 215 24 215 4 0 -19 69 -36 185 -43 240
-16 228 -18 330 50 l89 60 74 150 75 150 12 175 c45 613 51 862 23 973 -9 38
-31 185 -49 326 l-32 258 52 62 c69 84 69 98 -18 286 -77 167 -167 440 -181
553 -17 130 -49 734 -66 1227 -21 619 -8 1211 27 1288 7 16 50 58 96 93 83 65
85 66 201 90 135 27 396 50 695 59 l208 7 65 -43 c72 -46 272 -267 349 -384
66 -102 188 -201 339 -276 138 -69 133 -63 294 -384 157 -311 198 -420 267
-695 71 -288 85 -374 85 -539 l0 -116 -130 -389 c-100 -300 -159 -457 -257
-685 l-127 -296 -92 -101 c-51 -55 -98 -114 -106 -130 -9 -16 -30 -83 -48
-149 -23 -85 -48 -148 -86 -216 -66 -119 -71 -133 -84 -218 -13 -83 10 -262
42 -325 28 -55 115 -184 146 -219 27 -29 136 -69 223 -82 55 -8 143 8 214 40
28 12 74 27 102 34 28 7 58 20 66 29 9 9 22 52 30 95 8 43 16 79 18 81 2 2 41
22 85 45 l81 42 66 108 c64 104 68 116 148 392 l82 284 205 410 c197 394 209
421 304 695 103 296 299 957 317 1070 6 36 11 115 11 177 0 162 -25 227 -157
401 -96 126 -108 148 -248 450 -82 174 -201 429 -267 565 l-118 248 0 306 c0
168 5 383 11 477 l11 171 43 61 c70 98 225 233 338 293 l97 53 58 -50 c136
-119 154 -144 288 -402 70 -135 172 -328 227 -430 55 -102 165 -313 245 -469
162 -317 133 -277 493 -692 374 -434 426 -501 485 -627 l54 -113 31 -242 c17
-133 43 -415 59 -627 l28 -385 -49 -330 c-55 -373 -83 -537 -104 -610 -8 -27
-31 -135 -50 -239 -22 -117 -46 -211 -62 -245 -25 -56 -175 -426 -198 -491 -7
-20 -31 -64 -54 -100 -49 -75 -64 -123 -87 -271 -17 -108 -17 -111 3 -137 11
-15 44 -37 72 -48 44 -18 56 -29 71 -62 38 -85 140 -121 358 -129 208 -8 400
12 553 57 l66 20 33 73 c24 53 39 111 57 222 13 83 51 251 84 375 l59 225 75
655 c85 752 175 1581 175 1625 0 17 -1 151 -3 298 -2 210 0 267 9 263 7 -3 30
-10 52 -15 21 -6 101 -49 178 -97 117 -72 389 -224 402 -224 2 0 -15 34 -38
75 -38 69 -43 95 -19 95 5 0 46 -27 91 -61 77 -57 85 -61 123 -55 22 4 97 9
167 13 107 5 135 3 172 -11 63 -24 96 -18 121 22 16 26 25 31 45 27 14 -4 118
-9 232 -12 228 -6 250 -2 264 52 6 23 11 25 65 25 l58 0 13 43 c21 69 16 259
-9 342 -12 39 -35 131 -52 206 -48 212 -83 285 -233 484 -71 94 -155 204 -188
245 -32 41 -58 75 -56 77 1 1 41 -8 89 -21 48 -13 87 -23 87 -22 0 2 -59 77
-131 167 -131 164 -176 240 -243 401 -55 133 -137 431 -122 445 2 2 27 -5 57
-16 29 -11 55 -19 57 -16 7 6 -169 291 -280 456 l-99 146 -35 164 c-18 90 -49
211 -69 269 -45 136 -105 415 -105 488 0 31 11 150 26 265 23 193 25 230 21
550 l-3 342 -142 785 c-78 432 -154 847 -168 923 l-26 137 -110 193 c-140 244
-271 506 -349 694 -93 224 -116 265 -243 433 -65 85 -156 208 -202 272 -116
160 -331 365 -503 478 l-124 82 -236 18 -236 19 -460 -25 c-455 -26 -462 -26
-670 -9 -115 9 -316 30 -445 46 -320 40 -408 42 -700 15z"/>
</g>
</svg>
