<?xml version="1.0" standalone="no"?>
<!DOCTYPE svg PUBLIC "-//W3C//DTD SVG 20010904//EN"
 "http://www.w3.org/TR/2001/REC-SVG-20010904/DTD/svg10.dtd">
<svg version="1.0" xmlns="http://www.w3.org/2000/svg"
 width="1021.000000pt" height="1536.000000pt" viewBox="0 0 1021.000000 1536.000000"
 preserveAspectRatio="xMidYMid meet">
<metadata>
Created by potrace 1.16, written by Peter Selinger 2001-2019
</metadata>
<g transform="translate(0.000000,1536.000000) scale(0.100000,-0.100000)"
fill="#000000" stroke="none">
<path d="M9360 15344 c-80 -21 -178 -70 -325 -163 -150 -95 -216 -128 -341
-172 -134 -47 -243 -107 -492 -272 -125 -82 -261 -166 -303 -188 -42 -21 -99
-57 -125 -80 -112 -97 -234 -128 -506 -129 l-178 0 -39 -36 c-54 -48 -75 -113
-68 -208 6 -100 44 -190 122 -292 6 -8 5 -40 -2 -90 -14 -98 -64 -199 -179
-359 -163 -227 -192 -294 -289 -666 -30 -113 -68 -243 -84 -288 -58 -160 -102
-528 -103 -861 0 -245 9 -363 48 -600 48 -296 42 -408 -30 -549 -19 -36 -46
-96 -61 -134 -47 -115 -116 -199 -374 -456 -293 -290 -456 -417 -996 -778
-382 -254 -478 -312 -570 -338 -206 -60 -386 -157 -667 -357 -113 -82 -141
-108 -274 -262 -82 -94 -216 -238 -299 -321 -83 -82 -161 -167 -174 -189 -14
-21 -92 -109 -174 -194 -160 -167 -225 -254 -257 -344 -11 -32 -47 -99 -81
-150 -115 -176 -198 -367 -247 -572 -17 -72 -38 -130 -59 -167 -82 -137 -141
-322 -172 -536 -23 -153 -29 -250 -41 -655 -14 -473 2 -600 160 -1239 54 -217
108 -453 120 -524 14 -82 34 -159 55 -210 53 -129 70 -221 68 -370 -1 -179
-43 -328 -134 -485 -33 -58 -43 -68 -91 -88 -237 -98 -468 -144 -938 -187
-171 -16 -304 -40 -505 -92 -192 -50 -316 -117 -397 -215 -24 -29 -58 -66 -77
-83 -156 -138 -212 -217 -253 -360 -21 -72 -23 -98 -21 -267 1 -148 5 -199 19
-240 66 -202 626 -500 1055 -564 181 -26 346 -6 472 57 33 17 36 23 31 47 -23
93 -96 177 -254 289 -52 37 -115 88 -139 113 -40 41 -91 128 -91 157 0 6 -10
20 -23 30 -93 75 -107 177 -35 259 57 65 70 68 303 70 116 1 315 9 442 19 365
27 621 17 1168 -45 412 -46 562 -54 739 -38 92 8 289 13 501 13 372 0 466 -9
625 -57 76 -23 215 -94 271 -139 88 -70 293 -107 494 -89 107 9 348 49 425 70
153 42 222 186 153 320 -31 62 -93 114 -151 129 -125 31 -181 42 -283 57 -170
23 -237 59 -274 147 -14 34 -14 40 0 67 47 92 235 152 455 148 128 -3 665 20
744 32 217 32 375 113 476 245 41 53 45 63 48 124 4 81 -14 121 -75 167 -78
59 -224 69 -343 25 -79 -29 -235 -51 -370 -51 -161 0 -279 26 -399 87 -80 41
-98 54 -115 88 -31 59 -26 142 18 315 62 239 61 401 -5 1060 l-31 315 -64 130
c-85 175 -99 220 -99 330 0 84 3 95 38 167 20 42 37 82 37 88 0 23 45 117 88
185 56 87 170 202 329 328 118 95 123 100 187 210 78 134 165 317 195 407 20
61 27 71 99 130 42 35 111 93 153 127 88 73 151 147 186 218 14 28 56 82 93
120 79 81 154 191 225 328 47 91 52 98 90 108 146 40 340 -90 390 -261 15 -52
228 -574 275 -676 27 -58 76 -149 107 -202 32 -53 67 -121 79 -150 43 -103
144 -199 242 -228 89 -26 153 1 193 82 21 44 21 54 16 237 -8 261 -40 454
-128 762 -45 155 -60 185 -164 330 -40 55 -85 125 -101 155 l-29 55 -3 225
c-4 260 5 305 67 347 66 44 128 30 471 -109 102 -42 203 -81 225 -88 84 -26
293 -113 355 -147 36 -20 94 -66 130 -102 36 -37 81 -73 100 -81 19 -7 78 -35
131 -61 53 -26 124 -57 157 -68 147 -50 267 -6 279 101 10 85 -40 164 -171
275 -50 42 -118 102 -151 133 -33 31 -139 112 -235 180 -101 72 -211 160 -260
208 -46 45 -102 91 -125 101 -59 26 -156 103 -207 163 -25 29 -91 116 -148
193 -57 77 -136 174 -176 215 -127 132 -250 342 -295 505 -28 101 -30 234 -5
320 10 33 25 84 32 113 8 30 34 101 59 158 104 245 107 310 30 681 -47 230
-50 396 -8 492 9 20 21 98 29 181 7 82 35 254 64 397 56 283 72 438 56 578 -5
50 -10 185 -10 300 -1 189 1 219 22 300 30 117 98 254 161 330 27 33 70 98 95
145 25 47 88 146 141 220 105 149 165 257 189 339 9 30 43 100 76 155 84 143
139 266 204 456 100 294 122 449 112 775 -9 278 -15 322 -49 351 -50 43 -188
62 -277 38z"/>
</g>
</svg>
