<?xml version="1.0" standalone="no"?>
<!DOCTYPE svg PUBLIC "-//W3C//DTD SVG 20010904//EN"
 "http://www.w3.org/TR/2001/REC-SVG-20010904/DTD/svg10.dtd">
<svg version="1.0" xmlns="http://www.w3.org/2000/svg"
 width="741.000000pt" height="790.000000pt" viewBox="0 0 741.000000 790.000000"
 preserveAspectRatio="xMidYMid meet">
<metadata>
Created by potrace 1.16, written by Peter Selinger 2001-2019
</metadata>
<g transform="translate(0.000000,790.000000) scale(0.100000,-0.100000)"
fill="#000000" stroke="none">
<path d="M5630 7886 c-14 -7 -45 -23 -70 -36 -25 -13 -74 -47 -110 -75 -36
-28 -99 -77 -141 -108 -41 -31 -159 -135 -261 -230 -103 -94 -207 -189 -231
-209 -32 -27 -50 -52 -61 -85 -15 -43 -29 -57 -121 -128 -86 -64 -129 -108
-233 -233 -70 -84 -134 -165 -142 -180 -8 -15 -17 -62 -20 -106 l-5 -78 -80
-46 c-44 -24 -118 -75 -165 -112 -130 -102 -169 -126 -303 -184 -68 -30 -150
-71 -181 -91 -35 -22 -139 -65 -269 -110 -116 -40 -248 -91 -292 -112 l-80
-38 -145 0 -145 1 -83 37 c-122 56 -197 67 -459 67 -234 0 -597 -14 -766 -30
-87 -8 -109 -14 -185 -53 -48 -24 -152 -76 -231 -116 -117 -59 -161 -88 -235
-153 -128 -112 -149 -138 -213 -258 -31 -58 -89 -166 -129 -240 -88 -163 -137
-286 -158 -400 -21 -110 -91 -639 -106 -800 -11 -114 -9 -159 19 -510 41 -492
47 -560 65 -645 8 -38 19 -128 24 -199 10 -124 12 -133 55 -220 l45 -91 -26
-245 c-31 -298 -33 -557 -8 -900 24 -341 57 -550 101 -647 28 -61 60 -85 195
-144 97 -42 389 -115 555 -138 44 -7 125 -19 180 -28 134 -22 503 -12 549 15
38 22 68 63 69 96 2 22 7 26 32 26 17 0 35 4 42 8 19 12 33 60 33 115 0 47 -6
61 -64 148 -35 52 -98 129 -139 171 -73 74 -75 77 -87 146 -8 52 -9 80 -1 104
12 38 67 419 107 743 28 232 27 282 -8 480 -10 60 -10 61 125 535 74 262 147
505 161 540 15 36 30 84 33 108 3 23 10 42 15 42 6 0 107 -32 227 -70 208 -68
226 -72 466 -105 469 -64 677 -76 930 -55 168 14 210 25 258 64 23 18 78 57
122 86 44 29 150 117 235 195 85 78 209 181 275 230 254 188 405 295 414 295
10 0 27 -73 61 -273 32 -182 25 -221 -62 -350 -22 -32 -62 -108 -89 -170 -28
-62 -68 -142 -91 -180 -99 -165 -97 -195 57 -875 154 -685 143 -645 238 -842
104 -216 134 -291 154 -385 l16 -74 -36 -53 c-52 -75 -50 -108 9 -162 43 -40
46 -45 49 -104 2 -35 7 -67 10 -72 7 -11 143 -64 223 -86 57 -16 68 -16 174 0
233 35 350 44 385 29 53 -21 92 -17 122 15 87 94 115 186 88 295 -9 34 -21 98
-27 143 l-12 81 96 318 c53 175 101 348 106 384 5 36 26 173 46 305 l37 238
-22 167 c-14 113 -27 320 -41 651 -10 267 -22 537 -25 601 -4 85 -2 135 10
191 8 42 27 157 41 255 l25 178 -7 580 -7 579 29 -18 c16 -10 44 -30 62 -44
27 -19 46 -24 90 -24 32 0 98 -5 148 -10 88 -10 92 -9 165 20 41 16 100 37
131 46 89 26 148 103 148 194 0 14 23 75 52 136 l51 111 -12 75 c-15 87 -71
241 -105 285 -51 66 -134 142 -187 172 -53 30 -56 34 -63 79 -3 26 -6 86 -6
135 l0 88 35 26 c37 29 52 74 41 122 -4 16 -37 57 -76 94 -51 48 -75 80 -90
120 -40 102 -127 243 -182 295 -87 82 -193 147 -286 175 -28 8 -48 21 -57 38
-15 30 -130 143 -190 188 -62 46 -416 258 -454 271 -45 16 -120 15 -151 -2z"/>
</g>
</svg>
