<?xml version="1.0" standalone="no"?>
<!DOCTYPE svg PUBLIC "-//W3C//DTD SVG 20010904//EN"
 "http://www.w3.org/TR/2001/REC-SVG-20010904/DTD/svg10.dtd">
<svg version="1.0" xmlns="http://www.w3.org/2000/svg"
 width="1454.000000pt" height="1536.000000pt" viewBox="0 0 1454.000000 1536.000000"
 preserveAspectRatio="xMidYMid meet">
<metadata>
Created by potrace 1.16, written by Peter Selinger 2001-2019
</metadata>
<g transform="translate(0.000000,1536.000000) scale(0.100000,-0.100000)"
fill="#000000" stroke="none">
<path d="M6285 15340 c-437 -19 -775 -60 -1075 -129 -189 -43 -249 -54 -410
-71 -161 -18 -305 -59 -566 -163 -131 -52 -324 -125 -429 -162 -275 -97 -343
-132 -429 -224 -149 -158 -245 -248 -312 -289 -38 -24 -130 -82 -204 -129 -74
-48 -182 -111 -240 -141 -142 -74 -178 -106 -255 -221 -79 -118 -133 -233
-173 -366 -117 -383 -149 -484 -189 -595 -49 -136 -74 -176 -129 -211 l-36
-22 -77 18 c-188 44 -396 128 -731 294 -210 104 -233 113 -345 135 -149 30
-158 34 -264 103 -125 81 -175 103 -244 103 -32 0 -71 -7 -87 -15 -57 -29 -64
-57 -71 -305 -9 -293 -11 -1627 -2 -1805 6 -135 7 -139 36 -172 63 -71 354
-221 612 -313 205 -74 362 -142 416 -181 47 -33 87 -95 99 -154 13 -63 5 -140
-42 -380 -29 -149 -31 -179 -36 -432 -5 -335 6 -470 52 -630 50 -175 50 -173
14 -308 l-31 -120 1 -245 c1 -181 -2 -262 -13 -310 -45 -204 -105 -659 -105
-797 0 -40 9 -121 21 -180 29 -146 22 -229 -30 -401 -73 -239 -181 -768 -188
-917 -5 -106 -3 -116 38 -270 l44 -160 -5 -490 c-8 -804 -6 -1023 9 -1090 7
-33 39 -116 71 -185 82 -179 84 -188 145 -520 47 -253 92 -438 153 -632 28
-86 69 -235 91 -331 22 -96 50 -200 61 -230 28 -75 89 -128 229 -202 63 -33
136 -80 163 -104 29 -26 95 -113 163 -215 154 -232 283 -405 330 -441 119 -90
539 -379 591 -406 55 -27 78 -32 212 -44 182 -17 173 -15 347 -81 171 -64 404
-137 505 -158 79 -16 479 -32 770 -30 265 2 507 52 615 129 28 19 84 76 125
127 95 117 138 141 295 164 156 22 237 53 422 157 89 51 214 121 279 157 206
114 309 235 421 498 96 222 149 459 178 787 19 218 19 297 -2 387 -10 48 -16
113 -15 191 1 64 -3 130 -9 145 -6 15 -34 59 -63 97 -73 96 -83 119 -101 230
-26 160 -57 204 -224 309 -40 26 -126 98 -190 160 -79 77 -129 117 -156 127
-42 14 -148 17 -325 9 -127 -6 -132 -3 -222 105 -48 59 -74 82 -122 105 -160
78 -496 114 -653 70 -109 -30 -252 -95 -289 -131 -41 -40 -108 -174 -131 -262
-16 -62 -16 -68 4 -163 l21 -98 -33 -135 c-19 -75 -50 -182 -69 -238 -20 -56
-36 -116 -36 -133 0 -75 83 -173 197 -232 85 -44 133 -60 303 -98 164 -37 224
-65 288 -135 132 -144 113 -232 -100 -460 -50 -54 -88 -83 -146 -113 -94 -49
-247 -102 -293 -102 -88 0 -548 163 -663 234 -121 76 -264 203 -344 306 -40
52 -126 162 -190 243 -183 231 -190 247 -236 504 -9 51 -41 170 -70 265 -71
227 -86 301 -141 688 -26 179 -53 357 -62 395 -13 59 -15 151 -13 586 1 449
-1 528 -15 608 -26 138 -17 224 39 411 26 85 62 232 81 325 19 94 46 220 61
280 36 144 35 224 -5 439 -34 185 -38 259 -17 311 29 68 94 79 288 46 133 -23
326 -38 603 -46 l200 -7 115 -43 c281 -106 483 -154 810 -190 258 -30 319 -29
532 5 155 25 245 45 328 72 92 30 508 229 592 283 95 62 260 224 319 313 57
86 76 135 129 329 58 209 101 278 188 303 89 24 157 10 537 -113 389 -127 444
-144 782 -241 180 -52 420 -129 533 -171 324 -122 433 -142 622 -115 80 12
683 189 759 223 30 14 69 41 88 61 30 31 35 44 39 95 8 105 -50 330 -110 431
-46 76 -136 141 -347 249 -205 104 -330 159 -530 230 -80 28 -167 63 -194 76
-95 48 -277 184 -277 207 0 8 41 9 133 4 72 -4 276 -11 452 -16 l320 -9 145
-36 145 -37 140 12 c77 6 250 22 385 36 287 28 435 30 672 8 256 -23 406 -16
584 29 78 20 191 52 251 71 127 41 147 56 404 293 l167 153 97 189 c63 122
120 218 159 268 96 121 221 220 376 300 l75 38 210 5 210 5 70 38 c82 43 223
154 284 223 24 27 58 78 75 114 28 60 31 73 31 175 0 104 -2 113 -32 171 -55
106 -187 211 -327 261 -23 8 -90 25 -151 38 -60 13 -122 28 -137 34 -41 15
-106 79 -135 130 -65 116 -96 151 -177 205 -101 67 -114 81 -171 186 -78 142
-246 399 -298 456 -27 30 -83 75 -125 101 -172 105 -272 175 -367 257 -55 47
-160 127 -233 177 -166 113 -238 170 -432 343 -85 76 -169 150 -187 163 -18
14 -102 53 -186 87 -85 34 -174 74 -198 88 -57 34 -207 146 -287 215 -79 70
-117 148 -162 333 -47 194 -66 247 -116 322 -52 78 -95 118 -167 155 -44 23
-65 27 -132 27 -145 0 -226 -60 -320 -235 -98 -184 -178 -236 -354 -227 -88 5
-106 10 -220 58 -68 28 -214 83 -325 120 -110 37 -248 87 -306 110 -58 23
-312 111 -565 195 -253 84 -566 189 -695 233 -164 57 -286 92 -405 116 -93 19
-228 49 -300 67 -119 28 -146 31 -330 34 -110 2 -290 -1 -400 -5z"/>
</g>
</svg>
