<?xml version="1.0" standalone="no"?>
<!DOCTYPE svg PUBLIC "-//W3C//DTD SVG 20010904//EN"
 "http://www.w3.org/TR/2001/REC-SVG-20010904/DTD/svg10.dtd">
<svg version="1.0" xmlns="http://www.w3.org/2000/svg"
 width="762.000000pt" height="1536.000000pt" viewBox="0 0 762.000000 1536.000000"
 preserveAspectRatio="xMidYMid meet">
<metadata>
Created by potrace 1.16, written by Peter Selinger 2001-2019
</metadata>
<g transform="translate(0.000000,1536.000000) scale(0.100000,-0.100000)"
fill="#000000" stroke="none">
<path d="M4689 15343 c-17 -24 -69 -37 -69 -17 0 8 -4 14 -10 14 -5 0 -7 -7
-4 -15 8 -19 -22 -20 -33 -1 -13 22 -52 1 -65 -34 -5 -17 -18 -35 -28 -40 -15
-8 -18 -4 -24 32 -4 23 -9 45 -12 50 -7 11 -54 -30 -54 -48 0 -6 -11 -19 -25
-28 -22 -14 -26 -15 -31 -2 -4 11 -23 14 -71 14 -56 0 -70 -4 -90 -24 -26 -26
-29 -23 -11 9 10 19 9 20 -4 9 -9 -7 -19 -24 -22 -37 -3 -13 -19 -33 -35 -44
-23 -17 -34 -19 -64 -10 -20 5 -39 14 -42 19 -14 23 -56 8 -102 -35 -25 -25
-54 -45 -64 -45 -26 0 -78 -48 -94 -87 -19 -45 -19 -52 1 -27 14 18 15 17 11
-13 -2 -21 1 -34 10 -38 12 -4 12 -9 -1 -27 -9 -12 -16 -31 -16 -40 0 -11 -11
-23 -26 -28 -37 -14 -39 -13 -18 13 l19 22 -22 -18 c-41 -35 -70 -130 -42
-139 6 -2 3 -21 -10 -52 -12 -28 -21 -69 -21 -100 0 -45 -4 -56 -31 -82 -51
-48 -120 -152 -126 -189 -7 -44 10 -86 48 -114 22 -17 29 -30 29 -56 0 -19 -5
-35 -11 -35 -8 0 -8 -4 0 -14 9 -11 -3 -45 -55 -161 -51 -112 -65 -151 -57
-164 5 -9 31 -32 56 -51 45 -33 46 -36 41 -75 -3 -22 -11 -55 -16 -74 -10 -32
-8 -36 17 -57 17 -13 23 -24 16 -28 -6 -4 -11 -25 -11 -46 0 -35 4 -43 39 -64
27 -17 41 -35 46 -56 23 -105 201 -190 453 -215 92 -9 126 -34 147 -108 8 -29
24 -157 35 -286 l22 -234 -22 -68 c-33 -100 -127 -289 -215 -430 -128 -205
-422 -628 -501 -723 -36 -43 -105 -169 -124 -229 -31 -98 71 -293 262 -501
l63 -69 -12 -81 c-6 -45 -12 -122 -12 -172 -1 -61 -19 -203 -56 -425 -79 -488
-82 -518 -60 -837 17 -263 17 -268 -2 -318 -49 -127 -183 -318 -337 -479 -88
-92 -99 -108 -153 -225 -183 -396 -219 -458 -346 -599 -204 -226 -236 -565
-69 -740 32 -34 46 -41 76 -41 94 0 230 77 302 173 76 101 87 133 95 287 5 94
14 156 29 205 21 68 26 74 176 225 170 171 166 170 96 10 -33 -78 -111 -291
-137 -380 -38 -126 -43 -175 -34 -337 l9 -148 -79 -115 c-107 -157 -152 -232
-221 -369 -65 -130 -86 -209 -159 -606 -56 -309 -81 -481 -81 -568 0 -72 -2
-77 -54 -164 -61 -102 -62 -103 -111 -348 -24 -116 -40 -230 -45 -320 -29
-452 -143 -955 -317 -1395 -190 -481 -447 -903 -794 -1305 -123 -142 -107
-133 -244 -145 -66 -6 -228 -26 -359 -45 -232 -34 -370 -42 -469 -29 -36 5
-59 18 -104 56 -62 53 -141 98 -171 98 -35 0 -53 -34 -53 -97 0 -32 -7 -83
-16 -112 -20 -69 -12 -173 16 -229 25 -49 62 -77 137 -102 72 -25 113 -51 188
-118 135 -122 161 -136 292 -160 138 -26 287 -41 395 -42 50 0 96 -7 135 -20
114 -40 335 -101 422 -116 48 -9 125 -17 171 -18 l83 -1 53 57 c80 85 129 194
164 360 31 144 73 261 123 343 17 28 79 118 138 200 59 83 120 175 135 205 55
110 129 208 341 451 334 384 529 663 631 906 75 178 201 557 218 657 8 49 15
114 15 145 1 31 7 85 15 121 8 36 14 78 15 94 0 20 29 67 103 165 241 318 523
739 637 953 47 87 87 154 91 150 3 -4 21 -50 38 -102 107 -312 285 -633 450
-812 65 -70 74 -84 102 -171 36 -112 78 -168 152 -202 56 -26 66 -41 251 -364
318 -554 558 -1063 872 -1856 l88 -220 0 -120 c0 -103 -3 -129 -23 -180 -38
-95 -86 -163 -190 -265 -172 -171 -325 -273 -600 -400 -172 -80 -283 -141
-387 -215 l-61 -44 7 -47 c13 -83 84 -120 185 -94 33 8 110 12 230 10 136 -1
218 3 335 19 260 35 327 41 550 51 519 24 686 61 876 196 173 122 241 282 200
467 -14 63 -22 79 -45 94 -29 18 -90 89 -148 171 -18 25 -45 82 -61 126 -26
73 -30 102 -41 296 -39 694 -120 1288 -231 1680 -125 442 -346 824 -601 1037
l-80 68 8 120 c19 279 2 415 -99 805 -85 330 -122 492 -169 745 -23 121 -70
338 -104 483 -35 145 -71 308 -81 363 l-16 100 50 53 c226 238 350 685 282
1014 -38 186 -108 389 -196 565 -69 136 -240 390 -389 577 -87 110 -129 172
-170 255 -29 61 -56 122 -60 136 -4 18 7 58 39 135 l45 110 -10 104 c-12 133
-56 507 -73 624 -16 107 -10 142 40 227 71 120 165 329 209 461 88 270 121
503 112 793 -10 329 -51 483 -174 666 -52 77 -62 88 -280 331 -109 121 -133
153 -133 178 0 35 6 37 29 9 14 -18 20 -19 46 -8 17 7 36 11 43 10 8 -1 24 5
38 14 30 19 31 9 2 -22 -25 -26 -13 -31 20 -7 15 11 22 25 22 50 0 37 20 48
21 12 0 -15 7 -4 18 27 10 28 23 63 30 80 l12 29 25 -32 c32 -40 67 -42 91 -5
14 21 18 48 18 110 0 52 5 87 13 94 6 7 12 8 12 3 0 -6 -5 -15 -12 -22 -9 -9
-9 -12 0 -12 6 0 17 9 24 20 7 11 20 20 30 20 52 0 87 58 98 164 4 39 8 65 9
57 1 -10 8 -8 28 10 23 21 25 22 18 4 -4 -11 -10 -28 -13 -39 -5 -18 -4 -18
22 -1 14 9 26 13 26 7 0 -5 -7 -13 -16 -16 -18 -7 -12 -19 10 -22 23 -3 76
107 76 158 0 24 -4 48 -9 54 -6 5 -2 31 10 68 11 32 21 88 23 125 2 37 9 77
15 89 17 32 6 42 -45 42 -56 0 -58 16 -4 70 34 34 40 37 40 19 0 -28 -19 -61
-31 -54 -5 4 -9 -1 -9 -9 0 -22 27 -20 40 3 18 34 11 84 -20 136 -19 32 -30
64 -30 88 0 30 -4 40 -20 44 -23 6 -24 14 -9 83 7 32 16 50 25 50 8 0 19 10
24 23 8 20 9 19 9 -11 1 -18 -4 -43 -10 -55 -10 -21 -10 -21 5 -3 10 12 16 40
16 71 0 41 -6 59 -28 89 -19 25 -28 48 -26 65 3 25 3 25 -4 3 l-7 -24 -19 20
c-17 20 -14 48 5 37 5 -4 9 -4 9 -1 0 3 -35 24 -77 46 -43 22 -96 54 -118 70
-50 36 -88 48 -79 26 4 -11 1 -16 -10 -16 -14 0 -15 4 -6 20 6 11 8 20 5 20
-3 0 2 11 11 25 20 30 11 49 -17 35 -18 -10 -19 -8 -13 14 3 13 1 34 -6 45
-12 23 -33 29 -24 7 5 -14 -17 -28 -53 -32 -32 -4 -37 12 -11 30 17 12 18 16
6 16 -8 0 -23 -10 -31 -22 l-16 -23 0 29 c-1 33 -58 96 -88 96 -11 0 -25 11
-31 25 -9 19 -19 25 -42 25 -16 0 -30 5 -30 10 0 6 -9 10 -20 10 -12 0 -20 7
-20 18 0 15 -2 15 -11 2 -9 -12 -10 -11 -6 7 3 12 -1 27 -9 34 -19 16 -61 -12
-70 -46 -8 -31 -44 -35 -44 -5 0 24 -22 26 -41 4 -11 -14 -13 -14 -22 2 -5 9
-6 19 0 23 4 3 6 20 3 38 l-5 32 -31 -15 c-18 -9 -40 -23 -50 -32 -11 -10 -26
-16 -35 -14 -14 3 -59 -10 -111 -33 -15 -6 -18 -2 -18 27 0 49 -20 72 -58 66
-17 -2 -33 0 -35 6 -2 5 -10 1 -18 -11z m66 -14 c10 -14 1 -21 -19 -13 -9 3
-13 10 -10 15 7 12 21 11 29 -2z m-224 -52 c-8 -8 -11 -7 -11 4 0 20 13 34 18
19 3 -7 -1 -17 -7 -23z m-101 3 c0 -5 -4 -10 -10 -10 -5 0 -10 5 -10 10 0 6 5
10 10 10 6 0 10 -4 10 -10z m240 6 c0 -3 -4 -8 -10 -11 -5 -3 -10 -1 -10 4 0
6 5 11 10 11 6 0 10 -2 10 -4z m90 -26 c0 -11 -4 -20 -10 -20 -5 0 -10 9 -10
20 0 11 5 20 10 20 6 0 10 -9 10 -20z m-115 0 c3 -5 -1 -10 -9 -10 -9 0 -16 5
-16 10 0 6 4 10 9 10 6 0 13 -4 16 -10z m66 -17 c-8 -15 -10 -15 -11 -2 0 17
10 32 18 25 2 -3 -1 -13 -7 -23z m169 7 c-39 -21 -50 -24 -50 -12 0 12 40 31
65 31 15 0 11 -5 -15 -19z m340 10 c0 -5 -4 -10 -10 -10 -5 0 -10 5 -10 10 0
6 5 10 10 10 6 0 10 -4 10 -10z m-1003 -24 c0 -8 -8 -11 -19 -8 -10 2 -15 8
-12 13 8 14 31 11 31 -5z m93 5 c0 -5 -9 -11 -20 -14 -22 -6 -28 8 -7 16 19 8
27 8 27 -2z m110 -5 c0 -3 -4 -8 -10 -11 -5 -3 -10 -1 -10 4 0 6 5 11 10 11 6
0 10 -2 10 -4z m475 -16 c-21 -23 -35 -26 -35 -6 0 15 14 24 39 25 11 1 10 -4
-4 -19z m-505 -5 c0 -8 -4 -15 -10 -15 -5 0 -10 7 -10 15 0 8 5 15 10 15 6 0
10 -7 10 -15z m670 5 c0 -5 -5 -10 -11 -10 -5 0 -7 5 -4 10 3 6 8 10 11 10 2
0 4 -4 4 -10z m107 -12 c-3 -8 -6 -5 -6 6 -1 11 2 17 5 13 3 -3 4 -12 1 -19z
m113 18 c0 -3 -4 -8 -10 -11 -5 -3 -10 -1 -10 4 0 6 5 11 10 11 6 0 10 -2 10
-4z m-439 -23 c11 -15 11 -16 0 -6 -7 6 -20 9 -29 6 -10 -4 -13 -2 -8 5 10 17
21 15 37 -5z m293 -8 c-4 -8 -8 -15 -10 -15 -2 0 -4 7 -4 15 0 8 4 15 10 15 5
0 7 -7 4 -15z m-1179 -25 c-10 -11 -25 -20 -34 -20 -12 1 -10 5 8 20 30 26 49
26 26 0z m1205 -10 c0 -5 -4 -10 -9 -10 -6 0 -13 5 -16 10 -3 6 1 10 9 10 9 0
16 -4 16 -10z m-310 -30 c0 -5 -8 -10 -17 -10 -15 0 -16 2 -3 10 19 12 20 12
20 0z m45 0 c3 -5 1 -10 -4 -10 -6 0 -11 5 -11 10 0 6 2 10 4 10 3 0 8 -4 11
-10z m501 -57 c-10 -10 -19 5 -10 18 6 11 8 11 12 0 2 -7 1 -15 -2 -18z m70
-19 c-3 -8 -13 -14 -23 -13 -11 0 -13 3 -5 6 6 2 12 17 12 31 1 24 2 25 11 9
6 -10 8 -25 5 -33z m-1309 14 c-3 -8 -6 -5 -6 6 -1 11 2 17 5 13 3 -3 4 -12 1
-19z m-227 -3 c0 -8 -6 -15 -14 -15 -20 0 -29 17 -14 23 22 9 28 7 28 -8z
m1680 -30 c0 -8 -6 -15 -14 -15 -17 0 -28 14 -19 24 12 12 33 6 33 -9z m34
-49 c-6 -16 -24 -23 -24 -8 0 10 22 33 27 28 2 -2 1 -11 -3 -20z m-86 -17
c-19 -12 -38 -11 -38 2 0 6 7 8 16 5 12 -5 15 -2 10 10 -5 14 -4 15 9 4 13
-11 13 -15 3 -21z m52 -47 c0 -4 -10 -9 -22 -9 -18 -2 -20 0 -8 7 18 12 30 13
30 2z m50 -26 c0 -9 -30 -14 -35 -6 -4 6 3 10 14 10 12 0 21 -2 21 -4z m68
-11 c32 -9 27 -25 -8 -25 -20 0 -33 7 -41 21 -12 22 -14 22 49 4z m-108 -56
c0 -5 -4 -9 -10 -9 -5 0 -10 7 -10 16 0 8 5 12 10 9 6 -3 10 -10 10 -16z
m-1926 -24 c-6 -16 -24 -21 -24 -7 0 11 11 22 21 22 5 0 6 -7 3 -15z m1926
-25 c6 -11 8 -20 6 -20 -3 0 -10 9 -16 20 -6 11 -8 20 -6 20 3 0 10 -9 16 -20z
m-1920 -10 c0 -5 -5 -10 -11 -10 -5 0 -7 5 -4 10 3 6 8 10 11 10 2 0 4 -4 4
-10z m-35 -10 c3 -5 1 -10 -4 -10 -6 0 -11 5 -11 10 0 6 2 10 4 10 3 0 8 -4
11 -10z m75 -70 c-20 -13 -33 -13 -25 0 3 6 14 10 23 10 15 0 15 -2 2 -10z
m2210 -62 c0 -7 -5 -20 -10 -28 -8 -12 -10 -9 -10 13 0 15 5 27 10 27 6 0 10
-6 10 -12z m-2296 -59 c-24 -27 -29 -16 -8 16 10 16 20 23 22 16 2 -7 -4 -21
-14 -32z m2163 19 c-3 -8 -6 -5 -6 6 -1 11 2 17 5 13 3 -3 4 -12 1 -19z m93
-13 c19 -23 8 -25 -14 -4 -11 11 -15 19 -9 19 6 0 16 -7 23 -15z m-68 -57 c-7
-7 -12 -8 -12 -2 0 14 12 26 19 19 2 -3 -1 -11 -7 -17z m38 -48 c0 -5 -4 -10
-10 -10 -5 0 -10 5 -10 10 0 6 5 10 10 10 6 0 10 -4 10 -10z m0 -221 c0 -5 -4
-9 -10 -9 -5 0 -10 7 -10 16 0 8 5 12 10 9 6 -3 10 -10 10 -16z m24 -25 c3 -8
2 -12 -4 -9 -6 3 -10 10 -10 16 0 14 7 11 14 -7z m96 -108 c0 -15 -16 -30 -42
-39 -15 -5 -18 -1 -18 23 0 27 3 30 30 30 19 0 30 -5 30 -14z m-57 -141 c-3
-9 -8 -14 -10 -11 -3 3 -2 9 2 15 9 16 15 13 8 -4z m32 -17 c-4 -18 -11 -49
-18 -68 l-11 -35 -7 33 c-5 26 -2 42 15 68 26 42 29 42 21 2z m-65 -38 c0 -5
-8 -10 -17 -10 -15 0 -16 2 -3 10 19 12 20 12 20 0z m-69 -27 c-8 -15 -10 -15
-11 -2 0 17 10 32 18 25 2 -3 -1 -13 -7 -23z m34 -33 c-3 -5 -11 -10 -16 -10
-6 0 -7 5 -4 10 3 6 11 10 16 10 6 0 7 -4 4 -10z m37 -17 c-6 -10 -24 -26 -41
-36 -26 -15 -31 -16 -31 -3 0 8 8 17 19 21 10 3 26 14 36 25 21 24 31 20 17
-7z m-62 -72 c0 -6 -4 -13 -10 -16 -5 -3 -10 1 -10 9 0 9 5 16 10 16 6 0 10
-4 10 -9z m50 1 c0 -4 -9 -13 -20 -20 -11 -7 -20 -20 -20 -30 0 -10 -7 -27
-16 -38 -15 -18 -15 -17 -10 15 8 43 32 81 51 81 8 0 15 -3 15 -8z m20 -27
c-7 -9 -15 -13 -17 -11 -7 7 7 26 19 26 6 0 6 -6 -2 -15z m34 -10 c-4 -8 -10
-12 -15 -9 -11 6 -2 24 11 24 5 0 7 -7 4 -15z m-24 -34 c0 -12 -29 -35 -36
-28 -11 10 5 37 21 37 8 0 15 -4 15 -9z m-186 -25 c-21 -15 -30 -14 -19 3 3 6
14 11 23 11 13 0 13 -2 -4 -14z m-59 -66 c-6 -9 -9 -9 -16 1 -10 17 0 34 13
21 6 -6 7 -16 3 -22z m28 -51 c5 -4 5 -9 -2 -13 -6 -4 -11 -2 -11 3 0 6 -7 11
-15 11 -8 0 -15 4 -15 9 0 14 24 20 29 7 2 -6 8 -14 14 -17z m34 -21 c-3 -7
-5 -2 -5 12 0 14 2 19 5 13 2 -7 2 -19 0 -25z m-21 -35 c-11 -11 -17 4 -9 23
7 18 8 18 11 1 2 -10 1 -21 -2 -24z m46 5 c-8 -8 -9 -4 -5 13 4 13 8 18 11 10
2 -7 -1 -18 -6 -23z m-58 -23 c23 -23 23 -25 5 -30 -26 -9 -39 2 -39 31 0 30
3 30 34 -1z m-87 -121 c-3 -3 -12 -4 -19 -1 -8 3 -5 6 6 6 11 1 17 -2 13 -5z
m-180 -56 c-3 -8 -6 -5 -6 6 -1 11 2 17 5 13 3 -3 4 -12 1 -19z m163 -22 c0
-2 -15 -9 -32 -15 -30 -10 -31 -9 -14 4 18 14 46 20 46 11z m-280 -37 c0 -5
-4 -9 -10 -9 -5 0 -10 7 -10 16 0 8 5 12 10 9 6 -3 10 -10 10 -16z m26 -46
c-11 -11 -19 6 -11 24 8 17 8 17 12 0 3 -10 2 -21 -1 -24z m227 20 c-7 -2 -19
-2 -25 0 -7 3 -2 5 12 5 14 0 19 -2 13 -5z m-151 -25 c-7 -7 -12 -8 -12 -2 0
14 12 26 19 19 2 -3 -1 -11 -7 -17z m-112 2 c0 -5 -7 -10 -15 -10 -8 0 -15 5
-15 10 0 6 7 10 15 10 8 0 15 -4 15 -10z m-84 -77 c-10 -10 -19 5 -10 18 6 11
8 11 12 0 2 -7 1 -15 -2 -18z m164 19 c0 -11 -22 -32 -32 -32 -5 0 -4 9 2 20
11 20 30 28 30 12z m-143 -24 c-3 -8 -6 -5 -6 6 -1 11 2 17 5 13 3 -3 4 -12 1
-19z"/>
</g>
</svg>
