<?xml version="1.0" standalone="no"?>
<!DOCTYPE svg PUBLIC "-//W3C//DTD SVG 20010904//EN"
 "http://www.w3.org/TR/2001/REC-SVG-20010904/DTD/svg10.dtd">
<svg version="1.0" xmlns="http://www.w3.org/2000/svg"
 width="1314.000000pt" height="1536.000000pt" viewBox="0 0 1314.000000 1536.000000"
 preserveAspectRatio="xMidYMid meet">
<metadata>
Created by potrace 1.16, written by Peter Selinger 2001-2019
</metadata>
<g transform="translate(0.000000,1536.000000) scale(0.100000,-0.100000)"
fill="#000000" stroke="none">
<path d="M7631 15315 c-27 -25 -70 -78 -97 -117 -44 -66 -64 -107 -138 -289
-18 -43 -43 -81 -74 -112 -67 -67 -268 -183 -634 -368 -451 -228 -706 -399
-762 -510 -41 -84 -37 -130 28 -269 30 -63 64 -149 75 -190 74 -274 28 -653
-106 -873 -91 -148 -113 -192 -138 -272 -53 -163 -53 -310 0 -466 64 -186 165
-303 390 -449 190 -123 216 -149 240 -231 24 -86 31 -283 16 -461 -22 -266
-55 -456 -185 -1093 -80 -391 -109 -588 -150 -1015 -37 -380 -58 -462 -187
-719 -126 -253 -259 -439 -622 -874 -355 -425 -392 -467 -926 -1012 -525 -537
-780 -769 -927 -841 -82 -41 -186 -59 -284 -50 -36 3 -129 22 -205 41 -77 19
-178 40 -225 45 -134 15 -310 -10 -426 -62 -41 -18 -77 -23 -224 -29 -199 -10
-459 -54 -488 -83 -13 -12 -17 -34 -17 -85 l0 -68 -100 -23 c-393 -88 -710
-258 -979 -527 -169 -168 -285 -326 -389 -530 -147 -288 -124 -413 75 -413
127 0 236 47 321 139 34 37 86 115 133 199 109 194 166 275 264 372 240 240
591 379 1035 411 388 27 665 -39 868 -206 153 -127 240 -283 373 -675 47 -140
111 -318 141 -395 l55 -140 -17 -46 c-9 -26 -17 -61 -17 -78 -1 -35 26 -71 54
-71 30 0 40 -43 22 -89 -23 -57 -8 -81 51 -81 60 0 75 -17 73 -85 -2 -57 11
-82 43 -87 15 -2 38 -43 90 -158 171 -377 260 -538 400 -727 337 -456 830
-848 1488 -1182 405 -206 811 -338 1263 -411 648 -105 1384 -66 1973 105 330
96 521 170 795 306 387 193 691 410 976 695 297 298 489 594 837 1289 660
1322 980 2083 1301 3095 177 559 314 1022 360 1221 106 452 113 938 20 1499
-165 1000 -439 1740 -895 2415 -221 328 -399 525 -931 1031 -480 456 -587 548
-765 658 -119 73 -218 147 -373 278 -300 251 -367 283 -604 283 -120 0 -140 2
-150 17 -8 13 -6 23 9 42 11 13 41 50 68 82 26 33 57 84 69 114 29 75 35 237
14 388 -9 62 -16 154 -16 205 1 91 3 103 56 238 17 43 17 48 2 71 -23 35 -80
59 -169 71 -68 9 -88 8 -172 -13 -144 -34 -176 -29 -402 68 -304 131 -296 126
-387 276 -42 70 -117 187 -166 259 -49 73 -112 171 -141 220 -74 123 -91 141
-184 185 -84 40 -112 65 -174 155 -43 62 -68 62 -132 2z m-636 -8351 c-24
-207 -29 -339 -16 -473 15 -151 43 -262 110 -445 75 -202 71 -279 -22 -374
-59 -61 -151 -104 -334 -157 -316 -92 -431 -163 -747 -465 -270 -257 -383
-354 -561 -481 -230 -165 -457 -295 -784 -449 -460 -217 -552 -266 -645 -338
l-90 -69 -66 136 c-91 186 -144 270 -302 477 -6 8 15 10 80 6 135 -7 141 -4
326 182 231 232 299 277 931 629 597 331 898 521 1209 761 443 342 597 538
802 1020 35 82 71 160 80 174 14 21 18 22 30 10 13 -12 13 -31 -1 -144z m3648
-3424 c100 -79 30 -425 -164 -813 -169 -335 -380 -629 -644 -892 -234 -234
-458 -395 -753 -543 -415 -207 -792 -306 -1427 -374 -252 -26 -711 -32 -885
-10 -569 72 -1094 291 -1551 648 -356 278 -614 606 -827 1053 l-64 134 30 41
c16 22 55 86 88 141 69 119 131 188 198 222 44 22 63 25 175 27 152 2 183 13
286 104 115 103 192 127 322 101 112 -22 250 -15 388 20 132 34 185 37 260 17
76 -20 119 -45 266 -156 157 -119 322 -204 634 -328 389 -156 669 -218 1025
-229 447 -13 749 85 841 273 15 33 25 77 31 148 10 120 33 176 88 212 66 44
142 50 377 31 474 -40 758 -10 1048 109 146 60 208 83 221 84 6 0 23 -9 37
-20z"/>
</g>
</svg>
