<?xml version="1.0" standalone="no"?>
<!DOCTYPE svg PUBLIC "-//W3C//DTD SVG 20010904//EN"
 "http://www.w3.org/TR/2001/REC-SVG-20010904/DTD/svg10.dtd">
<svg version="1.0" xmlns="http://www.w3.org/2000/svg"
 width="1257.000000pt" height="1536.000000pt" viewBox="0 0 1257.000000 1536.000000"
 preserveAspectRatio="xMidYMid meet">
<metadata>
Created by potrace 1.16, written by Peter Selinger 2001-2019
</metadata>
<g transform="translate(0.000000,1536.000000) scale(0.100000,-0.100000)"
fill="#000000" stroke="none">
<path d="M7915 15349 c-4 -6 -20 -8 -38 -4 -31 6 -30 4 27 -48 56 -52 65 -77
28 -77 -9 0 -29 12 -44 27 -33 31 -39 12 -8 -27 43 -55 16 -65 -57 -20 -26 16
-61 32 -78 36 -27 7 -29 6 -16 -10 23 -27 5 -30 -50 -7 -28 11 -56 21 -61 21
-18 0 4 -21 45 -42 54 -27 32 -35 -35 -12 -67 23 -224 28 -207 8 11 -13 99
-44 126 -44 7 0 13 7 13 15 0 8 3 15 7 15 12 0 83 -52 83 -61 0 -15 -45 -20
-90 -10 -79 18 -88 13 -32 -19 56 -33 70 -57 26 -46 -22 6 -25 4 -20 -10 5
-14 2 -16 -26 -10 -18 4 -67 9 -108 11 l-75 5 45 -13 c25 -8 52 -16 60 -19 8
-3 -37 -3 -100 0 -132 5 -142 -4 -20 -18 46 -5 85 -12 88 -15 14 -13 -18 -20
-111 -25 l-102 -6 85 -9 c47 -5 76 -10 65 -12 -11 -1 -50 -5 -88 -8 -85 -8
-77 -25 12 -25 84 0 162 -10 156 -20 -3 -4 -55 -11 -117 -15 -134 -8 -220 -21
-268 -42 -50 -22 -21 -27 42 -8 66 20 247 31 268 16 13 -10 13 -12 0 -21 -22
-14 -80 -30 -113 -30 -57 0 -300 -69 -363 -104 -39 -20 -7 -21 42 -1 20 8 65
20 101 26 36 6 77 18 92 25 27 14 128 17 171 5 20 -6 14 -8 -30 -13 -52 -6
-145 -36 -137 -45 3 -2 26 1 52 7 26 6 50 9 52 6 2 -2 -22 -20 -54 -40 -58
-35 -58 -35 -25 -36 20 0 31 -4 27 -10 -8 -12 8 -12 60 0 22 5 41 7 43 5 2 -2
-33 -22 -79 -45 -107 -54 -167 -92 -152 -97 6 -2 39 10 73 28 57 29 63 31 78
16 15 -15 14 -19 -8 -42 -28 -29 -25 -30 26 -9 104 44 128 33 39 -17 -52 -29
-69 -49 -42 -49 6 0 36 11 65 25 47 22 54 23 59 8 4 -10 -4 -25 -24 -42 -17
-14 -33 -33 -36 -42 -3 -9 -51 -47 -108 -84 -102 -69 -125 -105 -28 -45 52 31
99 53 99 45 0 -2 -17 -20 -37 -40 -37 -35 -37 -36 -10 -29 21 5 27 3 27 -10 0
-21 9 -20 45 4 36 24 45 25 45 6 0 -19 -67 -76 -128 -108 -29 -16 -52 -32 -52
-38 0 -17 17 -12 68 20 96 59 112 24 26 -56 -31 -28 -55 -56 -53 -62 2 -6 30
7 63 29 80 54 106 52 57 -4 -14 -17 -14 -18 10 -12 29 7 50 -8 75 -57 21 -41
9 -48 -91 -48 -44 0 -120 -5 -169 -11 -63 -8 -91 -8 -99 0 -16 16 -37 13 -37
-5 0 -15 -10 -16 -82 -11 -77 6 -81 5 -55 -9 15 -8 27 -17 27 -21 0 -7 -82 3
-179 23 -76 16 -99 12 -68 -11 17 -12 14 -14 -29 -21 -45 -6 -191 -1 -284 11
-40 6 -43 5 -27 -8 9 -8 40 -17 67 -20 28 -3 58 -11 68 -17 13 -8 6 -9 -28 -3
-88 14 -421 2 -613 -23 -41 -6 -47 -9 -42 -25 6 -17 0 -19 -64 -19 -60 0 -71
-3 -76 -19 -3 -10 -15 -21 -25 -24 -12 -3 -20 -14 -20 -26 0 -21 -27 -41 -55
-41 -9 0 -23 -7 -31 -15 -19 -18 -88 -21 -82 -3 3 7 28 19 57 28 29 8 52 20
51 25 -2 15 -56 8 -130 -17 -57 -19 -62 -23 -40 -29 24 -6 24 -7 -15 -24 -150
-64 -158 -69 -172 -103 -17 -41 -45 -67 -145 -138 -42 -30 -82 -62 -87 -73 -6
-10 -25 -21 -43 -25 -44 -8 -98 -42 -98 -61 0 -10 -10 -15 -27 -15 -16 0 -46
-9 -68 -19 -22 -11 -69 -33 -105 -49 -75 -33 -133 -79 -126 -98 3 -8 -6 -20
-22 -28 -33 -19 -13 -20 58 -5 86 18 77 4 -16 -25 -90 -29 -162 -64 -185 -92
-17 -21 -3 -29 27 -15 48 22 50 -5 2 -33 -49 -29 -37 -33 56 -15 31 5 63 8 69
6 21 -7 -31 -28 -156 -63 -115 -33 -197 -72 -197 -94 0 -18 41 -10 85 15 24
14 46 22 49 17 7 -11 -18 -34 -61 -56 -18 -9 -33 -21 -33 -26 0 -6 -6 -10 -14
-10 -7 0 -19 -7 -26 -15 -10 -12 -10 -18 1 -31 12 -14 5 -23 -48 -71 -37 -32
-60 -59 -57 -68 7 -18 -40 -48 -64 -41 -11 4 -24 0 -32 -9 -11 -13 -10 -19 5
-35 15 -16 15 -22 5 -35 -7 -8 -20 -15 -29 -15 -9 0 -54 -36 -100 -79 -74 -70
-82 -80 -61 -83 22 -3 21 -6 -25 -58 -26 -30 -51 -67 -57 -81 -5 -15 -37 -48
-71 -75 -44 -34 -57 -49 -45 -52 9 -2 28 4 42 14 48 31 24 -17 -46 -94 -26
-30 -48 -58 -48 -63 0 -5 -12 -27 -26 -49 -15 -22 -24 -46 -21 -54 3 -7 -5
-30 -19 -49 -13 -20 -24 -42 -24 -50 0 -26 32 -29 63 -7 32 25 48 19 24 -8 -9
-9 -18 -29 -21 -44 -7 -39 -14 -48 -40 -48 -13 0 -30 -8 -39 -18 -21 -24 -46
-84 -40 -99 8 -22 23 -14 23 12 0 20 8 29 33 40 17 7 34 12 36 9 6 -6 -29 -55
-74 -104 -56 -60 -128 -227 -120 -274 7 -34 -14 -64 -34 -52 -6 4 -17 -18 -27
-51 -14 -48 -15 -65 -5 -103 11 -42 9 -55 -17 -141 -38 -119 -42 -147 -29
-176 8 -18 3 -37 -27 -103 -20 -44 -50 -121 -67 -172 -17 -50 -41 -114 -54
-142 -13 -28 -27 -63 -30 -78 -3 -16 -11 -28 -18 -28 -20 0 -95 -68 -112 -100
-8 -16 -32 -49 -54 -74 -21 -25 -53 -74 -70 -110 -35 -75 -48 -86 -60 -54 -10
26 -18 14 -23 -37 -3 -29 -5 -30 -55 -33 -39 -2 -51 -6 -47 -17 3 -7 -4 -19
-17 -25 -15 -9 -18 -14 -9 -20 20 -12 -23 -36 -121 -67 -96 -29 -117 -49 -44
-41 25 3 45 2 45 -3 0 -11 -50 -37 -118 -60 -29 -10 -80 -36 -112 -58 -32 -21
-76 -42 -96 -46 -49 -9 -104 -37 -129 -66 -18 -20 -18 -22 -2 -16 10 4 49 10
86 13 62 6 67 5 68 -14 1 -14 -6 -22 -25 -27 -139 -34 -181 -63 -72 -51 33 4
60 5 60 2 0 -2 -30 -14 -67 -27 -77 -25 -94 -35 -87 -53 3 -9 -7 -15 -29 -19
-45 -7 -167 -63 -167 -76 0 -15 12 -14 65 9 26 11 56 20 67 20 36 0 3 -26
-118 -91 -63 -34 -112 -64 -109 -67 3 -3 30 3 60 13 30 11 57 16 61 12 14 -13
-18 -35 -104 -71 -116 -48 -131 -59 -115 -84 10 -17 9 -23 -8 -37 -14 -13 -16
-22 -8 -31 7 -8 7 -14 -1 -19 -5 -3 -10 -15 -10 -25 0 -10 -20 -36 -45 -57
-33 -27 -45 -45 -45 -64 0 -32 -9 -40 -87 -79 -59 -30 -148 -98 -139 -107 3
-3 48 16 100 41 53 25 98 46 101 46 3 0 5 -7 5 -15 0 -8 -15 -22 -32 -30 -74
-36 -132 -71 -136 -82 -6 -20 19 -15 78 17 30 17 66 30 79 30 18 0 1 -14 -65
-53 -127 -76 -178 -111 -166 -115 6 -2 30 7 53 19 26 13 60 21 86 21 46 -1 62
11 43 33 -9 11 -7 16 9 24 28 15 33 14 26 -8 -3 -10 1 -24 10 -31 23 -19 18
-30 -22 -46 -79 -33 -102 -46 -108 -62 -3 -10 -31 -31 -63 -49 -78 -43 -218
-146 -204 -151 6 -2 31 10 54 26 60 41 128 74 128 62 0 -5 -11 -17 -24 -25
-31 -20 -43 -49 -18 -41 9 3 23 1 31 -3 20 -13 10 -23 -115 -123 -67 -53 -116
-85 -137 -88 -28 -4 -32 -9 -32 -34 0 -42 16 -42 65 -1 28 23 46 33 53 26 5
-5 17 -7 26 -3 9 3 -41 -54 -111 -127 -71 -72 -128 -136 -128 -141 0 -14 12
-12 38 6 33 23 40 9 12 -21 -34 -36 -21 -38 30 -5 53 35 83 41 56 11 -10 -11
-15 -25 -11 -30 9 -16 -39 -56 -85 -70 -23 -7 -63 -34 -97 -65 -60 -56 -67
-79 -14 -52 16 9 37 16 46 16 10 0 29 8 43 18 44 30 52 34 52 22 0 -6 -30 -40
-68 -75 -43 -41 -61 -65 -50 -65 9 0 20 5 23 10 3 6 14 10 23 10 10 0 -15 -30
-63 -75 -83 -77 -87 -98 -9 -44 25 17 47 29 49 27 4 -3 8 -47 6 -65 -1 -6 -44
-66 -96 -134 -52 -67 -95 -126 -95 -131 0 -10 -1 -11 92 49 90 58 105 58 67
-3 -20 -33 -114 -107 -200 -157 -51 -30 -96 -74 -86 -84 4 -3 20 5 35 19 31
29 228 148 245 148 16 0 -29 -45 -107 -108 -74 -59 -76 -84 -4 -34 24 16 54
35 67 42 l24 12 -19 -33 c-11 -18 -60 -64 -109 -102 -97 -73 -142 -114 -134
-121 3 -3 26 9 52 26 26 17 50 28 54 25 3 -4 -13 -27 -36 -52 -46 -50 -50 -60
-21 -52 34 9 30 -8 -16 -64 -24 -30 -54 -79 -65 -109 -11 -30 -31 -66 -43 -80
-13 -14 -29 -35 -35 -47 -18 -35 5 -29 50 12 22 19 44 35 50 35 12 0 10 -3
-52 -80 -43 -54 -61 -85 -52 -94 3 -3 13 4 21 15 13 19 16 20 24 5 5 -9 16
-16 23 -16 8 0 15 -4 15 -9 0 -10 -58 -75 -138 -158 -45 -46 -47 -63 -6 -63
29 0 30 -9 4 -43 -11 -14 -20 -39 -20 -55 0 -17 -5 -34 -10 -37 -18 -11 -10
-32 16 -44 24 -11 26 -16 21 -52 -3 -23 -22 -67 -41 -99 -42 -68 -58 -124 -32
-114 24 9 20 -13 -14 -80 -29 -57 -39 -106 -21 -106 13 0 27 21 40 63 7 20 16
37 20 37 4 0 13 15 19 34 13 35 38 63 48 53 3 -3 -10 -41 -30 -85 -34 -74 -50
-131 -25 -89 5 9 14 17 19 17 17 0 11 -35 -15 -94 -34 -77 -33 -97 2 -65 18
16 24 19 20 8 -24 -69 -47 -156 -47 -182 0 -29 0 -30 20 -12 25 22 25 26 -5
-76 -13 -46 -25 -92 -25 -102 0 -10 -14 -59 -30 -109 -17 -51 -30 -112 -30
-140 0 -27 -7 -65 -15 -85 -19 -44 -19 -63 -1 -63 15 0 26 21 26 50 0 25 28
46 42 32 8 -8 2 -29 -21 -77 -32 -70 -41 -120 -19 -113 7 3 15 18 19 34 3 16
14 45 24 64 l19 35 7 -35 c5 -19 6 -51 3 -70 -11 -65 -64 -205 -85 -222 -23
-20 -17 -38 12 -38 14 0 26 13 39 43 23 53 25 26 3 -54 -14 -49 -14 -64 -4
-80 6 -11 9 -29 6 -40 -5 -14 0 -21 18 -28 48 -19 55 -74 31 -245 -6 -43 -5
-49 9 -43 15 6 17 -4 17 -83 0 -81 9 -114 28 -96 3 4 9 48 12 99 6 99 12 117
37 117 12 0 14 -7 9 -28 -14 -64 -19 -162 -7 -162 6 0 11 9 11 20 0 11 4 20 9
20 13 0 20 -63 14 -125 -4 -39 -2 -55 6 -55 6 0 16 10 20 22 12 31 20 9 23
-67 3 -53 6 -60 24 -63 28 -4 33 -26 35 -137 2 -122 8 -145 44 -165 28 -16 30
-20 33 -88 2 -40 7 -72 11 -72 5 0 11 25 14 56 6 56 20 85 34 70 4 -4 7 -48 6
-98 -1 -50 0 -89 2 -86 3 2 10 39 16 81 16 104 39 102 39 -4 0 -31 4 -48 10
-44 6 3 10 17 10 30 0 28 9 55 19 55 4 0 4 -28 0 -62 -4 -35 -13 -110 -19
-168 -6 -57 -16 -113 -22 -123 -13 -24 -2 -35 17 -16 8 8 20 50 26 94 19 128
28 122 29 -20 0 -75 4 -124 9 -117 11 19 21 -8 21 -58 0 -41 14 -61 24 -34 3
9 6 36 6 61 0 58 10 49 21 -18 5 -28 16 -60 24 -70 10 -10 23 -58 32 -118 9
-56 20 -101 24 -101 5 0 9 39 10 88 1 185 14 186 26 2 12 -168 33 -280 53
-280 14 0 12 17 -5 74 -20 66 -20 156 0 156 15 0 27 -36 43 -125 l9 -50 8 44
c10 53 15 44 45 -71 22 -83 40 -114 40 -67 0 33 17 12 40 -49 11 -31 28 -77
38 -102 l17 -45 5 50 5 50 44 -115 c60 -157 121 -276 169 -330 22 -25 43 -42
46 -39 3 3 -16 57 -43 120 -57 134 -111 298 -111 336 0 51 26 4 74 -132 126
-353 176 -465 211 -465 21 0 19 7 -15 50 -33 41 -65 110 -52 110 4 0 28 -28
52 -62 43 -62 66 -67 36 -9 -9 16 -16 37 -16 46 0 30 22 3 55 -69 18 -39 40
-80 48 -90 14 -19 15 -18 37 4 l22 22 -22 47 c-12 27 -20 60 -18 77 4 26 5 27
13 9 16 -39 107 -175 116 -175 5 0 -6 30 -25 68 -43 87 -51 112 -34 112 7 0
37 -38 66 -85 82 -131 242 -319 257 -303 3 3 -15 30 -40 60 -25 30 -45 58 -45
62 0 4 18 -7 41 -25 22 -17 52 -33 66 -35 32 -3 39 -10 25 -27 -17 -20 29 -61
57 -52 25 8 191 -79 191 -101 0 -8 -4 -14 -10 -14 -16 0 -11 -20 6 -27 11 -4
22 1 30 12 16 22 27 15 52 -36 l17 -34 75 0 c63 0 87 -5 149 -33 40 -17 86
-32 101 -32 15 0 74 -13 131 -30 121 -35 123 -35 115 -14 -5 13 1 14 37 10 70
-10 350 -36 377 -36 l25 1 -27 15 c-26 14 -38 34 -20 34 5 0 30 -7 55 -16 44
-15 50 -15 81 0 19 9 36 23 40 31 3 8 14 15 24 15 10 0 22 4 28 9 5 5 53 11
106 13 88 3 99 5 113 26 12 16 26 22 55 22 21 0 42 5 45 10 3 6 18 10 33 10
15 0 44 9 65 20 20 11 47 20 59 20 34 0 68 11 68 21 0 5 -10 9 -22 9 -34 0
-16 9 63 31 41 11 99 34 129 50 30 16 72 35 93 44 27 10 37 20 35 32 -2 14 7
19 44 24 61 9 78 20 50 30 -41 15 -23 29 37 29 76 0 115 38 42 41 -25 1 -25 1
4 8 37 9 70 26 112 58 38 28 41 39 12 46 -33 9 -12 29 22 22 25 -6 34 -1 71
40 24 26 53 51 65 56 46 17 153 197 153 256 0 27 6 32 46 48 35 13 44 21 39
34 -4 9 -10 24 -12 34 -3 9 -14 17 -24 17 -11 0 -19 7 -19 15 0 32 -35 4 -81
-65 -9 -14 -20 -22 -24 -18 -16 15 62 123 99 138 14 5 25 23 33 51 16 59 15
64 -7 61 -27 -4 -26 24 1 38 19 11 20 18 16 93 -2 45 -8 96 -12 112 -8 33 -44
77 -56 70 -4 -3 -16 8 -25 25 -10 16 -21 30 -24 30 -4 0 -17 -21 -29 -48 -27
-58 -57 -99 -66 -90 -4 4 5 32 19 64 27 59 32 84 17 84 -5 0 -14 -7 -21 -15
-18 -22 -27 -5 -36 62 -8 65 -19 76 -65 63 -18 -6 -37 -10 -41 -10 -13 0 -9
23 8 41 12 13 13 22 5 37 -17 32 -92 91 -107 85 -8 -3 -14 0 -14 7 0 7 -8 10
-20 7 -17 -4 -20 0 -20 23 0 44 -17 45 -60 6 -60 -54 -81 -43 -40 19 21 32 26
55 11 55 -5 0 -39 -26 -77 -58 -38 -31 -84 -68 -102 -80 l-33 -24 7 41 c6 35
4 41 -11 41 -9 0 -28 -9 -42 -20 -53 -42 -57 -20 -8 52 19 29 32 54 30 57 -10
9 -75 -64 -96 -106 -18 -37 -25 -43 -52 -43 -44 0 -61 -13 -53 -38 6 -17 0
-24 -26 -38 -18 -9 -43 -28 -55 -43 -14 -17 -22 -21 -23 -11 0 11 -3 11 -12 2
-19 -19 -28 -14 -28 14 0 42 -25 22 -28 -23 -3 -39 -40 -93 -63 -93 -12 0 -11
14 2 27 7 7 9 25 5 48 l-7 36 -40 -35 c-21 -20 -48 -36 -60 -36 -11 0 -32 -9
-46 -20 -37 -29 -63 -27 -35 3 12 13 22 27 22 31 0 5 -44 6 -97 3 -71 -3 -111
-11 -146 -26 -47 -22 -112 -25 -112 -6 0 6 20 16 45 23 78 23 74 22 62 34 -9
9 -26 9 -70 0 -87 -18 -111 -16 -105 8 4 15 15 20 59 22 30 2 55 8 56 13 2 19
-62 47 -122 52 -46 5 -58 9 -50 18 13 16 -1 22 -70 31 -79 10 -68 22 24 25 46
2 88 8 93 13 14 14 -78 85 -137 105 -47 17 -51 20 -25 21 26 0 28 2 14 13 -9
7 -14 17 -12 24 5 13 -28 33 -72 43 l-30 7 30 13 30 12 -25 10 c-14 5 -54 16
-90 23 l-65 13 69 1 c93 1 76 18 -35 35 -46 7 -100 21 -119 29 l-35 16 41 1
c22 0 45 -5 51 -11 13 -13 123 -8 124 6 1 10 -25 17 -104 30 -48 8 -44 26 9
41 l39 11 -40 11 c-22 6 -67 16 -100 22 -33 7 -91 27 -130 45 -38 18 -78 35
-88 38 -18 7 -34 34 -24 43 3 3 35 -4 72 -15 79 -25 216 -40 200 -23 -6 6 -55
23 -109 37 -124 32 -154 49 -73 41 36 -4 57 -2 57 4 0 6 10 14 22 19 19 7 15
12 -43 42 l-64 34 -3 65 c-2 35 -8 67 -13 71 -6 3 2 14 16 23 21 14 24 20 14
32 -6 8 -17 14 -23 14 -25 0 -86 22 -86 30 0 6 12 10 28 10 30 0 60 15 50 25
-3 4 -30 17 -60 29 -66 27 -128 65 -128 77 0 9 14 11 85 13 57 1 57 17 2 47
-73 39 -76 45 -32 70 34 21 36 24 20 33 -38 23 -76 60 -90 87 -18 33 -19 66
-4 71 17 6 3 40 -36 90 -40 49 -41 56 -18 73 18 13 18 14 -32 81 -6 9 -4 29 8
61 22 63 22 71 -7 79 -16 4 -29 17 -35 37 -13 34 -8 42 22 42 27 0 27 9 1 153
-14 83 -15 110 -6 134 8 22 8 36 1 50 -7 14 -7 23 1 33 9 10 7 20 -5 39 -17
26 -17 26 9 26 40 0 32 25 -26 80 -28 27 -49 52 -47 55 3 3 20 0 38 -6 18 -6
34 -9 37 -6 3 2 -27 41 -65 85 -39 45 -77 95 -86 111 -15 30 -20 61 -9 61 3 0
36 -27 72 -60 37 -33 72 -60 79 -60 24 0 13 27 -28 74 -46 52 -46 76 1 76 16
0 30 2 30 5 0 3 -11 27 -24 53 -45 88 -43 138 6 154 13 5 5 43 -28 147 -6 19
-4 23 8 19 8 -4 21 -2 28 2 11 7 10 18 -4 64 -23 74 -19 100 17 104 38 5 57
50 57 136 0 46 5 69 16 81 18 18 44 96 44 132 0 13 -6 23 -14 23 -14 0 -26 29
-26 65 0 17 3 15 19 -9 24 -35 47 -50 56 -36 11 18 8 163 -4 193 -6 16 -11 42
-11 58 0 25 4 29 26 29 24 0 26 2 20 34 -6 31 -5 33 18 29 18 -4 29 2 41 20
13 21 15 41 10 114 -5 63 -4 84 4 73 6 -8 11 -44 12 -80 3 -137 27 -158 36
-31 3 37 11 71 18 77 8 5 21 38 30 73 16 62 16 64 -4 78 -14 9 -21 25 -21 46
l0 32 20 -32 c21 -36 44 -43 54 -17 12 30 6 138 -10 190 -19 58 -14 84 16 84
16 0 20 7 20 31 0 22 4 30 13 26 8 -3 20 -1 27 3 12 7 12 22 1 87 -7 43 -15
86 -17 96 -3 9 -1 17 4 17 5 0 19 -26 31 -58 25 -69 40 -92 48 -74 2 6 13 12
24 12 24 0 24 17 -1 75 -22 51 -26 89 -9 83 6 -2 17 -21 24 -41 7 -21 25 -55
39 -76 14 -20 26 -50 26 -67 1 -16 7 -63 15 -104 8 -41 21 -120 29 -175 7 -55
25 -129 40 -164 19 -48 23 -67 15 -78 -9 -10 -5 -21 13 -45 14 -18 39 -61 57
-96 17 -34 36 -60 41 -57 11 7 40 -47 40 -75 0 -43 67 -142 217 -323 84 -101
105 -139 128 -228 33 -134 47 -148 119 -122 45 17 47 17 67 -3 13 -13 23 -41
28 -75 10 -78 14 -83 77 -75 51 6 53 5 86 -32 18 -22 45 -46 59 -56 25 -16 27
-15 65 12 45 33 111 105 157 171 l30 44 -6 179 c-7 185 -13 215 -58 270 -23
28 -20 54 7 65 24 9 109 -15 182 -51 l62 -30 21 21 22 21 -29 57 c-36 71 -109
162 -153 192 -19 13 -78 37 -132 53 -214 66 -286 118 -319 229 -11 36 -36 100
-55 141 -38 78 -64 213 -51 264 9 35 183 134 251 142 28 3 86 23 130 44 186
91 239 109 351 124 121 16 172 32 249 76 34 19 66 30 92 30 31 0 45 7 69 31
34 36 74 59 103 59 11 0 57 25 102 56 46 32 125 74 179 94 165 65 311 161 426
281 64 67 365 466 413 547 15 26 42 86 60 132 40 104 47 113 72 99 10 -5 19
-14 19 -20 0 -6 9 -22 19 -36 11 -13 23 -45 27 -71 7 -41 9 -44 15 -22 4 14 7
42 8 62 1 37 21 66 21 31 0 -27 63 -153 91 -183 37 -40 77 -148 94 -257 8 -54
23 -119 32 -145 15 -42 15 -62 3 -205 -10 -127 -10 -185 -1 -286 15 -156 30
-218 83 -329 39 -83 45 -90 130 -154 54 -40 101 -68 120 -70 17 -2 83 -33 147
-68 138 -77 251 -124 335 -139 33 -5 68 -16 76 -23 31 -25 100 -36 256 -39
l161 -3 114 -66 c119 -70 228 -111 263 -100 84 25 125 157 72 234 -13 19 -52
52 -87 73 -100 59 -129 90 -129 137 0 48 93 122 210 165 101 37 277 131 290
155 5 10 10 30 10 44 0 21 -7 27 -42 36 -24 6 -74 23 -113 38 -41 16 -86 26
-110 25 -22 -1 -105 -24 -185 -51 -216 -75 -334 -105 -375 -98 -84 16 -286
118 -330 166 -18 20 -20 34 -18 122 3 107 34 339 57 425 8 29 25 65 38 81 13
15 58 104 100 197 90 201 112 248 138 295 11 19 20 52 20 72 0 20 25 149 56
285 31 136 61 280 68 318 11 66 13 70 39 73 15 2 57 -6 92 -18 35 -12 95 -26
132 -31 73 -10 131 -41 159 -84 12 -19 18 -63 23 -187 4 -92 12 -172 19 -185
17 -31 16 -35 -23 -86 -21 -28 -48 -50 -69 -57 -35 -11 -53 -6 -138 38 -15 7
-8 -39 12 -77 31 -61 100 -114 201 -155 108 -43 180 -47 259 -16 28 11 59 20
69 20 33 0 135 58 193 110 70 62 103 126 128 251 26 122 25 168 -4 259 -23 71
-45 169 -81 360 -21 110 -49 171 -113 244 -29 33 -52 67 -52 77 0 10 -29 51
-65 91 -36 39 -65 77 -65 84 0 6 -7 14 -15 17 -8 4 -21 21 -28 40 -16 37 -60
77 -86 77 -21 0 -41 19 -41 39 0 8 -11 26 -23 40 -13 15 -31 47 -41 73 -9 25
-24 52 -32 58 -33 29 5 43 42 16 17 -13 22 -12 52 17 l32 31 0 -33 c0 -19 -5
-51 -12 -72 -8 -27 -8 -46 -1 -61 10 -23 11 -22 29 11 29 54 60 81 91 81 16 0
38 7 50 15 12 8 28 12 36 9 8 -3 29 2 46 10 60 31 127 11 153 -46 9 -18 18
-58 22 -89 7 -63 73 -264 113 -343 38 -75 311 -474 353 -516 21 -21 50 -40 65
-44 16 -4 53 -25 83 -47 30 -21 62 -39 70 -39 8 0 23 -11 33 -25 11 -13 79
-63 152 -111 84 -55 166 -120 227 -179 52 -50 114 -106 137 -124 65 -50 171
-101 208 -101 30 0 38 -6 67 -51 36 -54 108 -109 144 -109 12 0 46 -17 75 -37
l54 -38 315 0 c217 0 337 4 385 13 94 18 197 64 270 121 66 51 81 53 242 36
83 -9 184 7 232 36 32 19 42 49 17 49 -7 0 -25 15 -40 34 -15 20 -54 48 -93
67 -57 29 -69 39 -71 62 l-3 28 33 -21 c18 -11 49 -20 68 -20 42 0 240 44 269
60 32 17 37 57 12 91 -12 16 -19 34 -16 39 3 5 32 17 63 26 77 22 169 74 181
102 28 60 5 108 -77 161 -84 54 -132 65 -369 91 -46 4 -116 18 -157 30 l-74
22 -109 -47 c-145 -65 -197 -101 -267 -184 -32 -39 -78 -89 -102 -111 -38 -35
-50 -40 -90 -40 -39 0 -61 9 -138 57 -206 129 -316 240 -435 436 -27 46 -67
103 -89 127 -21 25 -42 57 -45 72 -4 14 -32 55 -62 91 -30 35 -62 83 -70 106
-8 23 -34 68 -59 99 -24 31 -58 85 -75 119 -18 37 -43 70 -63 83 -51 35 -98
90 -98 115 0 13 -5 47 -12 75 -10 42 -9 53 2 60 7 4 19 6 27 3 18 -7 17 46 -2
67 -30 33 -27 115 4 96 6 -4 20 -25 31 -47 20 -39 40 -52 40 -25 0 7 -17 51
-39 97 -21 46 -41 95 -44 109 -5 24 -5 24 8 5 38 -55 44 -61 45 -43 0 9 -9 37
-20 62 -17 42 -18 49 -5 80 8 20 15 51 15 69 0 19 9 69 20 112 24 94 24 95 5
95 -17 0 -20 16 -5 25 7 4 5 14 -5 28 -21 31 -20 61 3 52 31 -12 37 -10 36 13
0 17 5 22 23 22 29 0 29 5 -2 42 -28 33 -32 58 -10 58 11 0 14 7 9 25 -5 19
-2 25 10 25 15 0 15 3 1 30 -8 16 -15 34 -15 40 0 16 30 12 36 -5 12 -30 24
-14 24 33 0 30 7 58 20 77 11 17 20 36 20 44 0 8 10 25 22 39 l23 23 -23 39
c-27 48 -28 60 -1 53 20 -6 20 -5 5 32 -18 43 -14 55 14 48 24 -6 24 -3 5 44
-21 49 -20 66 5 58 17 -5 16 0 -11 52 -37 72 -49 133 -26 133 9 0 21 9 27 20
9 16 3 37 -25 104 -20 46 -37 91 -39 99 -1 9 -9 24 -18 34 -23 27 -48 79 -48
103 0 12 10 25 25 32 13 6 29 24 34 40 6 15 17 31 26 34 9 4 15 19 15 42 l0
35 24 -22 24 -23 12 37 c12 35 13 36 31 19 16 -14 22 -15 32 -5 9 10 8 14 -5
22 -25 14 -22 34 5 52 13 9 30 29 37 46 14 35 27 39 46 14 12 -16 13 -12 14
32 0 66 31 119 65 113 38 -8 53 7 31 31 -10 11 -16 27 -14 36 3 15 6 14 31 -5
31 -25 32 -22 12 27 -23 54 -20 64 11 52 36 -13 42 -4 16 24 -29 31 -28 65 1
78 21 10 24 17 22 68 -1 35 -8 67 -19 84 -20 29 -10 35 26 16 31 -17 33 -3 4
31 -25 30 -34 60 -19 60 4 0 20 -12 35 -27 35 -33 35 -21 3 49 -14 29 -25 63
-25 76 l0 23 26 -20 c15 -12 31 -21 37 -21 14 0 2 92 -18 130 l-16 31 34 -6
c24 -5 37 -2 46 9 20 24 56 19 88 -12 36 -36 122 -87 131 -77 4 3 -7 16 -23
28 -17 12 -50 41 -75 65 l-45 43 54 -6 c51 -7 53 -6 46 14 -8 27 0 26 69 -4
31 -14 63 -25 71 -25 25 0 17 35 -15 65 -41 40 -39 55 9 55 64 0 101 11 101
30 0 17 -31 50 -65 68 -19 10 -18 11 8 23 15 7 27 18 27 26 0 17 4 17 50 -7
59 -30 83 -26 42 8 -18 15 -32 31 -32 36 0 4 20 5 45 2 38 -6 45 -5 45 10 0
12 6 15 23 10 12 -4 36 -9 52 -13 l30 -6 -23 26 c-28 30 -23 59 14 83 22 15
27 15 75 -11 28 -14 53 -24 56 -22 2 3 -16 24 -41 48 -25 23 -46 46 -46 50 0
5 20 -1 45 -13 24 -12 48 -19 51 -15 4 4 5 8 3 10 -45 31 -99 82 -99 94 0 16
20 15 100 -2 l25 -6 -25 18 c-49 36 -62 54 -57 80 4 23 -2 28 -69 59 -41 19
-74 36 -74 39 0 3 84 -18 194 -51 27 -7 51 -12 53 -11 2 2 -27 18 -64 35 -73
34 -196 66 -224 59 -22 -6 -49 10 -49 29 0 18 46 14 200 -16 49 -9 87 -13 84
-9 -6 10 -105 41 -187 60 -32 7 -60 16 -64 21 -7 12 66 2 172 -23 88 -21 115
-23 115 -11 0 12 -66 37 -152 57 -40 10 -82 21 -93 26 -19 8 -19 8 3 15 26 8
29 21 5 27 -10 3 37 5 105 6 67 0 122 5 122 10 0 4 -19 13 -42 19 -24 7 -63
17 -88 23 l-45 12 35 10 c35 11 35 11 7 15 -15 2 -41 -4 -59 -12 -35 -18 -78
-21 -78 -6 0 6 -38 10 -92 11 -78 1 -87 3 -53 10 22 5 93 11 158 15 78 4 117
10 114 17 -5 15 -40 24 -121 32 -65 6 -67 8 -45 21 13 7 32 17 41 20 40 14 0
24 -102 24 -62 0 -111 4 -115 10 -3 6 -24 10 -46 10 -23 0 -38 4 -34 9 3 6
-16 11 -42 13 l-48 3 65 22 65 23 -49 -5 c-40 -4 -272 -75 -360 -111 -14 -5
-17 -4 -12 5 4 6 83 50 174 96 163 82 176 102 32 48 -96 -36 -104 -38 -96 -24
4 6 43 32 86 56 92 54 128 87 65 60 -53 -22 -115 -58 -204 -119 -113 -79 -125
-86 -138 -86 -7 0 -2 15 12 36 45 66 27 85 -31 34 -19 -16 -48 -37 -64 -45
-28 -14 -31 -14 -36 0 -4 10 6 33 23 58 41 58 46 67 34 67 -5 0 -39 -35 -75
-79 -58 -70 -69 -78 -97 -76 -45 3 -64 28 -62 78 1 42 1 43 -28 39 -20 -3 -29
0 -29 10 0 8 -11 24 -25 36 -14 12 -25 28 -25 36 0 8 -20 24 -43 34 -24 11
-60 36 -80 55 -30 31 -37 34 -47 22 -25 -31 -60 -5 -60 44 0 16 -6 21 -28 21
-33 0 -103 33 -115 55 -4 9 -22 15 -41 15 -23 0 -38 7 -50 23 -15 22 -16 22
-32 2 -11 -14 -18 -16 -21 -7 -9 23 -40 33 -68 20 -22 -10 -28 -9 -36 3 -8 12
-10 12 -18 0 -7 -11 -13 -11 -32 3 -13 9 -30 16 -38 16 -7 0 -20 8 -27 18 -8
10 -13 12 -14 5 0 -18 -20 -16 -20 2 0 8 -4 15 -10 15 -5 0 -10 -13 -10 -30 0
-41 -16 -38 -62 12 -21 23 -38 36 -38 30 0 -18 -28 -14 -39 6 -9 14 -10 11
-11 -16 0 -48 -20 -36 -37 21 -14 48 -33 63 -33 27 0 -23 -4 -24 -31 -10 -13
7 -19 7 -19 0 0 -5 -11 -10 -25 -10 -22 0 -25 -3 -19 -24 5 -20 2 -25 -18 -28
-12 -2 -27 -13 -33 -25 -13 -30 -16 -29 -40 10 -21 33 -60 44 -60 17 0 -8 6
-14 13 -13 13 3 16 -16 6 -42 -6 -14 -10 -13 -30 12 -19 23 -23 25 -24 10 0
-31 -25 -13 -28 21 -3 34 -19 43 -28 17 -4 -8 -12 -15 -20 -15 -7 0 -18 -9
-24 -20 -15 -28 -78 -43 -106 -25 -27 18 -35 10 -23 -22 23 -62 0 -86 -28 -28
-15 32 -47 54 -60 41 -3 -3 7 -22 22 -41 36 -49 24 -56 -26 -15 l-41 33 7 -32
c7 -35 -13 -45 -22 -11 -4 14 -14 20 -35 20 l-30 0 27 -31 c29 -35 27 -46 -4
-29 -14 7 -21 7 -21 0 0 -5 -11 -10 -24 -10 -14 0 -27 -4 -30 -9 -3 -5 -15 -7
-26 -4 -16 4 -19 2 -14 -11 9 -22 -13 -46 -42 -46 -20 0 -24 5 -24 28 0 31
-25 72 -44 72 -7 0 -21 10 -32 22 -10 11 -59 52 -109 90 -49 37 -102 78 -117
90 -41 33 -42 17 -2 -30 l36 -42 -26 0 c-15 0 -51 21 -93 55 -72 58 -78 61
-88 44z"/>
</g>
</svg>
