<?xml version="1.0" standalone="no"?>
<!DOCTYPE svg PUBLIC "-//W3C//DTD SVG 20010904//EN"
 "http://www.w3.org/TR/2001/REC-SVG-20010904/DTD/svg10.dtd">
<svg version="1.0" xmlns="http://www.w3.org/2000/svg"
 width="1536.000000pt" height="1418.000000pt" viewBox="0 0 1536.000000 1418.000000"
 preserveAspectRatio="xMidYMid meet">
<metadata>
Created by potrace 1.16, written by Peter Selinger 2001-2019
</metadata>
<g transform="translate(0.000000,1418.000000) scale(0.100000,-0.100000)"
fill="#000000" stroke="none">
<path d="M8367 13045 c-108 -18 -270 -71 -391 -129 -217 -105 -353 -234 -442
-421 -96 -202 -123 -457 -83 -800 12 -104 61 -342 160 -774 38 -168 68 -308
67 -313 -2 -4 -31 5 -65 21 -104 50 -345 139 -470 175 -467 134 -926 155
-1353 60 -614 -137 -1161 -492 -1799 -1167 -771 -817 -1298 -1750 -1595 -2825
-138 -499 -219 -999 -260 -1607 -17 -245 -34 -313 -99 -402 -49 -66 -84 -96
-287 -248 -497 -372 -844 -692 -997 -920 -300 -448 -179 -951 299 -1235 177
-106 331 -151 773 -230 127 -22 259 -50 295 -62 189 -60 325 -170 399 -319 72
-146 84 -262 57 -564 -8 -82 -12 -152 -10 -154 3 -3 46 3 97 12 66 13 119 31
187 65 89 44 100 47 175 47 70 0 86 -3 130 -29 27 -16 70 -48 95 -71 63 -57
211 -162 262 -185 51 -23 116 -25 161 -6 18 7 58 39 89 69 46 44 68 57 108 66
67 14 60 17 110 -30 112 -102 215 -115 444 -55 72 19 150 37 173 41 23 4 60
20 82 35 49 36 181 205 181 231 0 26 -33 89 -58 112 -12 11 -94 34 -218 63
-249 56 -401 81 -574 94 -166 12 -227 27 -355 90 -318 156 -574 481 -610 774
l-8 58 41 -21 c120 -61 283 -82 632 -79 173 1 276 -2 320 -11 36 -7 164 -46
285 -86 239 -80 415 -122 770 -185 645 -114 781 -144 1063 -235 388 -124 694
-179 1152 -205 119 -7 624 -10 1425 -8 1169 3 1242 4 1280 21 93 42 143 122
152 243 7 90 -12 149 -63 193 -68 60 -80 61 -744 71 -726 11 -1484 36 -2160
69 -170 9 -178 10 -265 46 -49 21 -92 39 -94 41 -6 5 80 133 168 248 483 640
1071 1044 1746 1201 224 52 310 52 417 2 88 -41 679 -617 872 -849 141 -170
173 -216 230 -333 84 -169 138 -353 195 -661 16 -88 36 -176 44 -195 25 -60
66 -97 151 -138 72 -34 88 -46 118 -93 20 -29 48 -82 63 -118 59 -143 116
-211 198 -235 66 -20 103 -19 217 5 111 24 309 39 575 44 218 4 243 10 299 80
31 38 126 198 126 211 0 3 -60 35 -133 71 -108 52 -157 69 -251 90 -275 58
-546 212 -711 404 -100 117 -178 284 -209 450 -9 45 -32 231 -51 413 -20 183
-47 404 -61 492 -30 188 -27 253 15 341 52 107 138 175 323 250 147 60 200 87
242 124 90 79 90 200 -1 296 -15 17 -60 49 -100 72 -39 23 -84 55 -100 70 -39
39 -79 117 -98 187 -15 59 -15 59 14 120 80 171 447 804 530 916 69 91 165
144 301 167 36 7 182 18 325 27 773 45 1488 137 1704 218 244 92 380 268 406
527 26 251 -214 966 -503 1505 -360 671 -792 1227 -1518 1951 -458 458 -460
461 -543 879 -22 110 -79 432 -126 715 -47 283 -92 551 -101 595 -20 106 -114
536 -120 555 -3 9 -35 -43 -78 -125 -52 -102 -143 -242 -334 -517 -510 -737
-654 -918 -765 -968 -149 -68 -288 50 -417 355 -78 184 -117 250 -290 486
-226 307 -302 401 -435 537 -124 129 -200 189 -297 238 -143 72 -327 97 -501
69z m-6657 -9261 c83 -418 110 -468 385 -696 66 -55 121 -103 123 -108 5 -15
-78 -40 -169 -51 -284 -34 -700 109 -783 269 -21 41 -33 127 -25 188 8 66 58
142 263 398 135 169 160 197 167 180 4 -12 21 -92 39 -180z"/>
</g>
</svg>
