<?xml version="1.0" standalone="no"?>
<!DOCTYPE svg PUBLIC "-//W3C//DTD SVG 20010904//EN"
 "http://www.w3.org/TR/2001/REC-SVG-20010904/DTD/svg10.dtd">
<svg version="1.0" xmlns="http://www.w3.org/2000/svg"
 width="1536.000000pt" height="588.000000pt" viewBox="0 0 1536.000000 588.000000"
 preserveAspectRatio="xMidYMid meet">
<metadata>
Created by potrace 1.16, written by Peter Selinger 2001-2019
</metadata>
<g transform="translate(0.000000,588.000000) scale(0.100000,-0.100000)"
fill="#000000" stroke="none">
<path d="M10098 5762 c-48 -65 -90 -125 -93 -134 -5 -13 -46 -16 -298 -21
-399 -8 -708 -43 -1152 -132 -121 -24 -220 -43 -220 -42 0 1 -13 38 -28 82
-16 44 -36 104 -45 132 -9 29 -20 53 -25 53 -11 0 1 -42 39 -135 18 -45 34
-94 36 -110 3 -27 0 -29 -57 -46 -33 -10 -161 -41 -285 -69 -124 -28 -248 -57
-276 -64 l-52 -14 -5 28 c-3 15 -4 36 -2 46 9 47 13 154 6 154 -5 0 -12 -51
-16 -114 l-7 -115 -116 -41 c-360 -128 -594 -176 -914 -187 l-176 -6 -22 44
c-31 60 -72 120 -78 115 -3 -3 14 -34 37 -69 22 -35 41 -66 41 -70 0 -11 -783
-8 -980 3 -96 6 -213 17 -260 26 -172 31 -487 116 -649 175 -235 85 -253 89
-483 89 -108 0 -220 5 -248 11 -93 20 -170 98 -215 220 -13 35 -24 56 -24 47
-1 -10 11 -47 25 -83 15 -36 24 -68 21 -71 -3 -3 -18 1 -34 9 -56 29 -110 39
-245 46 l-137 6 38 55 c46 68 95 150 88 150 -3 0 -32 -42 -65 -92 -86 -135
-82 -132 -221 -136 -67 -2 -214 5 -342 17 -354 32 -388 33 -489 22 -52 -6
-106 -14 -119 -18 -23 -6 -24 -5 -18 38 4 24 9 62 12 84 5 34 4 37 -6 21 -6
-10 -14 -47 -17 -82 -6 -76 9 -70 -214 -82 -173 -8 -162 -26 -86 146 27 62 48
118 46 124 -4 10 -64 -117 -112 -235 -13 -32 -26 -43 -87 -72 -134 -64 -297
-83 -376 -43 -37 18 -41 14 -16 -14 16 -17 13 -22 -58 -88 l-74 -69 -33 32
c-19 18 -70 79 -114 136 -84 108 -147 175 -182 193 -12 5 5 -14 36 -44 31 -29
99 -108 152 -174 52 -67 105 -129 117 -137 l21 -16 -22 -72 c-12 -40 -31 -97
-42 -126 l-20 -53 -41 25 c-66 41 -187 101 -335 167 -75 33 -161 71 -189 84
-29 13 -53 20 -53 16 0 -5 98 -52 218 -105 250 -112 387 -187 386 -211 0 -9
-1 -55 -2 -103 l-2 -86 -32 44 c-76 106 -194 201 -333 271 -77 39 -205 82
-275 92 -25 4 -57 9 -72 12 -16 3 -28 1 -28 -4 0 -5 27 -12 59 -16 160 -18
373 -111 500 -218 67 -57 178 -185 168 -194 -4 -5 -137 38 -312 100 -71 26
-179 60 -240 77 -121 32 -273 50 -261 31 4 -7 20 -12 35 -12 71 0 218 -38 486
-127 160 -52 296 -97 303 -99 18 -5 15 -43 -11 -108 -32 -84 -40 -86 -120 -33
-80 53 -193 92 -306 106 -79 10 -191 5 -191 -8 0 -3 51 -6 113 -7 130 -1 206
-18 315 -71 91 -45 101 -58 36 -50 -382 50 -523 45 -686 -25 -70 -30 -58 -40
13 -11 91 37 182 53 306 53 122 0 431 -35 450 -52 20 -16 15 -51 -10 -89 -22
-32 -26 -34 -102 -41 -91 -9 -128 -16 -363 -69 -96 -22 -220 -47 -275 -55
-113 -17 -133 -24 -66 -24 44 0 197 30 459 89 128 29 309 55 318 46 2 -2 0
-10 -4 -17 -5 -7 -25 -51 -44 -98 l-35 -85 -80 -6 c-85 -7 -175 -28 -258 -60
-84 -32 -227 -102 -227 -110 0 -4 42 12 93 35 160 75 336 126 433 126 39 0 38
2 19 -70 -8 -30 -15 -75 -15 -100 l0 -45 48 -1 c26 -1 63 -8 82 -16 l35 -15
-105 -51 c-154 -76 -257 -103 -415 -109 -92 -3 -150 -1 -198 9 -37 8 -67 11
-67 7 0 -16 120 -34 230 -33 176 0 313 36 493 128 85 44 105 59 119 89 26 53
51 55 133 10 64 -35 70 -41 73 -74 3 -34 2 -35 -35 -36 -54 -1 -163 -15 -163
-21 0 -10 93 -167 142 -239 27 -40 75 -102 108 -137 l60 -64 -127 -76 c-70
-42 -121 -76 -112 -76 9 0 69 32 133 71 113 68 118 70 152 59 19 -7 60 -35 90
-63 l54 -52 -107 -125 c-59 -69 -158 -181 -220 -249 -62 -68 -110 -127 -107
-130 3 -3 20 10 37 30 18 19 76 84 129 143 54 58 138 156 189 216 100 121 97
120 156 58 60 -62 59 -75 -9 -154 -33 -38 -80 -100 -105 -139 -25 -38 -77
-105 -115 -148 -39 -43 -68 -80 -66 -83 8 -7 122 118 170 186 23 33 48 60 55
60 7 0 42 12 78 27 36 14 67 24 71 21 3 -3 -4 -57 -15 -119 -12 -62 -21 -133
-21 -157 0 -40 2 -43 23 -37 44 13 176 99 288 187 62 50 124 98 137 106 30 19
121 21 218 3 l72 -12 11 -75 c32 -217 -2 -483 -94 -727 -19 -50 -32 -93 -30
-96 7 -7 10 -2 43 84 92 243 130 520 99 719 l-13 89 90 -7 c50 -4 92 -9 94
-11 2 -2 8 -39 14 -82 11 -89 -1 -221 -32 -349 -17 -72 -18 -96 -5 -82 3 3 15
47 27 99 18 75 22 126 22 252 l1 157 50 0 c28 0 120 -11 205 -26 85 -14 193
-28 240 -31 79 -6 88 -9 134 -46 64 -50 129 -82 316 -157 83 -33 178 -74 209
-90 l58 -29 22 -103 c12 -56 24 -128 28 -160 3 -32 10 -58 15 -58 12 0 2 88
-23 202 -28 127 -33 118 70 118 l88 0 31 -49 c62 -101 177 -157 451 -221 91
-21 195 -49 231 -62 65 -24 65 -24 63 -61 -5 -90 -92 -183 -202 -218 -93 -30
-249 -35 -454 -15 -225 21 -229 21 -279 -14 -24 -16 -98 -50 -166 -75 -68 -25
-135 -52 -150 -60 -24 -13 -25 -14 -6 -15 12 0 27 -6 33 -13 18 -22 -24 -50
-122 -82 -49 -16 -91 -33 -94 -38 -8 -14 5 -21 19 -10 21 17 146 58 154 51 10
-11 -34 -66 -79 -97 -44 -30 -96 -81 -83 -81 4 0 28 16 53 35 64 48 156 48
103 0 -11 -10 -25 -35 -30 -55 -9 -35 -12 -37 -54 -38 -25 -1 -55 -6 -68 -12
-16 -6 -1 -7 50 -3 69 6 72 5 72 -16 0 -33 37 -64 68 -56 15 3 94 38 175 77
132 64 155 72 221 76 l74 5 4 -99 c3 -107 27 -176 61 -182 11 -2 51 30 114 93
121 120 137 129 198 113 36 -10 60 -9 117 1 139 26 182 26 234 0 29 -13 49
-18 51 -12 2 5 9 18 16 27 12 16 19 17 75 6 102 -20 220 -8 297 29 66 33 132
97 165 160 l17 34 7 -36 c13 -70 21 -44 23 71 2 189 45 336 123 425 36 41 50
44 106 21 20 -9 55 -14 76 -12 37 3 39 2 48 -32 18 -69 30 -166 30 -247 0 -56
4 -83 12 -83 8 0 9 30 5 109 -6 95 -11 136 -32 228 -8 33 21 36 121 14 49 -11
101 -17 115 -14 29 5 27 11 54 -164 4 -24 11 -43 17 -43 5 0 7 8 4 18 -3 9
-10 49 -16 88 -5 40 -14 83 -19 97 l-10 26 37 -16 c27 -11 54 -14 99 -9 l62 6
31 -45 c17 -25 51 -89 74 -142 l43 -97 -19 -85 c-63 -284 -184 -513 -373 -707
-97 -99 -142 -123 -360 -192 -125 -40 -172 -60 -214 -91 -90 -68 -165 -84
-469 -101 -294 -16 -399 -52 -455 -158 -16 -29 -26 -60 -23 -68 11 -29 72 -44
180 -44 140 0 151 -5 86 -41 -71 -39 -136 -93 -167 -140 l-25 -38 28 -25 c17
-14 37 -23 49 -21 11 3 49 9 85 15 36 6 171 34 300 61 129 28 279 59 332 68
l97 18 -29 -36 c-80 -102 -47 -223 66 -238 63 -8 118 13 184 70 34 29 89 76
123 105 34 29 89 66 121 82 50 25 71 30 136 30 67 0 82 -4 121 -29 24 -15 79
-64 121 -108 104 -108 103 -107 127 -93 30 16 50 60 72 163 24 108 37 132 77
140 19 4 44 23 68 53 60 72 95 104 113 104 9 0 32 -11 51 -25 18 -13 37 -22
43 -18 5 3 -7 16 -27 28 -50 30 -49 26 -32 92 21 79 30 218 18 269 l-9 41 101
128 c101 128 186 210 194 185 3 -7 -1 -44 -7 -81 -9 -48 -10 -73 -2 -86 10
-17 10 -17 11 2 1 11 7 70 14 130 l12 110 52 65 c29 36 127 175 217 310 90
135 173 255 183 267 l19 22 62 -25 c116 -47 295 -74 488 -74 67 0 124 -4 128
-9 3 -5 15 -81 26 -168 12 -87 25 -165 30 -173 13 -23 11 10 -5 126 -8 54 -18
126 -22 158 l-7 59 304 -6 c167 -3 312 -9 322 -12 24 -10 22 -17 -27 -130 -49
-114 -61 -155 -46 -155 5 0 10 7 10 16 0 9 20 62 44 118 24 55 47 115 51 131
6 27 8 28 15 10 4 -11 10 -65 14 -120 4 -55 11 -104 16 -109 11 -11 3 170 -10
220 l-8 32 97 6 c120 8 634 27 636 24 1 -2 9 -32 19 -67 9 -35 23 -73 31 -85
20 -27 19 -21 -6 71 -20 71 -20 78 -5 89 28 20 180 53 396 84 113 16 235 38
272 48 37 11 71 16 77 13 5 -4 20 -29 32 -56 29 -67 37 -39 9 31 -13 30 -21
56 -19 57 2 2 36 16 74 32 110 45 195 89 405 210 204 118 307 172 313 164 2
-2 23 -33 47 -69 68 -102 121 -172 127 -167 2 3 -20 38 -50 79 -53 72 -117
170 -117 180 0 3 32 25 70 48 46 28 87 44 117 48 34 4 64 18 118 57 105 75
164 98 255 99 72 0 79 -2 184 -57 84 -43 120 -57 153 -57 49 0 78 -21 458
-323 116 -92 263 -205 327 -250 l117 -82 0 -56 c1 -65 23 -134 53 -166 l20
-22 -20 -26 c-11 -14 -24 -40 -27 -56 -6 -24 -17 -35 -52 -51 -131 -58 -327
-59 -657 -4 l-199 33 -41 -23 c-41 -23 -156 -47 -286 -59 -36 -4 -87 -13 -115
-20 -48 -14 -52 -18 -114 -115 -35 -56 -84 -122 -110 -148 -30 -30 -36 -41
-19 -29 35 22 38 21 38 -3 0 -11 -11 -27 -25 -36 -14 -9 -25 -23 -25 -30 0
-19 49 6 170 85 107 71 175 96 233 87 22 -4 44 -9 48 -11 4 -3 -6 -32 -23 -65
-52 -100 -50 -248 3 -296 33 -30 54 -9 191 186 39 54 68 84 108 108 73 43 86
42 102 -10 l13 -43 5 40 c5 38 7 40 44 43 75 6 166 -48 166 -99 0 -26 -43 -72
-132 -141 -43 -34 -84 -71 -90 -82 -7 -13 4 -7 31 17 23 21 48 36 54 34 13 -4
14 -46 3 -117 -11 -70 -2 -76 83 -57 117 27 215 87 286 177 32 40 45 49 79 54
23 3 96 13 163 22 135 18 199 14 235 -17 20 -17 21 -20 7 -29 -9 -5 -27 -19
-40 -30 -23 -20 -23 -21 -2 -15 30 8 39 -13 48 -110 5 -53 10 -73 15 -60 11
30 30 41 78 49 121 18 178 86 237 281 15 50 29 92 31 94 1 2 26 -13 54 -34 28
-21 53 -35 56 -32 3 2 -18 21 -46 41 -37 27 -50 42 -50 61 0 32 39 109 102
203 78 116 98 166 98 248 0 134 -47 227 -243 482 -130 168 -264 359 -256 366
2 2 58 -7 124 -20 154 -31 302 -46 340 -36 23 7 2 10 -85 15 -63 4 -176 20
-251 35 l-137 28 -40 50 c-22 28 -84 100 -137 160 -142 159 -216 253 -238 303
-17 38 -19 60 -14 155 5 114 13 150 73 342 l34 112 68 -28 c160 -68 372 -79
522 -27 80 27 175 76 166 85 -3 3 -28 -7 -56 -22 -171 -93 -376 -107 -582 -39
-113 37 -114 39 -94 101 22 66 85 125 158 147 29 9 118 20 198 25 80 5 210 19
290 30 226 34 347 19 520 -61 152 -71 251 -142 379 -272 272 -276 421 -645
421 -1044 0 -86 -2 -96 -35 -155 -18 -35 -37 -82 -41 -106 -6 -39 -4 -45 28
-75 79 -74 219 -75 293 -2 51 52 58 94 50 311 -7 181 -3 254 14 254 4 0 20
-27 36 -60 16 -34 35 -66 42 -72 7 -6 -11 41 -41 103 -54 113 -75 167 -201
518 -36 101 -83 218 -103 261 l-38 79 62 -35 c33 -19 69 -34 79 -34 10 0 -8
13 -41 30 -92 46 -170 116 -290 261 -126 152 -205 229 -282 278 l-53 34 28 12
c29 13 329 45 416 45 26 0 47 5 47 10 0 14 -72 12 -225 -5 -71 -8 -186 -15
-255 -15 l-125 0 -43 35 c-79 62 -214 99 -405 111 -56 4 -108 10 -116 14 -17
9 98 78 174 106 52 18 78 34 56 34 -22 0 -157 -60 -207 -92 -47 -30 -54 -32
-159 -34 -72 -1 -146 -9 -215 -24 -145 -32 -217 -30 -380 13 -74 20 -163 39
-197 43 -35 4 -61 10 -58 14 2 4 50 37 105 74 55 36 100 71 100 76 0 11 -168
-97 -207 -133 -20 -18 -31 -19 -104 -14 -45 4 -84 9 -87 12 -3 3 2 19 12 35
21 36 5 40 -18 5 -9 -14 -23 -25 -32 -25 -37 0 -196 96 -214 130 -9 16 -4 23
37 46 165 93 293 188 293 216 0 5 -27 -15 -60 -45 -33 -29 -112 -84 -176 -120
l-117 -66 -29 17 c-16 9 -131 90 -256 180 -125 89 -261 184 -302 209 -41 25
-77 48 -79 49 -8 6 50 74 131 152 45 45 80 83 78 86 -6 5 -154 -135 -195 -186
l-30 -36 -250 119 c-137 66 -253 123 -257 127 -4 4 5 27 20 52 28 45 57 128
49 136 -2 3 -10 -10 -17 -28 -47 -122 -63 -148 -87 -148 -30 0 -273 58 -292
69 -11 7 -11 28 -3 117 10 99 9 125 -2 113 -2 -2 -8 -52 -14 -112 -5 -59 -11
-109 -13 -112 -3 -2 -79 12 -169 31 -211 44 -323 62 -455 73 -58 4 -108 10
-111 14 -7 7 17 45 91 142 76 99 100 135 89 135 -5 -1 -48 -54 -96 -118z
m4342 -1507 c0 -11 -49 -24 -69 -18 -37 9 -23 23 24 23 25 0 45 -2 45 -5z
m-12841 -1166 c23 -19 24 -21 9 -52 -13 -27 -30 -38 -87 -62 -39 -15 -74 -26
-77 -22 -6 5 116 156 126 156 3 0 16 -9 29 -20z m78 -44 c2 -6 -10 -16 -27
-22 -31 -11 -35 -7 -24 22 7 17 45 17 51 0z m108 -61 c62 -20 93 -25 137 -21
l58 5 -103 -82 c-151 -122 -299 -217 -314 -202 -9 9 39 280 54 304 18 30 66
29 168 -4z m4567 -859 c29 -86 18 -204 -25 -266 -16 -22 -17 -21 -63 77 -25
54 -60 119 -79 145 -32 45 -32 46 -9 41 13 -2 36 4 51 14 48 31 78 44 93 42 8
-2 23 -26 32 -53z"/>
</g>
</svg>
