<?xml version="1.0" standalone="no"?>
<!DOCTYPE svg PUBLIC "-//W3C//DTD SVG 20010904//EN"
 "http://www.w3.org/TR/2001/REC-SVG-20010904/DTD/svg10.dtd">
<svg version="1.0" xmlns="http://www.w3.org/2000/svg"
 width="731.000000pt" height="1536.000000pt" viewBox="0 0 731.000000 1536.000000"
 preserveAspectRatio="xMidYMid meet">
<metadata>
Created by potrace 1.16, written by Peter Selinger 2001-2019
</metadata>
<g transform="translate(0.000000,1536.000000) scale(0.100000,-0.100000)"
fill="#000000" stroke="none">
<path d="M973 15345 c-43 -30 -113 -265 -113 -380 0 -56 -17 -102 -39 -108
-14 -3 -17 -11 -14 -31 5 -22 2 -26 -17 -26 -19 0 -22 -4 -17 -25 3 -18 -2
-30 -15 -40 -11 -7 -18 -19 -16 -27 3 -7 -6 -26 -18 -41 -21 -24 -24 -39 -24
-103 0 -102 16 -199 51 -300 23 -70 38 -96 82 -143 43 -47 59 -76 85 -147 18
-49 44 -106 58 -126 30 -42 104 -83 135 -75 53 14 62 -19 28 -107 -24 -66 -89
-141 -175 -202 -35 -25 -74 -58 -88 -74 -23 -28 -67 -146 -81 -220 -15 -72
-56 -188 -77 -215 -12 -15 -67 -57 -122 -92 -56 -36 -114 -78 -131 -93 -16
-15 -54 -43 -84 -63 -103 -68 -159 -190 -149 -321 8 -89 30 -124 96 -149 46
-17 57 -27 75 -64 22 -45 97 -101 183 -138 70 -30 414 -113 680 -165 367 -71
427 -91 497 -169 82 -91 102 -169 102 -411 0 -159 -4 -198 -23 -275 -28 -112
-87 -235 -142 -297 -57 -65 -154 -112 -231 -113 -52 0 -63 4 -126 47 -112 77
-145 88 -285 94 -144 6 -171 -2 -176 -54 -2 -17 -8 -32 -13 -32 -23 0 -102
-45 -116 -67 -19 -29 -53 -164 -53 -211 l0 -33 26 20 c15 11 30 18 35 15 11
-6 22 20 44 98 8 32 23 61 33 66 27 15 120 24 126 13 4 -5 -14 -24 -39 -41
-105 -72 -155 -148 -154 -235 0 -49 17 -113 18 -72 1 14 4 15 20 5 17 -10 23
-9 40 6 16 15 21 31 21 72 0 50 2 54 53 99 68 63 94 78 112 71 27 -10 16 -38
-30 -78 -56 -49 -70 -76 -85 -157 -6 -34 -13 -68 -16 -74 -2 -7 10 -18 27 -26
40 -18 76 -2 85 36 26 119 50 160 111 192 56 29 111 -2 149 -83 33 -70 31
-117 -4 -157 -27 -30 -34 -32 -118 -38 l-89 -6 -3 -33 c-3 -29 0 -34 35 -48
59 -25 199 -15 261 20 171 95 428 196 498 196 25 0 122 12 217 26 135 20 198
25 289 22 65 -2 120 -7 123 -10 15 -15 -41 -103 -143 -225 -53 -65 -70 -66
-197 -22 -76 27 -99 31 -153 26 -72 -5 -111 -28 -126 -70 -6 -15 -8 -29 -5
-31 3 -3 47 -14 99 -26 100 -22 120 -32 120 -60 0 -26 -19 -30 -138 -30 -65
-1 -116 -6 -129 -13 -51 -28 -170 -147 -197 -196 -26 -50 -27 -53 -11 -77 36
-56 78 -44 163 47 37 39 79 77 94 85 30 15 128 19 128 5 0 -5 -30 -27 -67 -49
-96 -57 -138 -92 -215 -180 -71 -81 -80 -105 -50 -142 27 -34 50 -21 167 90
73 69 115 102 142 109 83 23 84 8 2 -44 -50 -33 -65 -49 -88 -100 -40 -85 -64
-161 -56 -184 9 -30 61 -44 96 -26 16 9 29 19 29 24 0 19 85 113 141 155 101
76 123 53 37 -36 -56 -57 -110 -150 -101 -173 8 -22 64 -36 100 -26 59 17 90
43 113 92 21 48 67 93 160 156 60 41 103 88 191 208 133 180 184 215 294 200
217 -29 317 -24 452 20 75 25 87 33 145 95 35 37 73 79 85 93 25 32 73 38 73
10 0 -10 -15 -43 -34 -74 -74 -122 -104 -259 -86 -390 19 -136 30 -161 200
-454 111 -191 209 -389 239 -483 22 -68 22 -70 7 -191 -29 -216 -67 -256 -340
-347 -97 -33 -162 -63 -257 -120 -160 -94 -271 -143 -357 -156 -129 -19 -141
-25 -223 -107 -117 -116 -161 -227 -107 -265 12 -9 30 -16 38 -16 19 0 61 43
121 124 24 32 45 54 47 48 7 -21 -107 -231 -137 -253 -38 -28 -61 -85 -61
-152 1 -44 2 -49 12 -32 17 30 17 30 34 7 19 -27 55 -28 78 -3 10 11 33 61 52
112 50 132 56 141 134 209 118 101 167 70 70 -45 -121 -143 -119 -229 7 -366
63 -68 102 -82 72 -27 -9 16 -7 24 11 43 l22 23 -36 56 c-20 31 -36 68 -36 81
0 40 111 202 130 190 4 -3 5 -42 3 -87 l-6 -83 41 -51 c22 -28 47 -65 56 -82
15 -29 60 -62 86 -62 6 0 8 10 5 23 -4 15 -1 28 9 36 26 21 19 56 -24 123 -50
80 -52 117 -9 161 18 17 38 50 46 72 20 59 66 110 126 139 61 30 204 69 224
62 19 -8 16 -71 -6 -115 -11 -20 -45 -59 -75 -85 -31 -26 -56 -56 -56 -65 0
-31 33 -51 83 -51 44 0 51 4 121 71 82 77 112 128 126 211 18 115 44 148 212
274 156 116 150 105 142 252 -8 147 -8 147 108 71 81 -53 98 -79 98 -151 0
-14 14 -98 31 -185 39 -203 37 -271 -11 -362 -43 -79 -157 -203 -213 -230 -61
-30 -147 -36 -242 -18 -101 19 -168 10 -236 -34 -87 -55 -113 -110 -63 -129
42 -16 71 -12 127 20 66 37 79 37 119 1 l32 -28 -13 -58 c-19 -85 -54 -117
-182 -169 -59 -24 -123 -56 -143 -71 -40 -31 -111 -125 -143 -190 -33 -66 -38
-127 -9 -98 4 4 23 8 43 10 26 1 47 12 74 39 21 21 41 36 43 33 2 -2 -20 -44
-50 -94 -74 -123 -80 -145 -56 -220 19 -59 19 -60 30 -32 6 15 16 27 22 27 17
0 67 87 90 154 27 83 58 132 73 117 8 -8 8 -42 -2 -133 -25 -241 -25 -234 0
-252 32 -22 53 -20 85 8 27 22 28 27 31 137 2 63 9 130 15 149 13 43 47 100
59 100 5 0 9 -81 9 -189 0 -105 4 -192 9 -195 5 -3 14 1 21 9 7 9 21 13 30 10
12 -4 25 3 39 21 33 42 42 90 30 163 -6 35 -9 85 -6 112 12 98 28 131 107 214
42 44 117 128 168 187 112 129 197 208 277 255 128 75 251 190 286 266 26 59
24 95 -12 189 -18 44 -38 104 -45 132 -14 52 -19 182 -8 210 15 39 122 2 344
-118 304 -166 371 -192 599 -236 149 -28 156 -31 193 -67 113 -110 191 -324
237 -648 101 -717 11 -2026 -210 -3025 -118 -533 -215 -787 -452 -1180 -392
-650 -1030 -1299 -1749 -1782 -327 -219 -814 -401 -1278 -477 -222 -37 -321
-45 -560 -45 -495 0 -807 86 -1158 319 -423 280 -635 600 -682 1029 -31 280
76 610 264 815 130 140 375 246 596 258 125 7 225 -10 380 -62 109 -37 158
-43 178 -23 21 21 13 45 -29 83 -55 49 -138 86 -274 121 -103 27 -123 29 -295
28 -168 0 -194 -3 -284 -27 -194 -52 -348 -145 -487 -295 -158 -171 -242 -375
-284 -690 -91 -692 273 -1291 1000 -1642 470 -226 1011 -292 1595 -194 778
130 1602 548 2338 1187 269 234 608 593 802 852 437 583 706 1377 849 2507 48
375 77 690 131 1423 66 902 110 1310 174 1620 14 66 72 325 130 575 182 791
238 1109 266 1525 52 789 -111 1464 -496 2041 -105 158 -179 248 -301 364
-126 120 -254 212 -414 294 -213 110 -357 161 -873 306 -465 131 -692 242
-899 439 -44 42 -94 99 -113 128 -23 36 -50 61 -90 85 -32 18 -59 38 -61 45
-2 6 41 61 95 121 137 152 137 153 127 327 -14 233 -14 236 40 365 45 107 49
121 48 195 -2 181 -112 453 -251 621 -59 72 -131 124 -171 124 -15 0 -53 -18
-86 -41 -33 -22 -134 -84 -225 -138 -175 -105 -263 -166 -337 -234 -100 -92
-189 -236 -237 -383 -50 -154 -88 -191 -224 -219 -141 -30 -211 -20 -402 61
-145 61 -475 37 -700 -51 -76 -30 -112 -17 -197 72 -67 70 -75 75 -105 70 -18
-3 -40 -8 -48 -11 -15 -6 -77 83 -201 287 -112 183 -132 346 -70 552 38 129
35 152 -28 185 -48 24 -79 25 -108 5z"/>
</g>
</svg>
