<?xml version="1.0" standalone="no"?>
<!DOCTYPE svg PUBLIC "-//W3C//DTD SVG 20010904//EN"
 "http://www.w3.org/TR/2001/REC-SVG-20010904/DTD/svg10.dtd">
<svg version="1.0" xmlns="http://www.w3.org/2000/svg"
 width="785.000000pt" height="1536.000000pt" viewBox="0 0 785.000000 1536.000000"
 preserveAspectRatio="xMidYMid meet">
<metadata>
Created by potrace 1.16, written by Peter Selinger 2001-2019
</metadata>
<g transform="translate(0.000000,1536.000000) scale(0.100000,-0.100000)"
fill="#000000" stroke="none">
<path d="M4891 15336 c-1 -27 -2 -28 -14 -12 -12 16 -14 16 -24 -6 -6 -13 -14
-31 -17 -42 -4 -10 -12 -16 -20 -13 -19 7 -46 -24 -47 -54 l0 -24 -11 25 -11
25 -6 -23 c-6 -23 -6 -23 -29 7 -26 36 -42 40 -42 10 0 -20 -2 -20 -22 -7 -13
8 -29 26 -35 39 l-13 24 0 -24 c0 -23 -1 -23 -19 -7 -18 17 -19 17 -24 -1 -3
-14 -8 -10 -20 18 -20 45 -39 54 -57 26 -12 -21 -12 -21 5 -7 17 14 18 13 13
-8 -4 -12 -2 -20 3 -16 5 3 9 -12 9 -33 l-1 -38 -29 35 c-20 24 -30 46 -30 71
0 27 -4 36 -17 36 -10 0 -21 -5 -25 -11 -4 -6 -15 -11 -25 -11 -15 0 -18 -8
-16 -55 l2 -55 -15 43 c-17 46 -34 56 -34 19 0 -13 -7 -32 -16 -43 -8 -10 -12
-12 -8 -4 7 13 5 13 -8 2 -13 -10 -17 -10 -20 0 -4 11 -8 11 -21 0 -14 -12
-17 -8 -28 28 -8 27 -15 37 -21 28 -5 -9 -8 -5 -9 12 0 23 -1 23 -9 5 -8 -18
-9 -18 -10 5 -1 24 -1 24 -15 6 -9 -12 -12 -29 -8 -45 4 -21 3 -24 -8 -13 -7
6 -20 12 -28 11 -11 0 -12 -2 -3 -6 15 -6 16 -49 2 -58 -6 -4 -17 -2 -24 4
-16 13 -27 4 -19 -15 3 -8 1 -14 -4 -14 -6 0 -15 -12 -22 -27 l-13 -28 -18 23
c-13 15 -20 18 -23 10 -4 -10 -6 -10 -6 0 -1 10 -5 10 -17 -2 -12 -12 -20 -13
-35 -6 -10 6 -19 8 -19 4 0 -3 -8 0 -17 7 -12 10 -15 11 -9 1 6 -10 1 -11 -20
-6 -19 5 -25 4 -20 -5 5 -7 0 -10 -11 -9 -10 1 -42 -1 -71 -6 -44 -7 -51 -10
-41 -22 14 -17 -2 -19 -20 -1 -11 10 -11 8 -1 -13 12 -24 12 -24 -6 -9 -12 10
-34 15 -61 13 -29 -2 -43 2 -47 12 -3 8 -10 14 -16 14 -7 0 -7 -7 1 -22 l12
-23 -23 20 -23 20 8 -25 c7 -21 6 -23 -7 -12 -12 10 -18 8 -32 -7 -17 -19 -60
-23 -83 -8 -7 5 -13 4 -13 -1 0 -14 -49 -9 -55 6 -2 6 -9 12 -15 12 -6 0 -8
-4 -5 -10 3 -5 -3 -10 -15 -10 -11 0 -23 -6 -26 -14 -5 -13 -54 -20 -54 -7 0
4 -9 7 -20 7 -11 0 -20 -7 -20 -15 0 -12 -3 -12 -12 -3 -17 17 -29 15 -22 -3
5 -12 0 -14 -24 -9 -27 6 -31 4 -29 -15 1 -11 4 -21 7 -21 4 0 7 -7 7 -15 0
-9 -6 -14 -14 -11 -7 3 -13 1 -13 -4 0 -5 -7 -7 -17 -3 -13 5 -15 2 -10 -16 4
-18 2 -21 -14 -16 -20 7 -27 -9 -9 -20 15 -9 12 -25 -5 -25 -14 0 -19 -14 -18
-47 1 -7 -5 -13 -13 -13 -8 0 -14 -7 -14 -15 0 -8 -7 -15 -15 -15 -14 0 -41
-38 -37 -53 1 -4 -10 -4 -25 -1 -25 7 -27 6 -14 -9 12 -15 10 -17 -15 -17 -22
0 -25 -3 -16 -12 16 -16 15 -31 0 -22 -10 5 -10 4 -2 -5 17 -18 5 -51 -18 -51
-10 0 -18 -6 -16 -13 3 -15 -37 -57 -54 -57 -9 0 -8 4 2 10 11 7 12 10 2 10
-14 0 -102 -89 -102 -103 0 -5 -8 -7 -17 -5 -10 2 -22 -5 -28 -17 -7 -12 -19
-19 -30 -17 -18 2 -20 -3 -17 -48 3 -43 2 -49 -12 -44 -9 4 -16 1 -16 -6 0 -8
-9 -10 -24 -6 -20 5 -23 3 -19 -13 4 -16 0 -18 -23 -13 -22 4 -26 2 -21 -12 5
-12 1 -16 -14 -16 -14 0 -19 -5 -16 -14 4 -9 -8 -19 -35 -30 -35 -13 -39 -18
-28 -31 10 -12 9 -16 -6 -22 -11 -4 -36 -23 -56 -43 -20 -19 -89 -61 -152 -92
-69 -35 -135 -77 -168 -107 -29 -26 -78 -64 -108 -83 -67 -43 -86 -64 -94
-103 -12 -55 -42 -91 -138 -163 -182 -136 -215 -173 -244 -272 -10 -33 -31
-65 -71 -107 -32 -32 -67 -77 -78 -99 -11 -21 -38 -68 -59 -103 -22 -34 -63
-115 -91 -180 -29 -64 -78 -154 -110 -200 -71 -106 -129 -220 -170 -337 -18
-50 -42 -101 -54 -113 -11 -11 -21 -30 -21 -41 0 -25 -39 -100 -52 -100 -5 0
-6 5 -3 10 3 6 2 10 -4 10 -5 0 -8 -26 -6 -64 3 -50 0 -66 -11 -70 -9 -3 -13
-9 -10 -14 7 -12 -6 -26 -36 -39 -20 -9 -28 -20 -28 -38 0 -16 6 -25 15 -25 8
0 15 -4 15 -10 0 -5 -4 -10 -10 -10 -5 0 -10 -9 -10 -21 0 -12 -8 -23 -20 -26
-21 -5 -28 -23 -10 -23 7 0 7 -7 0 -20 -6 -12 -10 -29 -8 -39 4 -21 -19 -51
-38 -51 -17 0 -17 -1 -4 -36 8 -20 7 -31 -4 -43 -8 -9 -26 -45 -41 -81 -15
-36 -32 -71 -37 -78 -11 -12 -18 -61 -22 -137 -1 -22 -5 -46 -9 -53 -5 -6 -4
-12 1 -12 5 0 7 -11 4 -25 -3 -18 1 -30 13 -39 13 -9 15 -15 7 -20 -7 -4 -12
-16 -12 -27 0 -11 -7 -22 -16 -26 -8 -3 -13 -12 -10 -20 3 -8 -1 -21 -9 -30
-8 -8 -13 -18 -10 -23 3 -5 1 -11 -5 -15 -5 -3 -10 -15 -10 -25 0 -10 -8 -24
-17 -29 -16 -9 -16 -10 -2 -11 32 0 26 -25 -12 -49 -21 -14 -43 -38 -49 -54
-9 -27 -8 -28 7 -16 17 13 17 12 0 -13 -19 -31 -22 -42 -7 -33 18 11 11 -26
-10 -52 -25 -32 -25 -43 -1 -36 25 6 36 -14 12 -22 -21 -6 -57 -65 -40 -65 12
0 12 -37 0 -45 -5 -3 -11 5 -14 17 -2 13 -3 -2 -3 -32 1 -54 2 -55 29 -53 25
2 26 0 15 -20 -7 -12 -11 -28 -10 -34 2 -7 -3 -10 -11 -7 -10 4 -17 -6 -22
-33 -13 -64 -14 -84 -4 -78 5 4 9 1 9 -5 0 -6 4 -9 9 -6 5 3 14 0 20 -8 9 -10
8 -15 -3 -19 -11 -4 -13 -1 -9 11 6 15 5 16 -12 2 -11 -9 -16 -10 -11 -2 5 8
1 12 -13 12 -21 0 -37 -17 -26 -28 3 -3 10 0 15 8 6 8 10 10 10 4 0 -6 -10
-19 -23 -27 -17 -13 -19 -18 -8 -25 7 -5 9 -11 3 -13 -5 -2 -12 -43 -16 -91
-5 -79 -4 -88 12 -88 11 0 13 -3 5 -8 -14 -9 -33 -56 -33 -83 0 -11 4 -18 9
-15 5 3 3 -11 -5 -32 -16 -46 -19 -293 -3 -309 8 -8 8 -13 0 -17 -7 -5 -11
-56 -11 -142 0 -111 -3 -139 -17 -161 -17 -26 -17 -27 2 -19 18 6 18 5 -3 -17
-23 -25 -30 -43 -11 -31 7 4 10 1 7 -7 -3 -8 -1 -24 3 -36 5 -14 4 -23 -4 -26
-8 -3 -7 -10 6 -24 9 -11 14 -23 10 -26 -3 -4 -1 -7 5 -7 7 0 11 -3 11 -7 -4
-22 3 -24 21 -8 15 14 23 16 32 7 9 -9 5 -14 -13 -20 -13 -5 -24 -17 -24 -27
0 -10 -6 -20 -13 -22 -7 -3 -10 1 -6 10 3 8 -2 17 -11 21 -19 7 -39 -35 -21
-46 6 -4 7 -8 3 -8 -5 0 -1 -7 7 -16 9 -9 28 -31 42 -50 l26 -33 -11 -105
c-10 -87 -9 -116 4 -178 9 -43 15 -131 16 -213 1 -77 4 -153 8 -169 5 -24 -1
-159 -13 -298 -2 -21 -9 -45 -16 -53 -10 -12 -10 -19 -2 -27 12 -12 42 -7 107
16 20 7 20 7 1 -8 -21 -17 -30 -63 -17 -81 5 -5 9 -24 9 -42 1 -31 -1 -32 -31
-28 -27 4 -28 3 -7 -3 17 -5 21 -10 12 -16 -19 -12 -14 -28 7 -21 17 5 18 1
16 -37 -1 -24 -6 -58 -10 -77 -7 -30 -6 -33 8 -28 29 11 18 -12 -13 -28 -33
-17 -42 -51 -11 -42 15 3 17 0 13 -16 -4 -14 -2 -18 7 -13 9 6 9 2 -1 -13 -7
-12 -23 -24 -35 -27 -20 -5 -22 -12 -21 -69 1 -45 -4 -74 -19 -101 -11 -22
-18 -45 -15 -53 3 -8 -3 -20 -14 -28 -10 -7 -14 -13 -9 -13 5 0 17 8 28 18 19
17 20 16 8 -6 -7 -13 -10 -34 -7 -46 4 -16 -2 -26 -24 -41 -30 -20 -57 -76
-46 -94 4 -5 2 -12 -3 -15 -11 -7 -11 -56 1 -56 5 0 6 -5 3 -10 -9 -14 19 -12
34 3 10 10 11 8 5 -8 -10 -26 -26 -41 -50 -49 -10 -3 0 -4 24 -2 l44 4 -41
-30 c-41 -30 -54 -58 -26 -58 8 0 15 -4 15 -10 0 -5 -11 -10 -25 -10 -16 0
-25 -6 -25 -16 0 -12 6 -15 23 -11 22 6 22 6 1 -11 -11 -9 -20 -20 -21 -25 -1
-4 -4 -40 -8 -80 -3 -39 -8 -84 -11 -99 -4 -22 -2 -27 9 -22 12 4 14 0 10 -17
-4 -14 0 -26 11 -35 16 -11 16 -14 -5 -33 -12 -11 -19 -24 -14 -28 4 -5 10 -2
12 5 3 6 9 10 13 7 5 -3 7 -12 4 -20 -4 -10 -14 -13 -32 -8 -17 4 -23 2 -18
-6 4 -6 14 -11 22 -11 8 0 20 -11 26 -25 9 -20 8 -28 -6 -44 -10 -11 -15 -24
-12 -30 4 -6 3 -19 -3 -29 -6 -11 -6 -24 0 -33 6 -10 9 -10 9 -1 0 6 9 12 20
12 29 0 25 -11 -17 -48 -21 -18 -32 -31 -25 -27 19 10 14 -6 -10 -32 -19 -21
-20 -23 -4 -23 15 0 16 -3 6 -15 -10 -12 -10 -15 3 -15 8 0 18 6 20 13 3 6 6
1 6 -13 0 -14 -10 -44 -23 -66 -25 -44 -23 -63 6 -58 22 3 22 0 2 -20 -14 -15
-14 -16 0 -16 9 0 16 -5 16 -10 0 -15 -29 -71 -48 -93 -23 -26 -23 -47 -1 -47
29 0 23 -20 -11 -33 -16 -6 -32 -17 -34 -24 -6 -15 10 -18 19 -3 3 6 11 10 16
10 6 0 7 -5 3 -11 -4 -7 -1 -10 7 -7 13 4 39 -13 39 -26 0 -3 -12 -18 -26 -33
-23 -25 -24 -28 -8 -32 26 -5 58 -38 45 -46 -17 -10 -13 -38 3 -32 16 6 30
-19 20 -34 -7 -11 -15 -55 -15 -81 0 -10 -10 -25 -22 -33 -15 -11 -18 -18 -10
-26 8 -8 13 -8 17 0 4 6 14 11 22 11 12 0 11 -7 -6 -40 -11 -21 -20 -47 -20
-57 0 -14 -2 -15 -9 -5 -6 10 -10 7 -15 -11 -3 -14 -9 -33 -12 -44 -6 -15 -4
-16 7 -5 21 20 30 14 12 -8 -10 -11 -23 -20 -30 -20 -7 0 -13 -9 -13 -20 0
-24 18 -27 27 -5 3 9 19 23 35 31 l30 16 -7 -34 c-4 -18 -14 -42 -21 -53 -19
-26 -19 -92 -1 -77 10 9 12 3 9 -26 -3 -20 -12 -42 -21 -49 -9 -7 -11 -13 -5
-13 7 0 15 -12 19 -27 l7 -28 24 28 25 29 -6 -32 c-3 -20 -2 -29 4 -25 7 4 9
-13 7 -45 -2 -28 1 -68 8 -88 9 -30 15 -36 33 -34 20 3 21 1 11 -36 -6 -25 -6
-52 0 -73 5 -19 8 -48 5 -64 -2 -17 -1 -45 3 -64 4 -27 8 -31 16 -20 7 10 8 5
5 -18 -2 -18 0 -33 5 -33 4 0 8 -25 8 -56 0 -30 4 -53 8 -50 5 3 9 -14 10 -37
1 -23 4 -55 8 -72 7 -36 52 -182 65 -210 11 -26 56 -215 65 -278 3 -26 10 -50
15 -53 5 -3 9 -16 9 -29 0 -13 12 -37 26 -54 14 -17 28 -46 31 -66 3 -19 9
-35 14 -35 7 0 25 -46 33 -86 3 -10 9 -31 14 -45 6 -15 8 -37 5 -48 -3 -14 2
-30 14 -44 21 -24 48 -77 45 -90 -1 -4 4 -6 10 -5 7 2 14 -7 16 -19 2 -13 8
-23 13 -23 5 0 9 -15 9 -33 0 -39 28 -127 41 -127 4 0 6 -7 3 -15 -4 -8 -1
-15 6 -15 7 0 10 -8 7 -20 -3 -13 3 -26 18 -38 18 -14 21 -22 13 -36 -11 -20
-3 -50 12 -41 5 3 10 -2 11 -12 0 -15 2 -14 11 4 15 32 28 29 28 -6 0 -16 7
-34 15 -41 8 -7 13 -15 10 -19 -2 -4 2 -19 9 -32 15 -29 30 -80 28 -92 -3 -13
28 -81 40 -88 7 -4 20 -34 29 -66 23 -78 75 -219 98 -268 29 -63 43 -106 51
-160 4 -27 8 -40 9 -27 1 29 18 62 32 62 6 0 8 -4 4 -9 -3 -5 -1 -12 5 -16 5
-3 10 -19 10 -34 0 -15 4 -31 9 -36 6 -6 12 -23 15 -38 3 -16 11 -36 18 -44 7
-9 12 -18 10 -20 -1 -2 1 -11 6 -19 11 -20 21 -7 24 30 2 24 23 43 32 28 27
-46 45 -84 50 -108 4 -16 20 -50 36 -74 l30 -45 0 38 c0 32 2 36 14 25 8 -7
13 -15 11 -18 -1 -3 4 -18 12 -35 13 -29 13 -28 7 24 -4 38 -3 52 5 47 6 -4
11 -13 11 -21 0 -7 7 -15 15 -19 8 -3 15 -15 15 -27 0 -14 5 -19 14 -16 9 4
20 -6 30 -26 18 -39 66 -105 66 -91 0 5 16 -9 36 -31 29 -32 35 -36 31 -17 -3
12 -1 22 4 22 5 0 12 -13 15 -29 5 -21 10 -28 22 -24 10 4 13 2 8 -5 -4 -7 -4
-13 1 -13 4 -1 17 -3 28 -4 46 -5 72 -21 149 -94 45 -42 126 -110 181 -151 55
-41 127 -102 160 -136 39 -40 88 -75 141 -103 44 -23 105 -64 136 -91 30 -27
82 -65 116 -85 34 -20 81 -53 105 -73 23 -21 71 -49 106 -62 39 -15 71 -36 83
-53 11 -15 45 -41 76 -56 32 -16 83 -49 114 -73 115 -87 144 -107 215 -142 40
-20 95 -56 123 -81 54 -48 70 -54 90 -30 8 10 28 13 73 11 34 -2 67 -5 72 -6
22 -5 35 1 35 15 0 8 4 15 10 15 5 0 9 3 9 8 -5 29 2 40 24 34 12 -3 25 -10
28 -15 4 -5 12 0 18 12 8 14 8 21 1 21 -5 0 -10 5 -10 11 0 6 7 9 15 5 8 -3
15 -1 15 5 0 6 4 8 9 5 5 -3 8 2 7 11 0 10 6 18 14 18 8 0 16 7 16 15 3 32 5
34 14 20 5 -8 10 -25 10 -36 0 -19 39 -43 41 -26 5 44 4 70 -3 84 -13 27 -26
108 -17 108 4 0 11 -9 14 -20 3 -11 11 -20 16 -20 13 0 11 7 -7 35 -9 13 -13
28 -10 33 3 5 -4 16 -15 25 -19 17 -27 43 -9 32 6 -4 9 5 8 19 -1 15 -5 26 -8
26 -17 0 -2 40 18 49 15 7 21 7 17 1 -8 -14 8 -13 22 1 12 12 0 45 -22 61 -6
5 -4 8 4 8 8 0 2 9 -13 21 -14 11 -26 29 -26 40 0 11 -5 17 -10 14 -6 -3 -10
-2 -10 4 0 5 6 12 13 14 9 4 9 6 0 6 -7 1 -17 11 -24 23 -10 18 -9 20 5 15 10
-4 16 -1 16 9 0 9 5 12 13 9 6 -4 -3 6 -22 21 -66 54 -162 158 -157 170 3 7
-5 16 -17 20 -12 3 -32 16 -45 28 -13 11 -29 21 -35 22 -34 3 -38 5 -32 14 3
5 2 10 -4 10 -5 0 -16 6 -23 12 -7 7 -32 26 -56 42 -39 26 -74 61 -42 41 8 -5
11 -3 8 5 -4 12 -17 16 -85 23 -12 1 -21 4 -21 7 2 22 -6 30 -35 35 -25 5 -36
14 -44 36 -6 16 -17 28 -24 27 -7 -2 -18 8 -25 22 -7 14 -26 32 -42 41 -34 17
-31 15 -147 128 -68 67 -92 84 -115 84 -24 0 -27 3 -19 14 10 11 15 11 27 1
12 -10 12 -7 -2 14 -17 26 -61 48 -98 48 -16 0 -17 3 -8 21 7 11 9 23 6 27 -3
3 -6 -1 -6 -9 0 -12 -2 -12 -9 0 -8 13 -12 13 -26 1 -15 -13 -20 -11 -36 9
-11 13 -19 30 -19 38 0 8 -5 11 -12 7 -7 -5 -8 -3 -3 5 7 13 -40 71 -58 71
-11 0 -37 26 -37 38 0 10 -115 80 -178 107 -23 11 -42 22 -42 27 0 4 -6 5 -14
2 -19 -7 -42 32 -23 40 16 6 -31 47 -99 86 -28 16 -54 36 -57 44 -4 9 -12 16
-20 16 -15 0 -45 32 -73 78 -10 18 -22 32 -26 32 -4 0 -8 9 -8 20 0 11 -6 20
-13 20 -7 0 -36 22 -66 50 -29 27 -62 52 -72 55 -11 4 -22 19 -26 36 -3 16 -9
26 -14 23 -5 -3 -9 6 -9 20 0 14 -5 28 -10 31 -6 4 -7 11 -4 17 4 6 3 13 -2
17 -11 7 -36 50 -64 108 -11 23 -24 43 -28 45 -22 10 -63 73 -58 91 3 13 -5
28 -23 46 -18 17 -28 38 -30 61 -2 35 -22 74 -50 98 -9 8 -10 11 -3 7 18 -9
14 16 -9 54 -11 18 -22 47 -24 64 -2 16 -13 39 -24 51 -25 27 -30 67 -11 84
13 10 11 15 -14 36 -16 13 -30 35 -31 50 -2 14 -19 42 -39 63 -37 39 -44 53
-26 53 7 0 7 6 0 19 -5 11 -11 33 -12 48 -1 15 -8 38 -16 50 -7 12 -12 27 -11
35 4 36 -3 70 -19 86 -10 10 -19 34 -20 54 -1 20 -14 57 -27 83 -14 25 -23 51
-19 56 3 5 -7 31 -22 57 -29 50 -31 57 -39 139 -2 29 -12 67 -22 85 -9 18 -18
35 -18 38 -1 3 -6 16 -12 30 -34 79 -93 246 -93 262 0 5 5 6 10 3 13 -8 13 30
1 72 -6 22 -6 33 2 36 6 2 8 11 3 23 -13 31 -17 102 -7 109 7 4 7 15 1 31 -6
14 -10 42 -10 63 0 21 -12 65 -26 97 -36 81 -52 154 -58 262 -4 76 -3 93 8 89
11 -4 13 21 10 136 -3 78 -7 149 -10 157 -3 8 -8 69 -10 134 -2 65 -6 121 -9
124 -3 3 0 10 5 17 10 12 10 15 11 197 0 90 -5 133 -20 183 -19 61 -20 75 -9
207 9 127 13 144 34 167 13 14 24 37 24 51 0 24 19 66 20 45 2 -20 40 111 41
140 1 17 10 54 20 83 11 29 19 62 19 72 0 11 6 20 14 20 8 0 17 11 20 25 4 16
13 25 26 25 13 0 20 7 20 18 0 28 10 32 36 15 16 -10 24 -11 24 -4 0 7 5 9 12
5 6 -4 8 -3 5 2 -3 6 -2 15 2 22 9 15 111 -23 173 -65 138 -94 191 -125 225
-135 21 -5 49 -20 63 -32 33 -30 170 -64 290 -71 53 -3 131 -12 175 -21 101
-19 198 -13 409 28 145 28 163 30 215 18 31 -7 73 -21 93 -31 73 -37 207 -213
277 -364 19 -42 112 -137 219 -225 105 -86 158 -163 252 -362 83 -176 184
-287 283 -308 29 -6 69 -22 89 -36 26 -19 58 -28 115 -35 43 -6 94 -16 113
-24 72 -28 89 -28 120 3 32 32 50 86 50 149 0 23 9 66 21 95 29 73 23 208 -16
328 -32 99 -121 283 -173 355 -47 66 -66 111 -96 230 -14 55 -37 131 -51 168
-14 38 -23 73 -20 78 25 40 280 -51 302 -108 3 -9 1 -24 -6 -34 -9 -16 -8 -19
9 -19 31 0 35 -26 16 -98 -9 -35 -15 -66 -12 -69 2 -3 14 14 26 37 15 29 26
40 36 36 9 -3 18 -6 20 -6 2 0 4 -15 4 -34 0 -31 3 -34 41 -42 36 -8 43 -14
54 -47 7 -22 23 -49 34 -61 12 -12 21 -29 21 -37 0 -11 8 -14 30 -11 25 4 30
0 36 -24 4 -16 18 -39 32 -50 24 -20 25 -24 15 -58 l-11 -36 53 -34 c37 -24
63 -52 86 -91 25 -40 46 -61 75 -75 23 -11 74 -49 115 -85 46 -40 89 -69 114
-76 22 -6 60 -21 85 -34 56 -28 250 -84 480 -140 114 -27 217 -60 295 -92 66
-28 131 -54 145 -58 82 -24 225 -120 301 -202 40 -43 46 -56 58 -123 16 -91
44 -149 111 -229 58 -70 85 -143 95 -261 3 -41 13 -96 21 -122 18 -55 72 -108
110 -108 39 0 80 26 94 60 15 36 8 131 -15 206 -8 27 -15 72 -15 101 0 42 4
55 22 67 26 18 75 21 113 6 43 -16 161 -129 219 -210 30 -41 69 -88 86 -105
38 -36 87 -109 122 -185 33 -69 94 -148 137 -177 43 -29 94 -30 122 -2 19 19
21 30 16 78 -9 94 -50 206 -100 269 -66 85 -102 155 -138 272 -17 57 -56 155
-86 217 -56 115 -72 136 -273 358 -50 55 -114 128 -143 163 -73 87 -194 212
-207 212 -5 0 -10 7 -10 15 0 9 -6 12 -15 9 -10 -4 -15 0 -15 14 0 12 -8 27
-17 34 -38 28 -156 163 -191 216 -19 32 -66 93 -104 136 -37 43 -68 82 -68 86
0 4 9 15 20 25 21 19 28 41 9 30 -6 -4 -13 2 -16 14 -3 12 -10 21 -17 21 -6 0
-18 4 -25 9 -12 8 -11 13 10 30 13 11 19 20 13 21 -6 0 -27 15 -47 34 -28 26
-35 40 -31 60 3 21 1 26 -16 26 -22 0 -27 15 -7 23 6 3 2 6 -10 6 -13 1 -23 7
-23 16 0 8 -11 20 -24 27 -14 7 -25 18 -26 23 -1 6 -8 9 -16 9 -8 -1 -14 2
-14 6 0 4 -14 23 -32 41 -18 19 -33 37 -34 42 -1 4 -3 10 -4 15 -2 4 -3 18 -4
32 -1 14 -6 25 -13 25 -6 0 -15 3 -19 8 -4 4 -3 7 3 7 6 0 -7 17 -28 39 -45
45 -49 60 -14 56 30 -3 33 10 5 25 -11 6 -20 15 -20 20 0 6 9 10 20 10 32 0
23 17 -12 25 -28 7 -29 9 -11 12 20 4 21 6 7 39 -8 19 -12 34 -9 34 3 0 -5 15
-18 33 -14 17 -22 38 -19 46 3 8 0 11 -7 7 -6 -4 -11 -2 -11 3 0 6 7 11 15 11
22 0 18 28 -5 35 -11 3 -20 11 -20 17 0 6 8 7 18 3 41 -16 45 -15 20 5 -16 12
-28 28 -28 36 0 7 -11 21 -25 30 -19 12 -23 20 -15 29 8 10 6 15 -10 20 -15 5
-19 12 -15 27 4 11 1 27 -7 36 -17 20 -21 62 -6 62 6 0 6 6 -2 15 -7 8 -19 15
-27 15 -9 0 -12 6 -9 18 5 14 -1 22 -20 31 -15 6 -24 15 -20 18 3 4 12 1 18
-5 7 -7 21 -12 33 -12 16 0 14 3 -11 19 -38 23 -47 36 -49 73 -2 16 -10 37
-19 47 -21 23 -20 29 7 33 20 3 18 5 -16 27 -29 18 -35 26 -25 32 20 13 47 11
79 -8 15 -9 31 -14 34 -11 17 17 -49 108 -79 108 -10 0 -16 9 -16 25 0 16 6
25 16 25 8 0 12 5 9 10 -3 6 -22 10 -41 10 -19 0 -34 4 -34 8 0 4 16 6 35 4
21 -3 35 0 35 7 0 6 -7 11 -15 11 -8 0 -30 9 -50 20 -20 11 -44 20 -55 20 -24
0 -26 17 -4 41 19 21 4 59 -25 59 -26 0 -32 10 -15 27 10 10 24 12 47 8 l32
-7 -27 22 c-16 12 -28 26 -28 32 0 5 -16 25 -35 44 -20 19 -33 38 -31 43 3 5
-1 14 -9 21 -8 7 -15 20 -15 30 0 10 -9 20 -20 23 -11 3 -20 10 -20 16 0 6 6
8 14 5 12 -4 11 1 -2 30 -9 20 -22 36 -29 36 -7 0 -13 11 -13 24 0 14 -4 28
-10 31 -5 3 -10 14 -10 25 0 10 -7 21 -16 24 -9 3 -14 13 -10 21 3 8 1 17 -4
20 -6 4 -10 19 -10 36 0 16 -4 29 -9 29 -13 0 -33 64 -25 83 3 10 -2 20 -17
27 -14 8 -18 15 -10 19 8 5 5 16 -10 35 -12 15 -19 30 -15 33 5 5 -20 59 -34
73 -3 3 -18 24 -33 47 -16 23 -35 44 -43 47 -8 3 -14 12 -14 20 0 7 -7 17 -16
20 -8 3 -13 10 -9 15 3 5 -4 12 -15 16 -11 3 -20 11 -20 17 0 12 -80 88 -92
88 -5 0 -8 9 -8 21 0 13 -10 23 -30 30 -16 6 -30 15 -30 19 0 11 -91 61 -104
57 -5 -2 -18 5 -29 16 -10 10 -25 16 -32 13 -7 -2 -15 4 -18 15 -3 11 -14 19
-26 19 -16 0 -21 6 -21 26 0 22 2 25 15 14 12 -10 15 -10 15 1 0 8 6 5 15 -7
11 -14 14 -15 9 -2 -7 20 21 28 55 16 17 -6 27 -5 32 4 6 9 12 8 26 -5 18 -15
20 -15 35 -1 15 15 20 15 61 -1 25 -9 50 -14 55 -11 5 3 12 -3 15 -14 3 -10
13 -19 23 -19 11 0 31 -2 46 -5 15 -2 27 -1 27 2 -1 4 0 16 1 27 1 16 4 14 15
-10 l13 -30 5 25 c4 24 5 25 12 3 8 -26 35 -39 35 -18 0 18 21 19 39 3 7 -7
12 -8 11 -3 -5 26 0 37 13 26 10 -8 17 -7 25 1 9 9 15 7 27 -8 14 -18 14 -18
15 0 0 12 5 16 15 13 8 -4 17 -2 20 3 3 5 12 7 21 3 17 -6 54 24 54 45 0 10 7
12 24 8 18 -4 29 -1 39 14 7 11 17 17 21 13 3 -4 13 2 21 13 15 19 15 19 30 0
11 -15 15 -16 19 -5 24 74 24 75 26 49 1 -24 1 -24 15 -6 13 17 15 17 15 3 0
-10 5 -14 14 -11 7 3 16 -2 19 -10 8 -20 27 -21 27 -1 0 23 14 18 38 -15 33
-44 44 -38 40 23 l-3 52 35 0 c51 1 77 -15 90 -56 10 -30 9 -41 -4 -67 -9 -17
-16 -36 -16 -43 0 -6 -18 -29 -39 -50 -27 -28 -44 -57 -57 -99 -16 -53 -21
-60 -43 -60 -59 1 -132 -17 -146 -36 -24 -31 -45 -83 -39 -99 8 -21 27 -19 42
5 15 24 34 27 25 3 -6 -16 -5 -16 17 0 27 19 55 23 45 6 -4 -6 0 -9 11 -7 29
5 20 -41 -26 -132 -55 -109 -80 -213 -79 -324 1 -138 55 -281 75 -199 11 46
78 184 122 252 23 35 44 80 48 100 7 41 92 188 113 196 8 3 34 3 58 -1 36 -5
43 -10 43 -29 0 -30 17 -75 28 -75 4 0 18 21 30 46 16 33 32 49 58 60 43 18
91 68 141 146 48 75 60 79 75 23 7 -24 16 -41 20 -39 5 3 6 14 3 25 -3 10 -8
28 -11 39 -7 26 10 26 47 -1 35 -25 35 -24 4 34 -14 27 -20 49 -14 52 5 4 11
0 13 -7 3 -7 7 -20 9 -28 3 -10 9 -4 17 16 16 46 75 60 89 22 8 -22 8 -21 22
7 18 38 75 57 94 32 6 -9 14 -14 18 -11 3 3 8 -4 12 -15 9 -29 25 -26 25 3 0
13 7 27 16 30 17 6 54 -9 54 -23 0 -5 9 -11 20 -14 12 -3 20 -14 20 -25 0 -12
5 -24 10 -27 6 -3 10 2 10 13 0 43 40 35 63 -14 20 -40 37 -44 37 -9 0 27 17
34 26 11 3 -8 21 -22 41 -31 l35 -17 -36 -34 c-20 -19 -42 -34 -50 -34 -7 0
-16 -9 -19 -21 -5 -17 -11 -20 -36 -14 -26 6 -29 4 -24 -14 8 -32 -14 -51 -58
-51 -36 0 -39 -2 -34 -23 10 -40 -42 -72 -87 -52 -19 8 -25 -9 -8 -20 38 -24
-61 -86 -102 -64 -21 11 -22 6 -7 -24 10 -18 8 -24 -17 -44 -17 -14 -43 -23
-63 -23 -25 0 -32 -4 -27 -15 8 -23 -43 -65 -81 -65 -17 0 -35 -4 -38 -10 -3
-5 -1 -10 4 -10 6 0 11 -5 11 -12 0 -6 -3 -9 -6 -5 -4 3 -13 -1 -21 -9 -9 -8
-29 -18 -45 -21 -16 -3 -32 -11 -34 -18 -3 -7 -23 -18 -45 -25 -21 -7 -39 -17
-39 -22 0 -4 -5 -8 -11 -8 -21 0 -79 -32 -79 -44 0 -6 -9 -29 -20 -51 -11 -22
-20 -44 -20 -50 1 -5 17 -22 37 -38 32 -24 38 -25 46 -12 4 8 7 23 6 33 -5 33
11 61 33 57 12 -3 27 4 38 18 15 18 20 19 33 9 13 -11 16 -10 22 7 4 12 15 21
27 21 14 0 18 5 14 15 -3 8 -1 15 4 15 6 0 10 -7 10 -15 0 -8 4 -15 10 -15 12
0 28 32 23 46 -2 6 8 16 21 22 21 9 27 8 35 -5 8 -14 11 -12 23 17 19 46 45
67 60 52 19 -19 26 -15 44 23 17 36 32 43 51 24 7 -7 14 -2 21 21 17 48 40 66
64 51 17 -11 22 -10 29 1 5 7 9 19 9 26 0 6 5 12 11 12 6 0 22 9 36 19 13 11
31 17 39 14 10 -3 14 2 14 19 0 37 33 62 70 54 18 -3 29 -2 25 3 -3 5 -1 12 5
16 5 3 10 14 10 23 0 9 12 25 25 35 19 14 29 15 45 7 19 -10 24 -6 21 13 -3
18 21 47 39 47 12 0 20 7 20 16 0 9 14 34 31 55 33 42 51 91 42 115 -3 8 -1
14 4 14 5 0 7 18 5 39 -4 35 -8 41 -34 46 -16 4 -32 5 -35 2 -2 -3 -14 4 -25
15 -17 17 -19 24 -9 39 13 21 1 25 -28 9 -27 -14 -76 2 -76 26 0 10 6 18 13
17 7 -2 12 8 12 23 0 16 10 34 25 46 14 11 25 30 25 44 0 39 17 28 24 -16 3
-22 11 -40 17 -40 8 0 9 23 4 78 -6 71 -5 75 9 57 12 -15 15 -16 16 -5 0 13 1
13 10 0 15 -23 12 -2 -5 29 -10 20 -11 37 -5 57 8 28 9 28 15 7 8 -25 13 -27
34 -14 8 5 11 16 6 30 -4 12 -2 28 4 35 6 7 12 34 13 60 2 45 11 59 21 34 3
-7 6 0 6 15 1 16 6 37 12 48 8 16 13 18 25 8 8 -6 14 -18 14 -25 0 -12 4 -12
20 -2 15 9 19 20 15 36 -4 17 -2 22 6 16 12 -7 10 8 -7 51 -7 19 -6 19 12 4
41 -34 47 -30 12 7 -40 42 -47 57 -23 48 11 -5 14 -2 9 12 -7 18 -5 17 17 -1
65 -56 78 -58 28 -6 -20 21 -29 40 -26 52 3 10 -1 23 -8 29 -15 12 -11 60 6
70 13 9 -19 30 -46 30 -12 0 -14 4 -5 19 15 29 13 37 -12 48 l-23 11 28 12
c15 7 27 17 27 21 0 4 -12 9 -27 11 -20 2 -29 9 -31 26 -2 13 -14 27 -26 32
-31 11 -40 47 -15 60 10 6 16 17 13 24 -3 8 -1 17 4 20 12 7 4 46 -9 46 -5 0
-8 -5 -6 -12 1 -6 -6 -14 -15 -16 -11 -2 -18 2 -18 11 0 9 -6 18 -12 20 -7 3
-2 6 12 7 25 1 25 1 5 16 -19 16 -19 16 5 9 l25 -7 -24 26 c-14 14 -27 24 -29
21 -7 -6 -61 67 -62 82 0 7 -10 21 -22 33 -12 11 -16 20 -10 20 7 0 12 5 12
10 0 6 -9 10 -20 10 -21 0 -28 16 -9 22 9 3 9 12 2 34 -8 24 -16 30 -45 32
-35 3 -64 32 -33 32 8 0 15 5 15 10 0 6 -6 10 -14 10 -8 0 -18 -4 -21 -10 -8
-13 -45 -13 -45 0 0 5 8 14 18 20 14 10 13 10 -8 6 -27 -5 -40 13 -54 74 -3
14 -11 33 -19 44 -11 15 -17 17 -35 7 -13 -7 -27 -9 -32 -6 -5 3 -44 -1 -87
-10 -42 -9 -89 -15 -103 -13 -14 1 -31 -1 -38 -6 -16 -10 -45 13 -38 31 3 7 1
13 -4 13 -5 0 -6 17 -3 38 6 32 4 35 -9 25 -19 -16 -30 -6 -18 17 10 19 4 30
-17 30 -20 0 -128 -91 -209 -176 l-70 -75 -61 3 c-34 1 -67 -3 -74 -9 -21 -16
-97 -25 -104 -12 -5 7 -14 5 -28 -4 -20 -13 -22 -12 -23 9 -1 16 10 31 39 51
39 27 39 28 16 31 -18 2 -37 -8 -66 -36 -22 -21 -47 -39 -54 -39 -8 0 -22 -4
-32 -8 -14 -6 -16 -3 -11 11 4 12 -5 7 -25 -14 -19 -19 -31 -27 -31 -18 0 8 7
22 16 30 8 9 11 16 5 16 -5 0 -13 -4 -16 -10 -9 -15 -27 -12 -19 3 4 6 -2 4
-13 -5 -11 -10 -22 -18 -26 -18 -3 0 -3 8 0 18 6 15 5 15 -10 3 -9 -7 -17 -9
-17 -3 0 14 27 35 38 28 4 -2 13 8 19 24 9 24 8 32 -5 42 -13 11 -14 11 -7 -1
6 -11 4 -13 -8 -8 -12 4 -14 2 -10 -10 4 -10 2 -14 -4 -10 -6 4 -16 0 -23 -8
-15 -18 -60 -16 -60 3 0 12 -3 12 -15 2 -8 -6 -18 -9 -24 -6 -5 3 -11 -1 -15
-9 -11 -30 -21 -14 -18 30 4 46 -13 64 -21 23 -3 -18 -5 -17 -6 7 -1 23 -4 26
-11 15 -9 -15 -10 -14 -23 30 -2 10 -9 6 -21 -15 -15 -27 -16 -28 -11 -5 l6
25 -15 -25 c-9 -14 -16 -20 -16 -15 0 6 -5 3 -10 -5 -8 -12 -10 -12 -10 5 -1
16 -4 13 -15 -10 -12 -26 -13 -27 -14 -8 -1 30 -31 59 -42 41 -6 -9 -9 -7 -9
9 0 12 6 23 12 25 8 3 12 21 12 46 -1 23 2 39 6 37 20 -12 27 64 8 83 -9 9 -9
12 0 12 7 0 22 -11 34 -25 29 -34 42 -32 23 5 -18 34 -20 54 -4 44 15 -9 1 36
-18 58 -21 23 -10 46 22 50 l27 3 -23 29 c-19 24 -20 28 -6 23 19 -7 21 -3 7
22 -7 14 -4 30 10 59 11 23 20 46 20 53 0 6 7 9 15 5 11 -4 15 2 15 22 0 20 3
23 10 12 7 -11 11 -9 20 14 7 18 15 26 25 22 8 -3 21 2 30 10 8 9 15 13 15 9
0 -8 62 35 72 50 4 5 6 16 3 23 -3 8 4 16 15 19 11 3 20 9 20 13 0 4 8 7 17 6
12 0 19 7 21 22 2 12 8 20 13 16 5 -3 28 -3 49 1 31 5 40 11 40 26 0 11 5 17
10 14 6 -3 10 -2 10 4 0 6 7 8 15 5 10 -4 15 0 15 16 0 13 4 19 11 14 15 -9
59 16 59 34 0 9 7 13 20 9 17 -4 20 0 20 25 0 16 4 27 9 23 6 -3 14 3 20 12 9
15 12 16 20 4 8 -12 11 -12 23 0 8 8 17 20 19 27 3 8 16 2 38 -20 l33 -32 -15
37 c-9 20 -12 37 -8 37 5 0 11 -7 15 -15 3 -8 13 -15 21 -15 13 0 16 8 13 38
-3 37 -3 37 31 34 32 -4 33 -3 29 28 -5 36 4 46 22 25 18 -22 33 -18 20 4 -14
26 -13 31 4 25 10 -4 13 0 10 13 -4 16 1 19 33 21 20 2 39 5 42 8 2 2 -5 18
-18 34 -18 26 -19 30 -5 30 14 0 15 2 3 17 -12 15 -12 16 2 11 12 -5 16 -2 13
10 -2 9 0 23 5 31 8 12 18 10 63 -12 l53 -27 -42 38 c-52 46 -56 67 -13 59 19
-4 30 -2 30 5 0 10 47 6 109 -9 16 -4 22 -2 17 5 -4 6 -22 14 -40 17 -18 4
-46 17 -62 30 -24 20 -27 25 -15 39 9 11 30 16 65 16 l51 1 -39 20 c-35 19
-37 22 -20 34 11 7 42 13 70 13 28 1 62 6 75 11 22 8 21 10 -18 16 -28 5 -43
13 -46 26 -4 14 -11 17 -24 13 -14 -6 -15 -4 -6 6 6 7 32 15 57 17 37 5 44 8
35 19 -6 7 -16 11 -23 8 -6 -2 -23 7 -36 21 -20 21 -21 25 -6 19 15 -6 17 -3
11 14 -5 19 -2 22 19 22 14 0 28 5 31 10 4 6 3 10 -2 9 -18 -3 -32 2 -47 17
-22 21 -11 34 26 34 30 0 31 0 13 20 -17 19 -17 21 -2 38 10 10 17 24 17 30 0
7 15 12 34 12 47 0 54 16 11 24 -46 9 -52 22 -18 40 l28 15 -27 1 c-33 0 -45
16 -18 25 16 5 18 9 7 25 -9 16 -8 22 7 33 19 14 19 14 0 25 -16 10 -17 13 -4
21 12 8 13 16 3 40 -10 27 -8 32 13 46 13 8 27 15 33 15 8 0 21 23 21 36 0 2
-9 4 -20 4 -23 0 -24 4 -10 31 10 17 7 19 -19 19 -27 0 -29 3 -26 29 2 16 20
53 40 81 l36 51 -31 -16 -31 -16 6 28 c6 27 6 27 -9 9 -14 -17 -16 -17 -16 -4
0 9 5 20 10 23 16 10 12 25 -5 19 -8 -4 -15 -1 -15 4 0 6 10 14 22 18 l21 6
-21 12 c-22 12 -22 12 8 29 42 25 42 49 0 27 -29 -15 -46 -3 -47 35 -1 28 9
46 53 95 30 34 54 62 54 64 0 8 -74 -35 -95 -54 -20 -19 -23 -20 -29 -4 -4 9
0 27 9 40 13 21 13 23 0 18 -24 -10 -17 8 18 44 24 25 27 31 12 26 -16 -6 -18
-5 -7 7 13 14 17 50 5 47 -5 -1 -20 4 -35 12 -22 10 -30 11 -43 0 -23 -19 -18
0 7 27 19 21 20 23 4 23 -17 0 -17 2 -2 28 11 17 6 14 -14 -10 -34 -40 -58
-51 -40 -19 15 29 12 35 -7 15 -17 -17 -18 -16 -27 19 -7 28 -15 37 -35 39
-17 2 -25 8 -23 18 2 8 4 29 4 47 0 18 6 37 14 44 17 14 19 33 2 23 -8 -5 -9
-2 -5 10 4 10 7 21 7 24 0 4 10 -4 21 -18 l20 -25 -7 25 c-4 14 -10 27 -15 30
-4 3 -12 18 -18 33 -9 24 -8 28 19 42 26 13 29 19 20 35 -8 15 -6 21 10 30 18
10 19 13 6 25 -8 8 -18 15 -23 15 -12 -1 -49 -34 -56 -50 -4 -10 -6 -9 -6 6
-1 11 10 31 24 44 19 18 22 26 13 37 -9 11 -14 11 -30 -4 -20 -18 -20 -17 -13
30 l8 49 -24 -14 c-13 -7 -26 -16 -29 -19 -3 -3 -13 -6 -24 -6 -16 0 -14 3 8
20 14 10 23 23 20 29 -4 5 -16 0 -30 -13 -23 -22 -24 -22 -24 -3 0 11 6 26 13
33 10 10 7 16 -12 32 -17 14 -26 16 -31 9 -5 -8 -11 -7 -21 2 -8 8 -22 17 -32
21 -9 4 -20 14 -24 24 -4 9 -14 24 -22 33 -9 9 -25 29 -35 43 -10 15 -25 27
-33 27 -22 0 -26 26 -8 62 l17 33 -25 -28 c-29 -32 -42 -22 -27 19 6 15 9 29
6 31 -2 3 -7 -6 -11 -19 -4 -13 -14 -32 -23 -43 -13 -18 -14 -18 -8 -1 9 27
-12 50 -32 34 -13 -11 -14 -9 -9 12 4 14 4 19 1 12 -3 -6 -10 -10 -15 -6 -9 5
-13 -9 -10 -33 1 -7 -3 -13 -9 -13 -5 0 -10 7 -10 15 0 8 -8 19 -19 24 -10 6
-22 23 -26 38 -12 49 -39 69 -48 36 -4 -14 -5 -13 -6 3 -1 28 -27 38 -41 16
-9 -14 -10 -12 -7 13 2 17 2 24 0 18 -7 -19 -21 -16 -28 7 -7 23 -25 27 -25 5
0 -18 -34 -20 -48 -2 -6 7 -8 24 -5 37 7 25 6 25 -20 7 -23 -15 -27 -15 -27
-2 0 14 -11 19 -37 16 -7 -1 -13 6 -13 16 0 24 -32 43 -61 36 -17 -5 -21 -3
-17 8 7 17 -37 25 -47 9 -10 -16 -25 -12 -25 7 0 14 -2 14 -20 -2 -11 -10 -20
-13 -20 -7 0 7 -9 6 -27 -3 -25 -13 -28 -13 -39 6 -10 20 -12 20 -28 3 -14
-13 -20 -14 -26 -4 -6 9 -10 8 -18 -6 -9 -16 -12 -15 -25 16 -9 19 -16 29 -16
22 -1 -8 -8 -11 -20 -7 -12 3 -21 0 -25 -10 -8 -22 -26 -9 -26 19 0 18 -6 22
-36 23 -26 1 -34 -2 -30 -13 3 -9 -1 -14 -14 -14 -10 0 -22 9 -25 20 -3 11
-14 21 -23 21 -38 4 -67 -1 -71 -12 -2 -6 -13 -1 -27 12 l-23 22 -10 -26 c-10
-25 -24 -29 -49 -13 -9 5 -15 1 -19 -13 -7 -28 -21 -27 -35 4 -12 26 -28 34
-28 14 0 -22 -29 12 -33 39 -4 27 -4 27 -6 -2z m779 -111 c0 -8 -4 -15 -10
-15 -5 0 -10 7 -10 15 0 8 5 15 10 15 6 0 10 -7 10 -15z m-5190 -4025 c8 -5
12 -12 9 -15 -8 -8 -39 5 -39 16 0 11 11 11 30 -1z m19 -44 c9 -10 8 -16 -4
-26 -13 -11 -18 -10 -29 6 -23 31 8 50 33 20z m-173 -895 c27 5 74 -2 74 -12
0 -7 -11 -8 -30 -4 -23 5 -32 3 -36 -10 -6 -16 -8 -16 -16 -1 -6 11 -17 14
-36 10 l-27 -5 24 21 c16 14 27 17 31 10 4 -6 11 -10 16 -9z m-106 -1311 c0
-5 -2 -10 -4 -10 -3 0 -8 5 -11 10 -3 6 -1 10 4 10 6 0 11 -4 11 -10z m3865
-1444 c-13 -10 -15 -15 -6 -20 7 -5 18 0 26 10 10 13 14 15 15 5 0 -7 6 -11
15 -7 8 3 14 0 12 -7 -1 -7 4 -12 11 -12 6 0 13 5 14 10 2 15 25 35 39 35 8 0
7 -6 -4 -18 -20 -22 -22 -46 -4 -39 8 3 20 1 28 -4 11 -8 10 -13 -8 -28 -13
-11 -23 -22 -23 -26 0 -4 7 -1 16 6 15 12 16 11 10 -9 -9 -28 -2 -28 24 0 11
12 20 19 20 15 0 -14 -24 -57 -32 -57 -8 0 -5 -24 9 -74 5 -18 7 -18 24 5 l19
24 -3 -35 c-2 -20 -6 -41 -10 -47 -4 -6 -4 -18 -1 -27 13 -34 -29 -15 -80 37
-37 37 -72 60 -122 80 -80 33 -127 69 -118 91 3 9 10 16 15 16 5 0 9 11 9 25
0 16 4 23 14 19 7 -3 16 2 19 10 4 9 2 16 -3 16 -6 0 -10 5 -10 11 0 5 5 7 10
4 6 -3 10 -1 10 6 0 9 3 9 15 -1 16 -13 55 -5 56 13 0 8 2 8 6 -1 3 -7 -3 -19
-12 -26z m215 -336 c-10 -18 -14 -20 -21 -9 -6 9 -3 18 8 26 22 17 27 10 13
-17z"/>
<path d="M4260 15260 c0 -11 4 -20 9 -20 5 0 7 9 4 20 -3 11 -7 20 -9 20 -2 0
-4 -9 -4 -20z"/>
<path d="M4093 15222 c1 -14 5 -18 11 -12 7 7 6 14 -1 21 -9 9 -12 7 -10 -9z"/>
<path d="M3805 15150 c-3 -6 1 -7 9 -4 18 7 21 14 7 14 -6 0 -13 -4 -16 -10z"/>
<path d="M6620 14423 c0 -4 5 -15 10 -23 8 -13 10 -13 10 2 0 9 -4 20 -10 23
-5 3 -10 3 -10 -2z"/>
<path d="M6616 14294 c-4 -9 -4 -19 -1 -22 2 -3 7 3 11 12 4 9 4 19 1 22 -2 3
-7 -3 -11 -12z"/>
<path d="M6800 14125 c-7 -9 -11 -17 -9 -20 3 -2 10 5 17 15 14 24 10 26 -8 5z"/>
<path d="M6898 13053 c7 -3 16 -2 19 1 4 3 -2 6 -13 5 -11 0 -14 -3 -6 -6z"/>
<path d="M5670 11085 c0 -8 5 -15 10 -15 6 0 10 7 10 15 0 8 -4 15 -10 15 -5
0 -10 -7 -10 -15z"/>
<path d="M6090 11090 c-9 -6 -10 -10 -3 -10 6 0 15 5 18 10 8 12 4 12 -15 0z"/>
<path d="M140 8980 c-8 -5 -12 -12 -9 -15 4 -3 12 1 19 10 14 17 11 19 -10 5z"/>
<path d="M5740 8100 c0 -5 7 -10 16 -10 8 0 12 5 9 10 -3 6 -10 10 -16 10 -5
0 -9 -4 -9 -10z"/>
<path d="M5905 7780 c3 -5 8 -10 11 -10 2 0 4 5 4 10 0 6 -5 10 -11 10 -5 0
-7 -4 -4 -10z"/>
<path d="M6070 7201 c0 -5 5 -13 10 -16 6 -3 10 -2 10 4 0 5 -4 13 -10 16 -5
3 -10 2 -10 -4z"/>
<path d="M166 6963 c-6 -14 -5 -15 5 -6 7 7 10 15 7 18 -3 3 -9 -2 -12 -12z"/>
<path d="M40 5664 c0 -9 5 -14 12 -12 18 6 21 28 4 28 -9 0 -16 -7 -16 -16z"/>
<path d="M69 5353 c-13 -16 -12 -17 4 -4 9 7 17 15 17 17 0 8 -8 3 -21 -13z"/>
<path d="M85 5320 c-3 -5 -1 -10 4 -10 6 0 11 5 11 10 0 6 -2 10 -4 10 -3 0
-8 -4 -11 -10z"/>
<path d="M3735 90 c-3 -5 1 -10 10 -10 9 0 13 5 10 10 -3 6 -8 10 -10 10 -2 0
-7 -4 -10 -10z"/>
<path d="M3545 10 c-3 -6 1 -7 9 -4 18 7 21 14 7 14 -6 0 -13 -4 -16 -10z"/>
</g>
</svg>
