<?xml version="1.0" standalone="no"?>
<!DOCTYPE svg PUBLIC "-//W3C//DTD SVG 20010904//EN"
 "http://www.w3.org/TR/2001/REC-SVG-20010904/DTD/svg10.dtd">
<svg version="1.0" xmlns="http://www.w3.org/2000/svg"
 width="1536.000000pt" height="1420.000000pt" viewBox="0 0 1536.000000 1420.000000"
 preserveAspectRatio="xMidYMid meet">
<metadata>
Created by potrace 1.16, written by Peter Selinger 2001-2019
</metadata>
<g transform="translate(0.000000,1420.000000) scale(0.100000,-0.100000)"
fill="#000000" stroke="none">
<path d="M6209 14190 c-29 -17 -140 -39 -279 -55 -194 -22 -300 -51 -358 -98
-16 -13 -62 -16 -68 -5 -3 5 5 17 18 28 20 16 21 19 6 25 -18 7 -49 -7 -91
-41 -23 -19 -35 -22 -70 -18 -32 5 -56 0 -100 -20 -83 -36 -126 -47 -148 -36
-14 8 -29 0 -76 -40 -62 -53 -73 -59 -73 -35 0 28 -33 15 -74 -29 -36 -39 -74
-66 -90 -66 -12 0 -5 28 9 40 8 7 15 16 15 21 0 4 -48 -21 -107 -57 -175 -106
-365 -190 -518 -229 -107 -26 -99 -22 -81 -49 14 -23 14 -24 -8 -30 -13 -3
-44 -3 -69 0 l-44 6 -22 -44 c-11 -24 -21 -49 -21 -55 0 -15 -38 -61 -62 -74
-18 -9 -19 -8 -13 10 12 38 -18 22 -61 -32 -30 -39 -48 -53 -73 -57 -26 -4
-43 -17 -75 -60 -23 -30 -56 -64 -74 -75 -17 -11 -31 -28 -32 -37 0 -11 -17
-22 -49 -33 -69 -22 -155 -81 -240 -161 -54 -51 -75 -64 -83 -56 -7 7 -29 12
-50 12 l-38 0 0 -54 c0 -51 -2 -54 -27 -59 -16 -3 -29 -4 -31 -3 -1 2 9 67 22
144 19 108 32 155 55 199 17 31 29 58 27 60 -2 2 -22 -12 -46 -32 -44 -37 -60
-43 -60 -22 0 19 27 55 81 112 44 46 78 105 61 105 -4 0 -30 -22 -57 -50 -27
-27 -53 -50 -57 -50 -14 0 21 59 68 117 24 29 44 60 44 68 0 21 -9 19 -30 -7
-26 -32 -38 -13 -13 20 27 37 145 244 140 248 -12 13 -60 -35 -102 -103 -27
-45 -54 -85 -58 -89 -17 -17 8 34 49 101 49 80 74 143 74 188 l0 30 -25 -23
c-13 -12 -34 -51 -45 -85 -22 -66 -44 -104 -55 -94 -3 4 1 29 10 57 20 59 17
106 -6 110 -13 2 -19 -11 -28 -62 -19 -109 -31 -122 -28 -32 1 51 -2 80 -9 83
-20 7 -28 -28 -33 -144 -5 -88 -10 -116 -23 -130 -17 -16 -18 -13 -18 62 0 44
-4 86 -9 93 -16 25 -31 -47 -31 -147 0 -159 -4 -169 -66 -198 -33 -15 -85 -27
-134 -32 -80 -9 -81 -8 -110 20 -22 23 -38 29 -70 29 -34 0 -41 3 -36 16 10
26 -4 35 -27 19 -21 -15 -108 -21 -120 -8 -4 3 0 15 10 25 21 23 11 33 -18 17
-15 -8 -48 -10 -101 -6 -43 4 -90 2 -104 -3 -23 -9 -25 -8 -19 10 8 26 -3 25
-32 -2 l-23 -21 0 26 c0 35 -17 34 -55 -3 -34 -33 -70 -33 -60 0 5 15 -6 18
-97 24 -56 4 -106 8 -111 9 -5 1 -16 -17 -24 -40 -8 -23 -20 -44 -28 -47 -12
-4 -13 3 -9 38 l6 43 -73 5 c-41 3 -81 9 -90 12 -11 5 -21 -4 -35 -34 -23 -49
-39 -51 -58 -5 -18 42 -36 46 -36 7 0 -23 -27 -78 -30 -62 -1 3 -3 13 -5 24
-6 30 -25 44 -25 18 0 -27 1 -27 -78 -2 -79 25 -82 25 -82 0 0 -22 -26 -28
-32 -8 -3 9 -14 7 -40 -5 -20 -9 -52 -17 -72 -17 -26 0 -39 -6 -48 -21 -7 -12
-32 -30 -56 -40 -36 -16 -42 -22 -37 -39 8 -26 -7 -26 -30 0 -21 24 -35 18
-35 -16 0 -29 -15 -31 -30 -4 -10 19 -13 18 -50 -25 -22 -26 -40 -54 -40 -65
0 -23 -26 -33 -50 -20 -10 6 -21 10 -24 10 -12 0 -5 -28 9 -40 20 -17 19 -27
-6 -40 -29 -16 -62 -6 -105 33 -37 32 -37 32 -32 7 3 -14 7 -30 9 -37 2 -6 0
-12 -6 -13 -5 -1 -23 29 -38 68 -32 78 -57 101 -57 52 0 -16 9 -53 21 -82 l21
-53 -26 24 c-31 29 -39 55 -65 188 -23 120 -43 166 -77 182 -14 6 -28 11 -31
11 -6 0 2 -134 13 -215 7 -45 6 -49 -9 -37 -23 20 -35 65 -46 170 -10 93 -31
149 -53 136 -10 -6 -9 -27 8 -148 5 -35 4 -47 -4 -42 -11 6 -31 65 -52 151
-11 48 -35 83 -47 72 -4 -5 -8 -34 -8 -66 1 -48 9 -75 59 -179 32 -68 56 -125
53 -129 -12 -11 -54 26 -84 74 -17 26 -47 79 -67 116 -21 38 -40 66 -43 63
-14 -14 35 -127 93 -212 104 -154 118 -195 39 -114 -56 57 -65 49 -12 -10 32
-35 59 -83 92 -162 26 -62 58 -132 71 -155 14 -24 20 -43 15 -43 -6 0 -33 20
-61 45 -48 43 -80 57 -80 35 0 -5 33 -45 74 -88 76 -81 102 -119 91 -130 -3
-3 -14 -1 -23 6 -39 28 -62 36 -74 24 -8 -8 0 -23 29 -56 76 -86 153 -272 153
-368 0 -22 6 -31 26 -39 26 -9 26 -10 8 -23 -16 -12 -17 -18 -6 -40 18 -39 15
-56 -9 -56 -14 0 -19 -5 -16 -14 3 -7 9 -34 12 -60 6 -40 10 -46 31 -46 32 0
31 -28 -1 -36 -14 -3 -25 -10 -25 -15 0 -30 24 -110 36 -120 12 -10 12 -13 -3
-24 -15 -11 -15 -13 8 -25 31 -17 40 -31 28 -46 -7 -8 -5 -30 6 -67 8 -30 12
-62 9 -72 -6 -14 -3 -16 16 -10 20 6 22 5 14 -11 -4 -11 -8 -36 -8 -56 0 -33
-3 -38 -22 -38 -30 0 -37 -13 -19 -36 11 -16 18 -17 43 -8 l30 11 4 -101 c3
-90 7 -110 35 -167 39 -79 117 -160 228 -235 80 -54 83 -57 83 -96 1 -46 40
-113 72 -123 12 -4 20 -15 20 -28 0 -12 6 -42 13 -67 9 -34 17 -45 32 -45 13
0 22 -10 29 -32 10 -38 26 -44 26 -10 0 23 16 55 23 47 11 -14 37 -99 37 -122
0 -20 6 -27 28 -32 15 -4 39 -21 53 -39 22 -25 30 -29 41 -19 12 9 19 4 37
-28 64 -114 183 -201 279 -206 46 -2 60 -7 88 -35 27 -26 42 -32 79 -33 33 -1
45 -5 45 -16 0 -10 11 -16 35 -17 31 -1 34 1 30 20 -4 18 2 26 30 39 31 16 36
16 40 3 3 -8 7 -22 10 -31 9 -29 25 -3 25 42 0 31 4 44 14 44 18 0 31 -17 45
-62 10 -31 27 -48 48 -48 6 0 -1 36 -12 63 -18 42 68 5 158 -67 52 -43 78 -50
56 -16 -15 25 -10 50 10 50 10 0 21 7 25 15 9 26 36 17 57 -20 20 -33 24 -35
58 -29 51 9 55 13 34 37 -18 20 -17 20 2 12 11 -4 34 -10 52 -13 25 -3 32 0
38 18 7 21 11 22 63 16 53 -6 56 -5 82 26 l27 32 36 -28 c34 -26 43 -28 95
-23 53 5 63 2 157 -44 65 -33 124 -54 168 -62 54 -9 66 -14 61 -27 -12 -29 -9
-45 6 -40 49 16 118 3 210 -40 81 -37 105 -44 162 -44 59 -1 68 -4 77 -23 13
-28 28 -29 36 -3 7 21 30 27 40 10 4 -6 24 -18 46 -27 22 -8 46 -25 54 -36 12
-17 17 -19 27 -9 7 7 27 12 45 12 27 0 34 -5 39 -26 5 -18 10 -22 17 -15 6 6
20 11 30 11 15 0 18 -5 13 -24 -7 -30 8 -36 114 -45 l75 -6 -32 -23 c-47 -33
-158 -86 -236 -112 -59 -19 -66 -24 -51 -34 15 -11 11 -14 -29 -19 -183 -25
-291 -18 -507 35 -103 25 -160 53 -265 129 -105 76 -138 89 -228 89 -92 0
-172 -20 -267 -67 -61 -31 -97 -60 -190 -153 -138 -138 -250 -275 -288 -350
-41 -83 -38 -183 11 -355 21 -71 41 -131 46 -133 4 -1 32 -18 62 -37 117 -74
101 -71 261 -47 79 12 164 22 190 22 37 0 48 4 53 19 3 10 30 53 60 94 94 132
115 185 86 226 -25 35 -101 188 -101 202 0 8 24 10 83 7 62 -4 116 -16 222
-51 140 -46 236 -67 309 -67 28 0 79 -20 180 -70 166 -83 269 -112 373 -108
62 2 75 0 88 -17 14 -18 16 -19 25 -3 8 13 22 16 62 13 28 -2 54 -9 58 -15 7
-11 132 -3 263 17 30 4 37 2 37 -11 0 -9 2 -16 5 -16 9 0 81 35 108 53 l27 18
0 -31 0 -32 43 9 c51 10 364 9 375 -1 4 -4 -3 -16 -16 -26 -17 -14 -21 -25
-16 -44 13 -55 -4 -93 -82 -176 -44 -48 -77 -92 -80 -109 -4 -20 -14 -31 -30
-35 -20 -5 -93 -93 -82 -100 1 -1 14 -7 27 -12 l24 -10 -36 -23 c-54 -33 -97
-87 -97 -121 0 -24 -5 -31 -27 -36 -59 -14 -71 -44 -18 -44 19 0 35 -4 35 -9
0 -7 -81 -47 -133 -65 -20 -7 -14 -26 9 -26 20 0 18 -20 -3 -26 -47 -15 -86
-37 -124 -71 -36 -33 -42 -35 -50 -20 -15 26 -30 20 -23 -7 6 -24 5 -25 -25
-13 -27 10 -32 9 -51 -16 -24 -30 -69 -56 -157 -89 -32 -11 -67 -27 -79 -35
-18 -12 -28 -10 -80 17 -128 65 -218 60 -293 -17 l-43 -45 -77 76 -76 76 -40
-11 c-22 -6 -66 -24 -97 -40 -60 -30 -88 -36 -88 -19 0 6 -10 10 -22 10 -14 0
-70 -47 -167 -143 -80 -79 -176 -167 -212 -195 -63 -49 -67 -55 -79 -112 -7
-34 -18 -60 -25 -60 -20 0 -65 -51 -65 -73 0 -12 12 -34 27 -49 29 -30 58 -34
126 -19 l37 9 0 -34 c0 -36 20 -54 60 -54 12 0 62 14 111 31 48 17 93 28 98
24 6 -3 8 -19 5 -34 -7 -36 6 -45 41 -27 16 8 42 12 65 9 68 -9 104 4 156 57
27 28 69 60 94 73 43 21 54 22 215 17 303 -9 441 -4 600 20 138 20 280 24 380
8 15 -2 21 3 23 20 3 22 7 23 40 17 20 -4 63 -7 96 -6 51 1 61 5 78 29 11 15
127 133 257 262 130 129 251 252 269 274 24 28 38 37 53 33 29 -8 49 2 49 23
0 10 7 23 15 30 8 7 15 18 15 24 0 7 26 31 58 53 40 28 89 81 156 167 128 165
170 202 236 208 58 6 102 40 122 95 8 22 19 33 31 33 11 0 31 12 45 27 23 25
25 26 38 9 7 -10 45 -94 84 -187 39 -92 86 -192 105 -223 l33 -55 -6 -129
c-10 -256 42 -351 293 -531 66 -47 147 -114 181 -149 37 -39 75 -68 99 -77 34
-11 45 -23 71 -74 37 -73 55 -93 112 -133 29 -20 42 -36 42 -53 0 -13 13 -59
29 -102 31 -83 43 -158 26 -158 -6 0 -125 57 -265 127 -277 138 -397 211 -505
308 -191 171 -278 226 -406 254 -97 21 -137 49 -177 125 -34 62 -73 101 -101
101 -9 0 -41 -16 -71 -35 -30 -19 -63 -35 -73 -35 -11 0 -44 23 -75 51 -63 57
-114 83 -184 92 l-47 6 -97 -85 c-54 -47 -144 -124 -201 -172 l-103 -86 0 -94
0 -93 35 7 35 6 0 -64 c0 -35 7 -90 15 -121 15 -59 57 -151 74 -161 14 -9 79
61 86 94 4 16 10 30 15 30 14 0 45 -49 78 -122 31 -70 46 -82 57 -49 3 10 36
47 73 83 37 35 76 76 87 91 26 35 43 29 77 -28 15 -25 35 -45 44 -45 12 0 14
-5 9 -17 -4 -10 -17 -54 -27 -98 -38 -152 -9 -298 66 -345 45 -27 148 -28 175
-1 17 17 63 126 76 182 6 23 13 27 60 32 51 5 149 -3 210 -18 17 -4 90 -32
164 -62 73 -30 166 -63 206 -73 64 -16 85 -28 162 -91 115 -94 185 -127 303
-141 85 -11 97 -15 150 -54 79 -58 113 -74 156 -74 27 0 46 -7 63 -24 21 -21
46 -28 136 -41 142 -21 323 -64 506 -121 l145 -46 80 40 c122 62 122 62 126
224 4 159 10 173 60 135 51 -39 123 -71 248 -112 124 -41 197 -73 246 -111 18
-13 66 -37 108 -54 114 -45 255 -118 528 -272 135 -77 249 -147 253 -156 3 -9
9 -50 12 -92 8 -105 -15 -208 -93 -418 -36 -96 -70 -197 -77 -225 -9 -41 -34
-82 -118 -193 -101 -135 -181 -257 -228 -352 -12 -24 -37 -57 -55 -73 -19 -16
-55 -63 -82 -104 -62 -95 -82 -104 -269 -116 -77 -6 -157 -14 -178 -20 -55
-15 -105 -63 -118 -115 -13 -52 -15 -52 -117 2 -35 19 -76 34 -90 34 -36 0
-200 -144 -287 -253 -63 -78 -147 -230 -161 -289 -5 -24 -3 -28 14 -28 34 0
35 -17 3 -64 -39 -56 -61 -140 -61 -233 0 -59 3 -73 15 -73 20 0 71 26 113 57
l32 24 2 -23 c0 -13 0 -60 -2 -105 -1 -45 1 -86 4 -92 5 -7 20 -4 46 9 22 11
63 25 92 31 29 6 75 20 101 32 60 25 70 16 63 -61 -4 -51 -4 -53 17 -45 28 10
73 10 113 0 27 -7 37 -4 67 23 20 17 65 68 101 113 108 135 139 149 341 148
205 0 275 15 338 73 21 20 27 33 23 50 -4 17 2 30 25 52 40 38 98 123 139 204
18 36 76 133 130 215 53 83 154 247 225 365 148 250 194 319 322 490 113 150
153 229 160 314 4 49 12 72 43 116 99 146 158 284 270 629 l80 245 -24 26
c-13 14 -42 52 -66 85 -84 118 -158 178 -244 199 -16 4 -63 33 -105 65 -109
83 -289 204 -579 391 l-253 163 -117 131 c-199 223 -323 354 -427 449 -55 50
-113 112 -129 139 -35 61 -110 135 -185 185 -31 21 -130 75 -221 122 -153 78
-280 155 -280 170 1 20 51 144 68 169 l21 29 -24 23 c-27 25 -33 50 -12 50 7
0 20 -9 30 -20 9 -11 21 -20 26 -20 5 0 19 29 31 65 12 36 24 65 26 65 3 0 14
-5 25 -10 16 -9 21 -5 35 30 9 22 34 54 55 71 44 35 69 76 69 114 0 21 5 25
30 25 43 0 98 52 112 106 7 24 18 44 25 44 7 0 13 -3 13 -7 0 -5 4 -14 9 -22
7 -11 15 -10 41 9 29 21 32 27 27 61 -5 37 -4 39 23 39 52 0 61 8 54 51 -10
61 26 93 48 44 23 -50 48 -25 48 47 l0 40 38 -7 c34 -5 40 -3 61 25 12 18 35
36 51 41 23 9 28 17 33 55 5 49 25 80 35 55 3 -8 16 -26 29 -39 l24 -24 30 28
c16 16 56 80 89 144 60 117 103 170 153 189 25 10 28 15 22 41 -5 24 -3 30 11
30 10 0 52 36 94 80 77 80 103 97 93 60 -5 -18 0 -20 58 -20 51 0 81 -8 149
-37 66 -29 99 -37 144 -38 l60 0 45 -63 c66 -91 247 -224 345 -254 89 -26 122
-42 274 -135 68 -42 124 -74 125 -72 1 2 7 13 13 24 6 11 20 20 30 20 20 0 22
-19 9 -62 -6 -17 -3 -24 11 -28 11 -3 36 -15 58 -26 27 -15 48 -19 72 -15 31
6 34 4 40 -21 15 -72 41 -103 59 -73 12 19 44 11 47 -12 2 -19 10 -23 37 -24
32 0 35 -3 48 -47 13 -44 16 -47 48 -47 23 0 35 -5 35 -14 0 -17 38 -66 51
-66 5 0 14 11 19 25 9 23 12 24 31 14 13 -6 40 -9 64 -6 38 6 43 4 58 -23 22
-36 68 -72 182 -143 50 -30 107 -73 129 -95 34 -35 43 -40 72 -35 22 4 34 2
34 -6 0 -6 -4 -11 -9 -11 -5 0 -11 -7 -15 -15 -4 -11 6 -20 34 -31 26 -11 67
-46 121 -105 78 -86 82 -89 96 -69 8 11 17 20 21 20 4 0 48 -32 97 -71 50 -40
114 -87 142 -106 29 -18 60 -48 69 -66 23 -46 79 -112 117 -139 17 -12 54 -30
82 -40 41 -14 54 -24 75 -61 14 -24 51 -73 82 -108 55 -61 58 -63 72 -44 16
22 14 25 35 -50 12 -42 80 -159 81 -137 0 21 30 13 30 -9 0 -31 17 -58 79
-124 32 -33 63 -75 70 -92 10 -24 20 -33 37 -33 29 0 38 -14 19 -30 -8 -7 -15
-21 -15 -30 0 -19 44 -60 65 -60 6 0 20 -28 31 -62 10 -34 49 -116 87 -182 75
-129 101 -193 112 -274 6 -43 11 -53 30 -58 19 -5 23 -14 27 -59 4 -41 16 -73
54 -137 40 -69 49 -91 49 -133 0 -34 7 -60 21 -80 29 -42 43 -88 51 -167 5
-58 9 -68 25 -68 11 0 24 -12 31 -27 6 -16 15 -31 19 -34 5 -3 3 -20 -3 -38
-15 -42 -6 -107 18 -133 16 -18 18 -41 19 -227 1 -126 8 -268 19 -366 10 -89
19 -239 19 -337 l1 -178 23 0 23 0 -20 -26 c-24 -31 -25 -45 -6 -99 13 -36 13
-41 -5 -60 -26 -28 -46 -88 -54 -165 -9 -80 -31 -151 -57 -184 l-20 -26 29 0
c54 0 56 -22 6 -69 -28 -26 -43 -48 -40 -57 3 -8 9 -21 12 -29 4 -9 1 -15 -9
-15 -12 0 -47 -64 -47 -85 0 -3 17 2 38 11 69 30 66 29 52 3 -7 -13 -46 -66
-87 -118 -69 -87 -123 -176 -123 -201 0 -5 7 -10 16 -10 12 0 6 -13 -20 -49
-20 -27 -54 -98 -77 -158 -22 -59 -51 -125 -65 -147 l-26 -38 44 7 c41 7 42 6
26 -11 -10 -10 -37 -27 -60 -39 -48 -22 -67 -65 -29 -65 32 0 32 -15 0 -29
-16 -7 -46 -34 -67 -59 -20 -25 -57 -67 -81 -94 -36 -39 -41 -50 -31 -62 16
-20 6 -33 -29 -41 -43 -9 -112 -74 -175 -164 -30 -43 -70 -90 -88 -105 -18
-14 -27 -26 -20 -26 26 0 10 -26 -33 -53 -75 -48 -152 -111 -328 -270 -93 -83
-164 -153 -158 -155 17 -6 13 -32 -4 -32 -32 0 -154 -64 -274 -144 -136 -90
-189 -119 -266 -147 -38 -13 -50 -23 -49 -37 0 -16 -8 -21 -39 -26 -22 -4 -89
-27 -151 -53 -82 -34 -129 -47 -180 -51 -55 -4 -70 -8 -73 -23 -4 -13 -20 -19
-76 -24 -40 -3 -164 -17 -277 -30 -365 -42 -454 -48 -644 -42 -99 4 -216 13
-258 20 -46 8 -79 10 -81 4 -1 -5 -18 -3 -37 5 -80 33 -140 32 -140 -2 0 -16
-7 -14 -51 15 -64 44 -121 60 -160 46 -21 -7 -29 -7 -29 2 0 7 -16 24 -35 40
-26 21 -41 26 -60 21 -19 -5 -32 -1 -48 14 -35 33 -108 62 -158 62 -49 0 -74
15 -249 147 -62 47 -134 82 -167 83 -13 0 -23 4 -23 9 0 23 -59 75 -163 144
-61 40 -128 89 -147 107 -27 25 -38 30 -50 21 -32 -23 -44 -24 -54 -6 -43 75
-167 172 -250 195 -38 10 -50 20 -73 59 -30 52 -120 180 -203 291 -92 122
-157 222 -209 320 -27 51 -52 87 -55 81 -4 -6 -13 -11 -20 -11 -9 0 -17 27
-24 85 -11 86 -37 151 -77 195 -15 17 -24 42 -28 81 -3 31 -24 116 -47 190
-22 74 -46 162 -53 196 -10 55 -16 66 -49 90 -37 27 -38 29 -33 78 6 52 -3 94
-49 250 -24 77 -27 105 -25 195 5 193 3 208 -26 250 -32 46 -30 76 17 203 25
69 29 91 23 137 -3 30 -7 98 -8 150 -1 52 -6 156 -11 231 l-9 136 29 43 c26
39 29 52 30 128 0 66 4 86 16 93 13 7 14 16 7 46 -19 84 -4 223 43 392 19 72
19 75 2 88 -10 7 -36 13 -58 13 -39 0 -44 -4 -104 -78 -158 -195 -170 -207
-210 -207 l-37 0 -41 -120 c-40 -116 -42 -120 -70 -120 l-29 0 -13 -120 c-12
-100 -19 -131 -47 -185 -41 -80 -78 -197 -105 -331 -31 -152 -90 -560 -97
-669 l-6 -96 27 -12 c25 -11 37 -42 16 -42 -31 0 -31 -48 0 -315 40 -347 64
-499 105 -660 32 -125 80 -255 110 -302 13 -20 13 -23 -2 -31 -14 -8 -9 -21
40 -93 30 -46 99 -165 152 -264 113 -208 148 -266 219 -354 37 -47 50 -72 48
-91 -4 -39 94 -167 237 -311 64 -63 123 -128 131 -143 8 -16 39 -49 68 -74 29
-25 60 -58 68 -74 11 -22 20 -27 37 -23 17 4 27 -2 46 -31 59 -86 236 -229
390 -314 53 -29 66 -40 65 -59 -1 -18 8 -27 35 -38 43 -18 105 -60 166 -113
31 -27 67 -46 115 -60 55 -16 73 -27 84 -48 18 -35 68 -63 203 -113 70 -26
118 -50 135 -69 15 -16 52 -38 83 -49 53 -20 182 -45 201 -39 8 2 28 -14 101
-84 20 -18 30 -20 92 -14 38 4 80 4 95 0 l26 -6 -23 -18 c-37 -31 -10 -38 93
-24 236 32 279 36 347 31 46 -3 92 -14 126 -30 48 -22 58 -23 114 -14 44 8 97
7 191 -3 72 -7 157 -10 190 -7 53 6 61 4 74 -14 l13 -21 107 21 c59 11 243 39
410 60 452 60 638 101 778 171 44 22 60 25 77 17 19 -8 32 -4 80 31 32 22 92
62 133 88 41 27 118 76 171 111 92 60 99 63 143 57 41 -6 52 -3 115 35 47 28
81 41 106 41 53 0 105 25 105 49 0 16 6 21 28 21 65 0 169 73 187 131 5 16 12
19 33 14 24 -5 29 -1 45 38 12 29 40 64 82 101 45 39 65 65 70 88 13 64 56
106 52 52 -1 -15 3 -28 8 -30 11 -4 76 92 100 148 16 40 32 48 41 23 8 -20 38
-19 55 2 8 9 50 40 94 69 120 78 175 146 175 218 0 31 9 56 21 56 5 0 9 -9 9
-20 0 -11 6 -20 14 -20 25 0 112 104 170 205 77 132 127 198 171 225 34 21 36
25 30 59 -5 32 -2 40 28 70 46 44 88 138 143 317 51 168 68 203 130 283 60 78
67 106 53 217 -13 96 -8 149 16 180 14 17 15 13 13 -45 -5 -112 16 -82 75 111
97 315 124 465 114 648 -4 75 -2 122 9 165 24 102 29 257 10 380 -9 61 -19
120 -22 133 -5 18 -2 22 14 22 38 0 45 33 21 97 -33 88 -34 108 -10 139 33 41
24 131 -26 260 -8 22 25 17 39 -6 7 -11 19 -20 27 -20 11 0 13 12 8 55 -6 63
6 72 28 19 8 -20 20 -34 27 -32 23 8 19 35 -10 79 -32 47 -102 185 -102 200 0
5 7 9 15 9 20 0 19 2 -10 59 -24 47 -24 49 -5 54 31 8 25 49 -26 198 -50 149
-89 223 -147 287 -22 23 -34 42 -27 42 7 0 36 -25 64 -55 58 -63 86 -74 61
-24 -10 18 -14 41 -10 57 4 22 -3 38 -45 87 -67 81 -120 157 -120 173 0 25 25
6 55 -41 27 -43 59 -66 71 -54 10 10 -55 123 -90 156 -42 40 -44 51 -15 69 21
14 21 14 -9 45 -25 26 -29 36 -20 50 14 25 3 60 -38 125 -20 30 -38 71 -41 91
-4 20 -21 53 -39 75 -18 21 -52 75 -75 120 -23 44 -55 100 -71 124 -27 39 -26
60 2 27 17 -21 30 -19 30 5 0 10 -18 34 -40 52 -27 21 -40 39 -39 53 2 13 -19
43 -62 86 -43 45 -91 113 -149 210 -99 168 -189 269 -258 290 -50 15 -55 36
-9 41 l32 3 -45 24 c-37 20 -42 25 -27 30 17 6 17 8 3 20 -9 8 -41 49 -71 91
-60 87 -115 144 -159 167 -21 11 -25 18 -17 26 21 21 11 36 -59 93 -62 50 -70
60 -70 90 0 28 -6 38 -37 57 -21 13 -55 30 -75 38 -21 7 -38 19 -38 27 0 7 5
10 11 6 30 -18 -5 24 -95 116 -54 56 -116 110 -137 121 -23 11 -36 24 -33 32
2 7 -22 35 -58 64 -35 28 -108 92 -163 143 -119 110 -216 180 -291 211 -42 18
-54 28 -54 44 0 14 -10 26 -26 34 -15 6 -61 38 -103 71 -79 61 -163 105 -218
116 -21 4 -33 12 -33 23 -1 46 -101 111 -174 111 -26 0 -36 22 -16 35 22 13 8
23 -43 29 -66 9 -88 20 -55 30 l23 7 -25 8 c-14 5 -69 31 -123 60 -53 28 -107
51 -118 51 -29 0 -59 18 -59 35 0 19 -25 31 -82 39 -37 6 -92 37 -292 171
-136 90 -260 175 -277 189 -22 18 -42 26 -70 26 -37 0 -40 2 -37 28 2 21 -2
28 -19 30 -19 3 -23 -1 -23 -24 0 -22 -3 -25 -12 -16 -7 7 -23 12 -36 12 -21
0 -22 1 -8 16 9 8 16 20 16 25 0 5 -29 22 -65 38 -58 27 -65 33 -60 53 5 20
-14 44 -122 154 -100 102 -138 135 -175 149 -50 18 -63 35 -28 35 26 0 25 11
-6 57 -45 66 -80 143 -134 298 -59 171 -109 284 -146 332 -14 18 -20 33 -15
33 23 0 9 30 -29 63 -40 34 -53 62 -25 51 17 -7 21 21 5 31 -6 3 -17 20 -26
37 -14 27 -14 31 2 43 17 12 16 17 -18 91 -20 44 -51 115 -67 160 -17 44 -47
99 -66 121 -26 31 -35 50 -35 78 0 25 -8 47 -25 67 -14 16 -32 55 -40 86 -24
87 -25 88 -140 225 -128 154 -197 223 -270 272 -32 21 -55 43 -55 54 0 22 -24
44 -125 113 -100 69 -152 96 -204 104 -27 4 -42 13 -46 25 -9 28 -62 67 -100
75 -34 6 -50 34 -20 34 8 0 15 7 15 15 0 8 -9 15 -20 15 -30 0 -70 23 -131 75
-30 25 -75 54 -101 63 -27 9 -48 22 -48 29 0 13 -13 18 -94 32 -57 11 -86 25
-86 42 0 14 31 11 84 -7 26 -9 50 -13 54 -9 4 4 2 10 -5 12 -6 2 -65 36 -130
75 -162 96 -244 137 -340 168 -66 21 -78 28 -65 37 15 9 12 13 -19 26 -78 33
-189 67 -216 67 -23 0 -31 6 -40 30 -14 36 -63 60 -124 60 -23 0 -39 3 -36 7
15 15 -18 33 -60 33 -40 0 -44 2 -38 20 5 17 2 20 -22 20 -15 0 -46 -5 -68
-10 -47 -11 -54 -6 -36 21 7 12 11 23 9 25 -2 1 -46 -2 -98 -8 -73 -8 -105 -8
-140 2 l-45 12 34 12 c19 6 36 16 38 22 3 9 -28 11 -109 10 -95 -1 -119 2
-148 18 -30 17 -32 21 -15 24 11 2 26 9 34 16 11 8 -13 12 -105 17 -99 5 -140
13 -249 46 -187 58 -185 57 -185 33 0 -23 -6 -24 -40 -5 -33 19 -94 19 -130 0
-28 -15 -30 -14 -30 5 0 22 -15 25 -41 10z"/>
</g>
</svg>
