<?xml version="1.0" standalone="no"?>
<!DOCTYPE svg PUBLIC "-//W3C//DTD SVG 20010904//EN"
 "http://www.w3.org/TR/2001/REC-SVG-20010904/DTD/svg10.dtd">
<svg version="1.0" xmlns="http://www.w3.org/2000/svg"
 width="1536.000000pt" height="1230.000000pt" viewBox="0 0 1536.000000 1230.000000"
 preserveAspectRatio="xMidYMid meet">
<metadata>
Created by potrace 1.16, written by Peter Selinger 2001-2019
</metadata>
<g transform="translate(0.000000,1230.000000) scale(0.100000,-0.100000)"
fill="#000000" stroke="none">
<path d="M14855 12284 c-135 -25 -293 -70 -521 -150 -562 -195 -920 -311
-1519 -493 -703 -213 -1131 -375 -1590 -601 -501 -247 -796 -457 -975 -696
-141 -186 -358 -544 -511 -839 -123 -238 -150 -309 -161 -425 -21 -223 -98
-445 -174 -497 -68 -47 -95 -79 -105 -123 -13 -58 -46 -105 -129 -183 -122
-116 -243 -198 -684 -466 -85 -52 -193 -124 -241 -160 -48 -36 -100 -76 -116
-88 -42 -30 -111 -44 -284 -53 -187 -11 -250 -24 -283 -59 -23 -25 -29 -26
-116 -25 -50 1 -149 10 -221 22 -213 34 -349 45 -570 46 -231 1 -333 -12 -387
-48 -20 -13 -47 -48 -68 -90 -39 -75 -88 -126 -123 -126 -52 0 -234 -102 -567
-320 -373 -244 -646 -395 -890 -495 -198 -80 -327 -166 -396 -265 -85 -121
-158 -169 -271 -178 -39 -3 -63 -9 -63 -17 0 -6 18 -26 40 -44 35 -28 40 -37
40 -72 0 -50 -31 -112 -107 -214 -111 -150 -399 -453 -739 -779 -337 -322
-381 -348 -506 -289 -86 41 -179 114 -225 176 -34 46 -38 59 -41 122 -11 200
148 581 405 975 94 144 174 248 323 420 176 204 293 365 425 584 177 294 455
917 455 1019 0 36 12 57 81 137 97 114 111 163 59 202 -61 45 -41 84 137 271
280 294 413 525 379 661 -7 30 -52 56 -95 56 -17 0 -42 10 -58 24 -25 22 -27
30 -27 92 0 38 4 130 8 204 7 113 7 137 -6 147 -19 16 -54 -2 -125 -65 -85
-74 -134 -104 -150 -91 -7 6 -13 22 -13 34 0 33 -10 55 -24 55 -7 0 -37 -18
-66 -40 -29 -22 -58 -40 -63 -40 -17 0 0 100 42 248 108 381 187 854 146 869
-6 2 -35 -17 -64 -42 -72 -61 -111 -81 -122 -63 -27 41 -75 275 -124 596 -62
401 -94 542 -136 596 -18 23 -27 27 -58 22 -66 -11 -83 22 -89 166 -6 132 -13
142 -73 93 -117 -93 -146 -114 -171 -124 -25 -9 -29 -8 -42 17 l-15 27 -15
-37 c-41 -97 -82 -385 -106 -743 -34 -528 -249 -1464 -475 -2069 -133 -357
-231 -526 -307 -526 -69 0 -120 -55 -208 -221 -62 -115 -128 -189 -205 -231
-28 -15 -102 -41 -165 -58 -200 -54 -271 -108 -305 -228 -22 -79 -42 -122 -59
-122 -7 0 -26 17 -41 38 -56 74 -87 87 -138 53 -53 -34 -115 -134 -258 -410
-336 -650 -513 -978 -677 -1253 -118 -199 -185 -289 -222 -298 -32 -8 -35 -24
-16 -116 17 -83 10 -122 -22 -108 -9 3 -26 7 -37 8 -38 2 -40 -39 -17 -292 13
-130 34 -379 47 -552 29 -369 45 -501 86 -705 76 -372 204 -646 407 -870 191
-211 238 -265 302 -350 37 -49 86 -124 110 -165 26 -45 75 -105 120 -150 77
-76 121 -103 310 -188 92 -41 130 -75 130 -117 0 -37 7 -41 80 -51 72 -9 79
-23 55 -101 -11 -34 16 -39 116 -18 118 24 122 21 114 -60 l-7 -65 36 -15 c19
-8 55 -15 80 -15 156 0 366 -63 604 -180 192 -94 317 -176 423 -275 124 -116
147 -129 249 -136 72 -5 100 -13 174 -48 174 -81 346 -217 346 -274 0 -37 17
-45 79 -40 48 5 65 1 109 -21 83 -42 89 -75 27 -151 -68 -84 -322 -287 -412
-330 -29 -14 -57 -33 -62 -43 -28 -52 -24 -162 5 -162 9 0 39 21 68 46 28 26
65 53 82 62 61 29 104 -6 104 -83 0 -21 9 -44 24 -62 24 -27 26 -28 167 -34
190 -8 244 -24 362 -105 27 -19 60 -34 72 -34 32 0 76 39 145 131 103 135 209
201 320 201 105 0 149 -41 180 -166 11 -43 29 -91 41 -107 24 -34 68 -59 101
-59 63 1 157 74 205 160 86 152 148 219 220 234 47 11 112 -23 182 -93 117
-119 210 -135 274 -48 31 41 47 89 47 139 0 45 -10 67 -55 123 -95 118 -65
153 142 165 151 10 191 26 212 86 13 37 13 49 -2 110 -10 38 -29 85 -43 106
-21 30 -25 45 -21 74 14 87 96 224 309 514 l114 155 374 0 c425 0 513 9 700
71 146 49 291 81 428 94 294 29 392 56 458 127 24 27 50 45 66 47 37 4 134 61
288 171 298 210 626 330 788 286 91 -25 156 -120 171 -252 9 -84 25 -117 59
-126 31 -7 83 -71 127 -154 19 -37 48 -83 63 -100 33 -40 109 -89 137 -89 174
0 520 -312 833 -751 142 -199 235 -288 383 -368 164 -88 336 -125 664 -140
229 -11 281 -24 316 -78 18 -28 35 -41 69 -50 89 -27 191 7 203 66 7 35 39 55
105 65 63 9 128 46 215 119 80 68 117 84 159 68 13 -5 69 -38 124 -74 108 -71
188 -103 230 -93 15 4 54 33 88 65 74 71 127 105 197 126 94 29 109 37 132 69
18 26 21 43 20 110 -2 130 24 166 120 166 74 0 79 15 23 65 -77 69 -195 105
-463 144 -337 49 -605 48 -703 -3 -89 -47 -191 -61 -445 -61 -364 0 -382 11
-633 383 -103 153 -202 335 -189 348 11 11 143 -73 207 -133 74 -68 113 -122
140 -195 35 -93 72 -116 210 -129 119 -11 171 -28 221 -73 20 -19 55 -40 76
-46 60 -18 227 -24 303 -11 86 16 126 40 146 91 47 118 421 263 532 206 17 -9
66 -46 109 -82 83 -70 115 -88 143 -79 10 3 40 32 68 63 68 79 143 117 287
147 62 13 127 31 143 39 45 23 79 70 87 118 17 107 63 160 121 138 37 -15 71
-12 78 6 3 8 -1 32 -10 52 -48 117 -191 175 -474 192 -175 10 -235 25 -284 68
-54 47 -118 57 -376 57 -327 -1 -503 -33 -593 -110 -82 -70 -255 -99 -348 -58
-127 57 -228 214 -284 445 -18 75 -28 154 -36 288 -14 257 -57 453 -118 538
-32 46 -61 110 -61 136 0 24 16 36 51 36 14 0 25 12 36 37 13 32 13 50 3 129
-11 85 -11 96 6 131 15 30 32 44 81 68 99 48 130 107 153 286 5 47 17 109 25
137 15 48 17 51 43 46 36 -7 131 55 206 137 67 72 87 108 85 152 -3 44 14 71
58 92 75 35 115 86 127 164 9 59 78 232 163 411 127 265 184 439 202 611 11
112 19 139 51 179 34 43 55 179 105 681 47 488 173 800 665 1649 81 140 167
293 190 340 246 488 729 1929 876 2609 42 194 51 312 35 434 -22 165 -74 254
-173 297 -68 30 -209 36 -323 14z"/>
</g>
</svg>
