<?xml version="1.0" standalone="no"?>
<!DOCTYPE svg PUBLIC "-//W3C//DTD SVG 20010904//EN"
 "http://www.w3.org/TR/2001/REC-SVG-20010904/DTD/svg10.dtd">
<svg version="1.0" xmlns="http://www.w3.org/2000/svg"
 width="1536.000000pt" height="865.000000pt" viewBox="0 0 1536.000000 865.000000"
 preserveAspectRatio="xMidYMid meet">
<metadata>
Created by potrace 1.16, written by Peter Selinger 2001-2019
</metadata>
<g transform="translate(0.000000,865.000000) scale(0.100000,-0.100000)"
fill="#000000" stroke="none">
<path d="M9700 8644 c-14 -2 -43 -9 -66 -14 -165 -38 -615 -54 -1154 -39 -624
17 -653 16 -940 -36 -620 -112 -765 -127 -1165 -127 -176 0 -444 7 -595 16
-1062 59 -1556 40 -1975 -76 -299 -83 -714 -238 -907 -340 l-57 -30 -65 17
c-93 25 -159 66 -293 182 -65 56 -147 126 -183 155 -36 30 -75 70 -88 89 -54
81 -122 133 -151 114 -26 -15 -7 -142 63 -420 20 -77 36 -145 36 -152 0 -26
-91 16 -182 83 -139 102 -197 127 -383 164 -88 17 -184 40 -215 51 -199 73
-251 84 -278 57 -24 -24 -22 -32 113 -318 96 -204 106 -231 155 -425 109 -427
185 -620 301 -764 l50 -62 -49 -57 c-76 -89 -131 -169 -207 -302 -108 -190
-189 -266 -375 -352 -41 -19 -108 -60 -148 -91 -126 -97 -161 -109 -347 -118
-88 -4 -197 -12 -242 -18 l-82 -12 -46 36 c-52 39 -93 45 -119 16 -27 -29 -84
-180 -95 -251 -29 -175 5 -423 65 -483 20 -21 37 -27 69 -27 l41 0 -4 -59 c-5
-63 10 -124 37 -155 27 -30 63 -44 237 -92 251 -68 300 -91 411 -195 226 -210
493 -354 841 -454 402 -115 769 -177 1032 -174 l135 1 390 -130 c612 -205
1068 -334 1330 -379 l108 -18 -7 -120 c-4 -66 -14 -176 -22 -245 -9 -88 -14
-255 -14 -565 0 -594 -16 -802 -71 -950 -27 -75 -67 -114 -228 -225 -249 -172
-260 -186 -160 -214 l60 -16 -41 -47 c-22 -26 -39 -53 -38 -62 5 -27 70 -33
273 -28 138 4 226 11 285 24 l85 18 7 88 c8 109 23 173 50 217 l20 34 14 -27
c8 -15 26 -30 39 -33 26 -7 28 -10 25 -61 -1 -27 2 -33 18 -33 30 0 80 46 106
99 61 122 70 199 52 471 -10 153 -11 149 83 424 58 168 94 330 89 394 -2 23
-2 42 0 42 11 0 42 -98 52 -165 35 -244 45 -274 126 -393 79 -115 114 -243
114 -421 0 -126 -15 -202 -60 -296 -56 -117 -190 -300 -330 -450 -85 -91 -140
-156 -140 -167 0 -8 52 -34 103 -52 17 -5 17 -7 3 -22 -22 -22 -20 -31 11 -51
24 -16 52 -18 213 -18 164 0 193 3 257 23 98 30 117 50 138 142 21 89 71 202
109 248 34 39 46 41 46 4 0 -16 9 -37 20 -47 15 -14 20 -31 20 -72 0 -50 1
-53 25 -53 38 0 108 75 136 146 22 54 24 71 22 214 -2 153 -19 585 -49 1222
-16 346 -20 823 -8 958 3 44 7 80 8 80 0 0 37 -8 81 -17 70 -16 148 -18 620
-19 557 -1 631 -4 1250 -59 440 -40 850 -101 922 -139 38 -19 59 -44 79 -91 9
-22 25 -50 36 -62 l21 -22 317 4 c444 7 653 23 837 66 74 17 429 171 645 280
32 16 59 29 61 29 3 0 8 -28 11 -62 9 -76 49 -204 88 -283 17 -33 70 -121 118
-195 132 -204 188 -323 233 -496 45 -176 44 -339 -3 -484 -52 -158 -200 -411
-350 -596 -104 -129 -306 -324 -437 -423 -68 -50 -123 -96 -123 -101 0 -5 17
-12 38 -15 75 -13 77 -14 52 -37 -18 -17 -19 -22 -9 -28 13 -7 414 -25 500
-23 76 2 177 84 198 160 9 31 22 45 71 77 33 21 71 51 84 66 l23 29 11 -24 c6
-13 8 -32 5 -44 -9 -35 28 -26 93 23 68 50 92 75 126 131 42 69 68 141 84 232
8 49 29 122 47 163 18 41 127 220 242 398 116 177 227 348 247 380 54 84 73
166 59 259 -20 132 -12 264 14 223 3 -5 97 -73 208 -151 355 -250 341 -235
546 -603 192 -345 251 -539 251 -815 0 -182 -19 -304 -64 -421 -82 -211 -99
-234 -355 -469 -157 -145 -196 -211 -125 -211 26 0 26 -1 11 -18 -21 -24 -22
-46 0 -63 26 -22 385 -25 483 -5 96 20 183 63 239 118 54 54 74 93 101 199 12
46 33 113 47 149 27 69 83 170 94 170 4 0 10 -16 13 -35 4 -19 15 -40 26 -48
12 -8 21 -31 26 -65 12 -90 50 -93 113 -9 49 66 71 137 78 257 5 87 2 106 -31
230 -64 242 -67 380 -19 850 20 202 22 470 4 530 -9 30 -28 59 -61 90 -26 25
-75 70 -108 101 -67 63 -120 158 -149 269 -24 89 -23 385 1 520 70 390 188
786 369 1240 154 386 174 469 243 1000 21 164 29 437 15 545 -16 130 -35 198
-85 300 -52 105 -122 187 -260 302 -113 95 -172 150 -198 186 l-20 27 86 40
c47 22 122 52 168 67 80 27 91 28 283 28 183 0 206 -2 267 -23 84 -29 132 -65
159 -121 l22 -44 -22 -76 c-12 -42 -50 -125 -84 -186 -136 -243 -137 -246
-137 -349 0 -122 19 -183 69 -229 22 -20 59 -41 83 -48 193 -53 253 -83 282
-143 22 -47 16 -78 -40 -184 -24 -46 -44 -93 -44 -106 0 -13 14 -50 30 -81 17
-31 30 -63 30 -70 0 -8 5 -17 11 -21 8 -4 9 3 4 25 -4 17 -4 45 0 62 l7 31 19
-41 c10 -22 22 -41 26 -41 4 0 16 26 25 58 21 70 69 135 146 197 65 53 92 95
92 143 0 18 9 51 21 73 26 52 34 123 20 175 -15 55 -71 127 -117 149 -35 16
-40 16 -142 -5 -122 -26 -188 -22 -269 14 -58 27 -76 52 -75 106 1 50 18 89
90 201 204 321 201 559 -8 752 -107 100 -382 243 -715 373 -77 30 -225 98
-330 151 -307 154 -411 190 -990 338 -143 37 -348 90 -455 120 -593 161 -1214
272 -1940 345 -191 19 -642 35 -700 24z"/>
</g>
</svg>
